<svg xmlns="http://www.w3.org/2000/svg" viewBox="0 0 137.93 97.87"><defs><style>.cls-1{fill:#663a29;}.cls-2{fill:#cdf43d;}.cls-3{fill:#967a33;}</style></defs><g id="Layer_2" data-name="Layer 2"><g id="Layer_1-2" data-name="Layer 1"><path class="cls-1" d="M33.8,74.24a86.61,86.61,0,0,1-1.06-12.77c0-2.16,0-4.32.19-6.47s.5-4.19.7-6.3a8.07,8.07,0,0,0-.43-4.2,2.86,2.86,0,0,0-.89-1.12,3.66,3.66,0,0,0-2.12-.49,3.52,3.52,0,0,0-2.25.58,3.59,3.59,0,0,0-1,1.75q-.16.48-.3,1a18.09,18.09,0,0,0-.69,5.8,41.11,41.11,0,0,0,.84,5.63c.7,3.54,1.49,7.39-.1,10.81a36.46,36.46,0,0,1-3.25,4.8A16.85,16.85,0,0,0,20.7,81.1a3,3,0,0,0,.66,2.56,3.22,3.22,0,0,0,1.59.63c3.5.7,7.77,1.1,10-1.68C34.75,80.35,34.25,77.1,33.8,74.24Z"/><path d="M35.24,73.84a85.89,85.89,0,0,1-1-12.62c0-2.15,0-4.32.21-6.47s.53-4.17.7-6.26c.29-3.54-.86-7.1-5-7.1a4.45,4.45,0,0,0-4.08,2,13.69,13.69,0,0,0-1.45,4.85c-.59,3.91.3,7.63,1,11.45a18.84,18.84,0,0,1,.38,5.5,10.16,10.16,0,0,1-2.18,5c-2.16,2.94-3.93,5.85-4.49,9.53-.23,1.56-.44,3.34.58,4.68s2.56,1.43,4,1.65c3.24.51,7.07.65,9.61-1.81,2.81-2.72,2.24-6.84,1.69-10.33-.3-1.9-3.19-1.09-2.89.8.37,2.34,1,5.56-.92,7.41-1.7,1.62-4.57,1.37-6.69,1-1-.15-2.48-.08-2.57-1.29A11.68,11.68,0,0,1,23,77.39c1-2.87,3.13-4.89,4.59-7.47,3.25-5.76.13-11.92-.16-17.94a16.39,16.39,0,0,1,.41-4.52c.29-1.24.45-2.92,1.94-3.07s2.26.61,2.4,2.16a23.89,23.89,0,0,1-.4,5.06,82.67,82.67,0,0,0,.56,23C32.65,76.54,35.54,75.74,35.24,73.84Z"/><path class="cls-2" d="M36,38.17c-4-.27-8.57-1.07-12.41.42a16.27,16.27,0,0,0-3.24,1.79A40.14,40.14,0,0,0,14,45.75c3.33-.77,6.85-1.52,10.11-.5,4.22,1.34,7.78,5.81,12.58,4.39A17.64,17.64,0,0,0,40.27,48a2.72,2.72,0,0,0,1-.84,2.6,2.6,0,0,0,.33-1.26A10.52,10.52,0,0,0,41,41.49a6.51,6.51,0,0,0-.86-1.63C39,38.37,37.73,38.28,36,38.17Z"/><path d="M36,36.67c-4.23-.3-8.72-1.08-12.8.47-3.9,1.48-7.39,4.59-10.25,7.55a1.52,1.52,0,0,0,1.46,2.51,26.14,26.14,0,0,1,6.68-.94A11.19,11.19,0,0,1,26.46,48c3,1.73,6,3.86,9.61,3.31a13.69,13.69,0,0,0,5.54-2.42c1.72-1.22,1.69-3.34,1.44-5.25a9.14,9.14,0,0,0-2.36-5.4A7,7,0,0,0,36,36.67c-1.93-.13-1.92,2.87,0,3,1.48.1,2.55.29,3.29,1.73a8,8,0,0,1,.75,2.44,4.92,4.92,0,0,1,0,2.38c-.32.56-1.56,1-2.11,1.29a8.23,8.23,0,0,1-2.36.85,6.55,6.55,0,0,1-3.73-.7c-2.5-1.19-4.67-3-7.35-3.85-3.56-1.13-7.37-.32-10.9.49l1.46,2.51c2.56-2.65,5.76-5.69,9.31-6.92s7.81-.49,11.61-.22C37.94,39.8,37.94,36.8,36,36.67Z"/><path class="cls-3" d="M95.5,54.75c4.66.63,8.34-3.77,10.76-7.8,3.64-6.07,6.77-12.48,11-18.15s9.79-10.69,16.6-12.64L136,32.65c.39,3.05.78,6.19,0,9.17-1.05,4.06-4.14,7.29-7.48,9.84s-7.05,4.62-10.14,7.47c3.43-.18,7-.33,10.15,1.08s5.61,4.9,4.68,8.21a8.91,8.91,0,0,1-3.5,4.42,24,24,0,0,1-14.89,4.78,32.41,32.41,0,0,1,7,4.52,1.7,1.7,0,0,1,.71,1c.06.73-.76,1.18-1.45,1.43-5.68,2.09-12.42,4.06-17.41.64-2.59-1.78-4.14-4.73-5.25-7.68a42.31,42.31,0,0,1-2.49-19.14l-1.19.66"/><path d="M95.5,56.25c7.5.81,11.72-7.85,14.77-13.24,3.88-6.87,7.7-13.95,13.6-19.33a27,27,0,0,1,10.4-6.08l-1.9-1.44,1.75,13.58c.53,4.15,1.59,8.75.09,12.8-2.74,7.4-11.42,10.57-16.89,15.53a1.52,1.52,0,0,0,1.06,2.56c3.24-.17,6.9-.46,9.87,1.11,2.28,1.21,4.42,3.94,3.39,6.64s-4.49,4.59-7,5.74a22.71,22.71,0,0,1-9.82,2c-1.42,0-2.12,2.13-.75,2.8a31.81,31.81,0,0,1,6,3.73l.68.56c.26.37.39.27.38-.29,0,0-1.14.51-1.21.53-1,.36-2,.71-3.08,1-3.8,1.13-8.32,2-11.92-.19s-5.28-7.11-6.34-11.07a41.77,41.77,0,0,1-1.16-14.77,1.52,1.52,0,0,0-2.26-1.3L94,57.8c-1.68.94-.17,3.53,1.52,2.59l1.19-.66-2.26-1.29a44.37,44.37,0,0,0,.93,14.21c1,4.09,2.38,8.43,5.11,11.69a12.71,12.71,0,0,0,10.67,4.25,27.72,27.72,0,0,0,6.12-1.12,19.88,19.88,0,0,0,5.45-2c4.82-3.2-4.83-8-7.12-9.15l-.76,2.79a26,26,0,0,0,12.09-2.78c3.17-1.6,7-4.15,7.83-7.87.77-3.53-1.34-6.95-4.2-8.86-3.53-2.36-8.11-2.19-12.16-2l1.06,2.56c5.94-5.38,14.41-8.52,17.52-16.49,1.63-4.17.84-8.68.29-13l-1.88-14.55a1.53,1.53,0,0,0-1.9-1.45c-6.87,2-12.45,6.82-16.79,12.4-4.91,6.33-8.1,13.67-12.5,20.33-2,3-4.78,6.23-8.68,5.81-1.92-.21-1.9,2.79,0,3Z"/><path class="cls-1" d="M21.09,46.09c-.71,5.16-3.75,9.68-7.09,13.68S6.92,67.48,4.34,72,.49,82.17,2.5,87a2.93,2.93,0,0,0,1,1.44c.9.58,2.09.18,3-.31a17.84,17.84,0,0,0,9.14-11.94,70.7,70.7,0,0,0,.78-7.7c.77-7.46,3.89-14.45,7-21.29"/><path d="M19.65,45.69c-1,6.89-5.87,12.08-10.27,17.13S.79,73.33.1,80.2C-.18,82.92.05,86.82,2,89c2.35,2.66,6,.27,8.18-1.4a19.39,19.39,0,0,0,5.39-6.51,24.47,24.47,0,0,0,2.25-9.72A48,48,0,0,1,20,59.5a118.5,118.5,0,0,1,4.74-11.57c.78-1.75-1.8-3.27-2.6-1.52-2.69,6-5.43,12-6.66,18.48-.64,3.37-.52,6.8-1.11,10.16a16.45,16.45,0,0,1-3.23,7.32A16.94,16.94,0,0,1,8.6,85,9.51,9.51,0,0,1,5,87.12c-.88.17-1-.38-1.32-1.12a11.43,11.43,0,0,1-.56-2.16,13.63,13.63,0,0,1,0-4.46C4.27,73.26,8.4,68.48,12.36,64c4.46-5.09,9.13-10.55,10.18-17.47.29-1.89-2.6-2.7-2.89-.8Z"/><path class="cls-3" d="M79.15,52.87A69.5,69.5,0,0,1,72.1,27.23c-.48-8.14,1.85-16.7,7.56-22.52A46.5,46.5,0,0,1,86,24.17c1.85-8.35,4.1-17.35,10.76-22.71a26.42,26.42,0,0,1-3.49,18.65,5.07,5.07,0,0,1,3.34-5,77.14,77.14,0,0,1,.21,7.75,27.5,27.5,0,0,1,4.67-3.57,23.4,23.4,0,0,1-2.7,18C95.6,42.73,88.67,49,83.15,51.87Z"/><path d="M80.45,52.12a63.76,63.76,0,0,1-6.78-24c-.63-8,1.34-16.47,7-22.39l-2.35-.3a45.43,45.43,0,0,1,6.12,18.7c.15,1.57,2.55,2.17,2.94.4,1.77-7.94,3.79-16.64,10.38-22L95.3,1.85A25.1,25.1,0,0,1,92,19.35l2.8.76A3.62,3.62,0,0,1,97,16.59L95.1,15.14c.19,2.58.26,5.17.21,7.75A1.51,1.51,0,0,0,97.87,24a27.26,27.26,0,0,1,4.37-3.33l-2.21-.9c2.25,8.16-1.06,16.22-6.64,22.17a45.43,45.43,0,0,1-9.18,7.64,8.78,8.78,0,0,1-2.86,1.25l-2.6.65c-1.87.46-1.08,3.36.8,2.89a31.26,31.26,0,0,0,4.18-1.08,20.55,20.55,0,0,0,4-2.47q2.11-1.52,4.08-3.22c5.1-4.44,9.48-9.86,11.15-16.54a23.67,23.67,0,0,0-.06-12.08,1.52,1.52,0,0,0-2.21-.9,31.59,31.59,0,0,0-5,3.8l2.56,1.06c0-2.58,0-5.17-.21-7.75-.07-.87-.92-1.82-1.9-1.44a6.66,6.66,0,0,0-4.44,6.41,1.51,1.51,0,0,0,2.79.76A28.3,28.3,0,0,0,98.2,1.06C98-.16,96.47-.25,95.69.4c-7,5.72-9.27,15-11.15,23.37l2.95.4A49,49,0,0,0,81,4a1.52,1.52,0,0,0-2.36-.3,30.09,30.09,0,0,0-7.92,18.43c-.61,6.86.81,14,2.79,20.54a63.82,63.82,0,0,0,4.39,11C78.75,55.34,81.34,53.83,80.45,52.12Z"/><path class="cls-3" d="M93.89,59.52A17,17,0,0,1,87.72,63c-17,6.22-37.76.2-48.81-14.18l-.48-1.54c-1.06-3.23-2.78-6.22-3.65-9.51-1.92-7.15.79-15.45,6.86-19.68S56.81,14.43,62,19.69c7.37,7.44,5.59,20.8,13,28.15a15.11,15.11,0,0,0,14.64,3.62,18.71,18.71,0,0,1,3.72-1,3.78,3.78,0,0,1,3.41,1.35C99.15,54.87,95.59,57.85,93.89,59.52Z"/><path d="M92.83,58.46c-2.34,2.19-5.53,3.28-8.57,4.11a39.6,39.6,0,0,1-8.38,1.35,43.59,43.59,0,0,1-16.79-2.46A42.18,42.18,0,0,1,44.8,53a41,41,0,0,1-3-3c-.39-.44-.78-.9-1.15-1.36-.14-.16-.63-1-.3-.22-.09-.23-.15-.49-.22-.73-.94-2.94-2.35-5.68-3.37-8.59a17.71,17.71,0,0,1,2.18-16.21A14.87,14.87,0,0,1,53.47,17C66,19.13,65.78,33.5,69.89,42.77c2.68,6,7.91,10.28,14.61,10.75A16,16,0,0,0,89.74,53c1.53-.42,3.42-1.56,5-1,3.53,1.31-.66,5.18-1.93,6.41s.73,3.46,2.12,2.12c1.89-1.83,4.3-4,4.14-6.91-.2-3.59-3.71-5.26-6.91-4.56-1.78.39-3.4,1.2-5.24,1.38a14,14,0,0,1-4.82-.37,13.41,13.41,0,0,1-7.6-5.22C71.05,40,70.3,33.79,68.45,28.21c-1.93-5.84-5.21-11-11.19-13.28A18.13,18.13,0,0,0,40,17.49a20,20,0,0,0-7.32,16.44c.15,3.65,1.48,6.92,2.9,10.23.59,1.39,1.14,2.78,1.6,4.22a8.49,8.49,0,0,0,1.9,3.07A43.39,43.39,0,0,0,53.8,62.52c11.31,5.27,25.11,6.23,36.63,1a16.39,16.39,0,0,0,4.52-3C96.36,59.25,94.23,57.14,92.83,58.46Z"/><path d="M55.42,62.94,55,70.42c-.11,2-.15,4.14-1.23,5.88a6.74,6.74,0,0,1-4,2.62,17.23,17.23,0,0,1-2.59.53c-.43.06-.86.1-1.3.14a4.92,4.92,0,0,0-.86,0c-.36.14.21-.2,0,.29.64-1.82-2.25-2.61-2.89-.79a2.69,2.69,0,0,0,1.9,3.36,10,10,0,0,0,4-.14,13,13,0,0,0,6.63-2.67c2.11-1.79,2.83-4.44,3.09-7.1.31-3.19.38-6.42.56-9.62.11-1.93-2.89-1.92-3,0Z"/><path d="M53.68,77.49c-.26,2.73,1,5.27,2.12,7.66,1,2,2.18,4.33,1.61,6.55-.47,1.87,2.42,2.67,2.9.79.71-2.79-.29-5.43-1.48-7.94-1.07-2.24-2.39-4.53-2.15-7.06a1.5,1.5,0,0,0-3,0Z"/><path d="M52.37,78.48a18.4,18.4,0,0,1-1.88,9.4,11.39,11.39,0,0,1-2.63,3.72c-.73.59-1.86.87-2.3,0-.9-1.71-3.49-.2-2.59,1.51A4.14,4.14,0,0,0,47.83,95c2.05-.62,3.43-2.47,4.5-4.22a21.23,21.23,0,0,0,3-12.26c-.12-1.92-3.12-1.93-3,0Z"/><path d="M73.19,66.55a38.57,38.57,0,0,1-3.88,23.28c-.78,1.48-2.82,6.13-5.1,4.48-1.56-1.14-3.06,1.46-1.51,2.59,2.82,2,5.93-.25,7.51-2.65a38.75,38.75,0,0,0,4.24-8.91,41.86,41.86,0,0,0,1.63-19.59c-.29-1.9-3.18-1.1-2.89.8Z"/><path d="M72.71,82.28A37.87,37.87,0,0,0,76,97.14c.59,1.35,2.93.69,2.79-.76L78.61,95a1.54,1.54,0,0,0-1.5-1.5,1.51,1.51,0,0,0-1.5,1.5l.14,1.41,2.8-.75a34.1,34.1,0,0,1-2.84-13.35c0-1.93-3-1.93-3,0Z"/><path d="M44.13,32.71a1.5,1.5,0,0,0,0-3,1.5,1.5,0,0,0,0,3Z"/><path d="M73.21,80.8c.39,2.66,2.41,5.2,4.45,6.85a15,15,0,0,0,7.51,3.2,1.52,1.52,0,0,0,1.5-1.5,1.54,1.54,0,0,0-1.5-1.5c.25,0-.23,0-.23,0l-.39-.07q-.42-.09-.84-.21T83,87.28l-.44-.16-.15-.06c.09,0,.09,0,0,0a12.75,12.75,0,0,1-1.47-.76c-.43-.27-1-.67-1.24-.86a16.17,16.17,0,0,1-1.21-1.13,9.16,9.16,0,0,1-.91-1.1A7.25,7.25,0,0,1,76.1,80a1.51,1.51,0,0,0-1.84-1,1.53,1.53,0,0,0-1.05,1.85Z"/></g></g></svg>