<svg xmlns="http://www.w3.org/2000/svg" viewBox="0 0 351.76 85.99"><defs><style>.cls-1{fill:#f4cd0b;}.cls-2{fill:#f406ee;}.cls-3{fill:#0840f4;}.cls-4{fill:#83f906;}.cls-5{fill:#f97906;}</style></defs><g id="Layer_2" data-name="Layer 2"><g id="Layer_1-2" data-name="Layer 1"><path class="cls-1" d="M45.52,59.11c-.41-7.44-9.3-22.45-18.84-17.83,4.38-2.12,8.61-4.75,11.71-8.49s4.94-8.74,4-13.51c-.75-4.06-3.34-7.52-6.08-10.6A25.13,25.13,0,0,0,31.23,4a17.54,17.54,0,0,0-12.81-2C9.53,3.9,4.1,9.49,2.24,18.51,1,24.64,1.57,31,2.17,37.21L3.82,54.39c.74,7.69,1.5,15.44,3.73,22.85C11,88.52,25.79,84.38,33.66,80,41,75.91,46,67.54,45.52,59.11ZM15.46,31.84a3.08,3.08,0,0,1-1.83.64c-1.45-.13-2.05-1.95-2-3.4.24-4.08,6-8.72,7.35-8.76a2.42,2.42,0,0,1,2.5,2.05C21.63,24.36,17.77,30.34,15.46,31.84ZM27.31,64.35a8.3,8.3,0,0,1-6.91,2.59,1.83,1.83,0,0,1-1.1-.41,1.86,1.86,0,0,1-.38-1.46c.26-4.09,4.71-8.71,6.8-9.75s3.34.67,3.59,1.93A8.29,8.29,0,0,1,27.31,64.35Z"/><path d="M47,59.11c-.35-5.35-3.16-10.73-6.63-14.72-3.68-4.24-9-6.94-14.46-4.41l1.51,2.59c6.7-3.26,13.12-7.89,15.72-15.17a16,16,0,0,0,.14-10.69,28.61,28.61,0,0,0-6-9.25C34.7,4.59,31.81,2.13,28.07,1A20.77,20.77,0,0,0,17,.85,21,21,0,0,0,3.45,10.79C-.28,17.46-.31,25.47.28,32.89,1,41.71,1.89,50.53,2.82,59.34A124,124,0,0,0,4.66,71.91C5.33,75.16,6,78.82,8,81.53c3.08,4.07,8.33,4.89,13.12,4.28a35.77,35.77,0,0,0,14.54-5.27,25,25,0,0,0,11-16.41,22.8,22.8,0,0,0,.33-5c-.09-1.92-3.09-1.93-3,0A21.49,21.49,0,0,1,37.36,75.4c-3.51,3.4-8.27,5.5-13,6.73-3.88,1-8.8,1.67-12.31-.77a9.25,9.25,0,0,1-3.36-5.43A82.54,82.54,0,0,1,6.47,64.82C5.37,57,4.81,49,4.05,41.14c-.74-7.66-2-15.7-.13-23.29C5.16,12.79,8,8.32,12.6,5.73,17.81,2.82,24.82,2,30.12,5.12c3.32,2,6.17,5.38,8.28,8.56A14,14,0,0,1,41,24.07c-1.45,7.83-8.34,12.65-15,15.91-1.75.85-.22,3.4,1.51,2.59,4.36-2,8.54,1.13,11.22,4.4S43.74,54.78,44,59.11C44.15,61,47.15,61,47,59.11Z"/><path d="M14.7,30.55a3,3,0,0,1-.7.38.6.6,0,0,1-.37.05c.32,0-.16,0,0,0s-.17-.16,0,0c0,0-.27-.32-.16-.17a1.65,1.65,0,0,1-.23-.5l-.09-.38c-.12-.47,0,.13,0-.15a7.48,7.48,0,0,1,0-.82c0-.07.05-.29,0,0,0-.13.05-.27.08-.4s.15-.5.23-.74c0-.06.15-.34,0-.11.06-.14.12-.27.19-.4s.24-.45.37-.67c.26-.42.66-1,.84-1.21a17.63,17.63,0,0,1,2.22-2.27l.52-.43c-.24.19.23-.16.3-.21a7.56,7.56,0,0,1,1-.6l.19-.09c.14-.11-.36.09-.12.05l.15-.05c.25,0-.18-.08-.21,0,0-.09.48.05.53.07a1.07,1.07,0,0,1,.43.34c-.13-.17,0,.09.07.14.09.21,0-.28,0,.11,0-.29,0,.1,0,.18,0-.47,0-.05,0,.12a6.17,6.17,0,0,1-.19.61l-.13.33c0-.05.12-.27,0,0s-.18.41-.28.61c-.24.48-.5,1-.77,1.41s-.66,1.06-1,1.58c-.18.25-.36.51-.55.76l-.16.21-.25.32a16.48,16.48,0,0,1-1.12,1.24c-.17.17-.35.33-.53.49l-.17.14c.32-.26,0,0-.1.07a1.53,1.53,0,0,0-.54,2.05,1.51,1.51,0,0,0,2.05.54,17.77,17.77,0,0,0,4.93-5.82c1.25-2.1,2.84-4.93.95-7.14A3.77,3.77,0,0,0,18.16,19a10.23,10.23,0,0,0-2.82,1.77,14.66,14.66,0,0,0-4.84,6.51,6.25,6.25,0,0,0,.34,4.89,3.5,3.5,0,0,0,2.1,1.71,4.16,4.16,0,0,0,3.27-.73,1.53,1.53,0,0,0,.54-2.05A1.5,1.5,0,0,0,14.7,30.55Z"/><path d="M26.25,63.29a6.86,6.86,0,0,1-5.67,2.17c-.33,0-.2,0-.12,0l-.17,0a.12.12,0,0,1,.05,0c.13,0,0,.46.07,0,0-.12,0-.23,0-.35,0,0,0-.45,0-.25s0-.28,0-.25c0-.15.06-.3.1-.45a9.11,9.11,0,0,1,1.15-2.6,16.78,16.78,0,0,1,3.67-4.21c.06-.05.29-.22,0,0l.19-.14.4-.27a2.05,2.05,0,0,1,.94-.39c-.25,0,.07,0,.13,0h.07q-.26,0,0,0c0-.07-.16-.11,0,0,0,0,.33.24.17.1s.34.45.14.15c.06.09.33.61.2.3.82,2,0,4.64-1.44,6.2a1.54,1.54,0,0,0,0,2.12,1.51,1.51,0,0,0,2.12,0,9.77,9.77,0,0,0,2.35-8.72,4.33,4.33,0,0,0-2.27-2.85,4.18,4.18,0,0,0-4.06.52,18,18,0,0,0-5.06,5.36,12.92,12.92,0,0,0-1.63,3.61c-.41,1.54-.58,3.62,1,4.6s3.65.63,5.2.2a9.83,9.83,0,0,0,4.5-2.72C29.69,64,27.58,61.88,26.25,63.29Z"/><path class="cls-2" d="M55.79,59.54a35.47,35.47,0,0,1-1.27-5.39c-.47-3-.51-6.22,1-8.84s5-4.25,7.71-2.83a6.31,6.31,0,0,1,2.92,5.66,18.51,18.51,0,0,1-1.62,6.46c1.45-2,3.51-4.21,5.9-3.64s3.29,3.5,5.32,4.84c1.31.87,2.95,1,4.47,1.38a8.59,8.59,0,0,1,4.29,2.43,5.48,5.48,0,0,1,1.42,4.61c-.52,2.58-3.11,4.19-5.61,5a9.89,9.89,0,0,1-5.88.44,4.75,4.75,0,0,1-3.54-4.31,12.36,12.36,0,0,1-11.66,6.27A6.25,6.25,0,0,1,55.18,70a7.71,7.71,0,0,1-1.66-4.35c-.37-2.5-.45-5.32,1.18-7.24Z"/><path d="M57.23,59.14C55.87,54.76,53.79,46.63,59.1,44a3.55,3.55,0,0,1,5.17,2c1,2.74-.2,5.72-1.18,8.29-.66,1.71,1.81,2.4,2.74,1.15s2.27-3,3.91-3c1.42.05,2.35,1.7,3.14,2.68a8.23,8.23,0,0,0,3.88,2.85c1.74.58,3.59.64,5.21,1.58S84.8,62,84.49,63.82c-.28,1.67-1.81,2.75-3.22,3.44a10.23,10.23,0,0,1-5.57,1.17c-1.59-.21-3.24-1.31-3.29-3.05a1.51,1.51,0,0,0-2.79-.76,10.89,10.89,0,0,1-10.55,5.51,4.55,4.55,0,0,1-2.83-1.21,6,6,0,0,1-1.18-3.1c-.35-2-.65-4.66.7-6.37H53.63l1.1,1.15c1.33,1.4,3.45-.72,2.12-2.12l-1.09-1.15a1.51,1.51,0,0,0-2.13,0c-2,2.55-2,5.61-1.56,8.7s1.85,5.82,5.11,6.77c5.74,1.66,12.18-1.62,15-6.66l-2.8-.76c.12,4.26,4.35,6.45,8.2,6,3.6-.41,8-2.19,9.45-5.78,1.57-3.85-1.11-7.72-4.61-9.25-1.82-.79-4.09-.72-5.77-1.76-1.36-.85-2.11-2.43-3.23-3.53a5.2,5.2,0,0,0-5.3-1.46c-2.13.7-3.62,2.49-4.91,4.23L66,55c1.32-3.43,2.49-7.19.83-10.73a6.42,6.42,0,0,0-7.94-3.45c-8,2.69-6.47,12.88-4.53,19.12C54.91,61.77,57.81,61,57.23,59.14Z"/><path class="cls-3" d="M94.09,40.7a8.85,8.85,0,0,0-4.76,7c3.11.71,6.32-.33,9.42-1.12A59.62,59.62,0,0,1,109,44.91a4.67,4.67,0,0,1,2.29.24,1.66,1.66,0,0,1,1,1.86,2.46,2.46,0,0,1-1.25,1.25A169.53,169.53,0,0,0,93.82,60.11C92,61.55,90,63.57,90.49,65.85s3.45,3.25,5.87,3.6a37,37,0,0,0,11.26.23c4.18-.7,8.12-2.57,12.32-3.05a31.91,31.91,0,0,0,5.18-.66,5.1,5.1,0,0,0,3.7-3.34,1.91,1.91,0,0,0-.19-1.54,2.45,2.45,0,0,0-1.46-.79c-6.31-1.63-13-.4-19.31,1.11-.67.16-1.53.23-1.86-.37-.44-.8.65-1.56,1.52-1.85a53.92,53.92,0,0,0,15.91-8.64A15.11,15.11,0,0,0,128.28,45c1-2.28.85-5.21-.92-7-1.42-1.39-3.54-1.77-5.53-1.88-5.14-.3-10.26.68-15.31,1.66L93.75,40.26"/><path d="M93.33,39.4a10.56,10.56,0,0,0-5.5,8.31,1.49,1.49,0,0,0,1.1,1.44c3.51.72,6.83-.26,10.22-1.12a40.15,40.15,0,0,1,10.65-1.65c.26,0,.81,0,1,.21s.49-.75-.17.18a4.11,4.11,0,0,1-1.11.67c-.39.25-.79.49-1.19.73-1.51.94-3,1.9-4.5,2.89-2.91,1.93-5.77,3.95-8.55,6-2.31,1.75-5.34,3.63-6.18,6.6-.77,2.72.87,5.12,3.31,6.2,2.64,1.18,5.8,1.37,8.65,1.54a31.58,31.58,0,0,0,10.5-1.15A51.76,51.76,0,0,1,121.68,68c2.89-.22,6-.68,7.77-3.21a4.38,4.38,0,0,0,.8-3.72c-.5-1.61-2.11-2.08-3.58-2.4a31.55,31.55,0,0,0-10.53-.31c-1.69.2-3.36.48-5,.82-.76.16-1.53.32-2.29.5-.45.1-.91.24-1.36.31A1.28,1.28,0,0,1,107,60c.06.87.31,1.11.74.72a9.28,9.28,0,0,0,1.86-.69c.74-.28,1.47-.58,2.19-.88,1.53-.65,3-1.35,4.48-2.13a54.57,54.57,0,0,0,8.27-5.43c2.32-1.84,4.56-4,5.49-6.91a7.51,7.51,0,0,0-2.13-8.23c-2.8-2.19-7-2-10.35-1.82a94.9,94.9,0,0,0-11.85,1.78l-12.3,2.38c-1.89.36-1.09,3.26.8,2.89,6.79-1.31,13.61-2.94,20.47-3.78,3-.37,6.43-.73,9.43,0,2.77.69,3.88,3.12,3.09,5.79s-3.33,4.69-5.5,6.31a52.78,52.78,0,0,1-7.7,4.81c-1.3.67-2.62,1.28-4,1.83a21.94,21.94,0,0,0-4.21,1.74c-2.46,1.71-1.08,4.9,1.8,4.55,1.46-.18,2.91-.63,4.35-.93,1.7-.34,3.42-.64,5.15-.82a25.65,25.65,0,0,1,9.72.53c.41.12.55,0,.59.48,0,.23-.2.55-.32.74a3.37,3.37,0,0,1-1.23,1.08,10.84,10.84,0,0,1-4.57,1,43.62,43.62,0,0,0-9.18,2,30.71,30.71,0,0,1-9.6,1.49c-2.78-.06-6.13-.13-8.72-1.27-.9-.39-1.82-1-1.85-2.1,0-1.32,1.21-2.45,2.11-3.24a83.1,83.1,0,0,1,7.68-5.76Q106.26,52.93,111,50c1.28-.78,2.82-1.62,2.84-3.34a3.36,3.36,0,0,0-2.54-3.12c-1.62-.46-3.51-.08-5.15.12-1.85.23-3.7.52-5.53.91-3.53.75-7.28,2.4-10.93,1.66l1.1,1.45a7.43,7.43,0,0,1,4-5.71c1.71-.91.19-3.5-1.52-2.6Z"/><path class="cls-4" d="M134.25,39.73a10.88,10.88,0,0,0-3.81,2.84A2.72,2.72,0,0,0,129.7,44a2.11,2.11,0,0,0,1.5,2,6.32,6.32,0,0,0,2.67.14,114.23,114.23,0,0,1,21.8.27,5.47,5.47,0,0,1,2.68.78,2,2,0,0,1,.71,2.47,2.83,2.83,0,0,1-1.06.87c-8.88,5-18.54,8.53-27.36,13.65-.9.52-1.92,1.64-1.24,2.43a1.8,1.8,0,0,0,.82.46,81.4,81.4,0,0,0,28,4.48c1.82,0,4-.31,4.81-1.91s0-3.38-1.35-4.37a10.5,10.5,0,0,0-4.66-1.6l-6.7-1.17c1.14-1,2.75-1.11,4.24-1.31a19.63,19.63,0,0,0,11.58-5.46c3-3.15,4.51-7.87,3.17-12A4.75,4.75,0,0,0,167.39,41a6,6,0,0,0-2.42-.65Q151.11,38.58,137.14,38c-1.27,0-3,.29-3,1.56"/><path d="M133.49,38.43c-2.86,1.35-8.07,5.91-3.51,8.63,2,1.17,4.65.49,6.8.37,2.42-.14,4.84-.21,7.27-.19s5,.11,7.51.29c.84.06,6.14,0,6.18,1.23,0,.45-1.67,1.12-2.12,1.36-1.09.59-2.19,1.16-3.29,1.71-2.07,1-4.16,2-6.26,3-4.27,2-8.57,3.93-12.74,6.13-1.73.92-4.12,1.81-5.2,3.56s0,3.34,1.69,4a79.11,79.11,0,0,0,27.91,4.54c1.91,0,4-.17,5.54-1.44A4.48,4.48,0,0,0,164.2,66c-1-2.06-3.22-3.06-5.38-3.54-2.68-.59-5.42-1-8.13-1.44l.36,2.74c1.73-1.33,4.36-1.13,6.41-1.64a21.9,21.9,0,0,0,6.36-2.64,15.56,15.56,0,0,0,7.32-10.89,11.59,11.59,0,0,0-.83-6.37c-1.16-2.52-3.25-3.16-5.83-3.48q-8.39-1-16.82-1.66-4.77-.35-9.54-.55c-2-.09-5.1.05-5.45,2.62A1.57,1.57,0,0,0,133.72,41,1.52,1.52,0,0,0,135.57,40c0-.34-.1-.19.28-.32a3.05,3.05,0,0,1,1-.15c1.15,0,2.33.1,3.48.15q3.56.18,7.09.44,7.09.51,14.15,1.32c1.86.21,4.88,0,5.91,1.83a8.43,8.43,0,0,1,.66,5.33,12.76,12.76,0,0,1-6.5,8.74,20.16,20.16,0,0,1-5.94,2.16c-2.09.42-4.39.36-6.15,1.72-.89.69-1.07,2.49.35,2.74L156.11,65c1.68.29,4,.48,5.12,1.91,2.88,3.57-4.78,3.13-6.3,3.1a78.84,78.84,0,0,1-12.36-1.27c-2-.36-4-.8-5.92-1.32-1-.25-2-.53-2.93-.82l-1.33-.41c-.35-.12-1.2-.59-1.55-.52l-.22-.08c0,.44,0,.55.2.33.05,0,.26-.26.31-.3A7.76,7.76,0,0,1,132.2,65c.94-.53,1.89-1,2.85-1.55q2.67-1.39,5.39-2.68c3.69-1.77,7.43-3.44,11.12-5.22,1.81-.88,3.6-1.78,5.37-2.73,1.45-.78,3.41-1.54,3.78-3.34.89-4.33-4.92-4.6-7.69-4.84a115.84,115.84,0,0,0-14.31-.31q-1.82.08-3.63.21a8.63,8.63,0,0,1-3.24.07c-1.22-.44-.09-1.3.49-1.84A10.16,10.16,0,0,1,135,41c1.74-.82.22-3.41-1.52-2.59Z"/><path class="cls-5" d="M186.66,22.48a5.93,5.93,0,0,0,2.93,4,23.35,23.35,0,0,0,4.71,1.94,3,3,0,0,1,1.25.68,2.16,2.16,0,0,1,.11,2.48,7.75,7.75,0,0,1-1.82,1.93,22.49,22.49,0,0,0-7.15,12.21,11,11,0,0,0,.51,7.14c1.74,3.47,5.94,4.93,9.8,5.29a29.5,29.5,0,0,0,15-2.57,9.59,9.59,0,0,0,4.3-3.32c1.43-2.29,1.06-5.24.5-7.88a2.8,2.8,0,0,0-.8-1.67,2.76,2.76,0,0,0-1.44-.43,14.56,14.56,0,0,0-4.84,0,5,5,0,0,0-3.67,2.88c-1,2.77,1.43,5.45,2.94,8,2.27,3.85,2.79,10.15,2.45,14.54a14.23,14.23,0,0,1-3.79,9c-2.79,2.77-6.84,3.84-10.75,4.25a42.61,42.61,0,0,1-21-3.12,4.66,4.66,0,0,1-1.95-1.3,3.2,3.2,0,0,1,.22-3.71,7.73,7.73,0,0,1,3.22-2.27c4.37-1.93,9.44-2.73,13.92-1.09-4.39-1.57-8.86-3.24-12.46-6.21s-6.23-7.52-5.69-12.15a21.34,21.34,0,0,1,2.44-6.8l10.24-20.77Z"/><path d="M185.22,22.88c.56,3.05,3.17,4.9,5.87,6,.73.29,1.47.54,2.21.79.57.19,1.23.21,1.17.9s-.73,1-1.11,1.38c-.69.62-1.38,1.22-2,1.89-4,4.22-7.17,10.65-6.39,16.6s6.56,8.69,12.05,9.22a30.53,30.53,0,0,0,10-.75A22.41,22.41,0,0,0,215.82,55a8.76,8.76,0,0,0,3-7.81,15.51,15.51,0,0,0-.77-4.17c-.6-1.58-1.84-2.1-3.42-2.28-3-.36-6.37-.41-8.64,1.89-2.11,2.13-1.83,5-.55,7.5.68,1.3,1.58,2.47,2.32,3.74a14.81,14.81,0,0,1,1.51,3.9,30.3,30.3,0,0,1,.82,8.54,14.67,14.67,0,0,1-2.39,8.09c-1.79,2.52-4.68,3.82-7.61,4.51-7.34,1.71-15.48.65-22.44-2-1.37-.53-3.37-1.19-2.31-3,.86-1.47,3-2.16,4.56-2.68A16.81,16.81,0,0,1,191,70.92c1.83.63,2.61-2.25.8-2.9-6.44-2.3-14.17-5.27-16.55-12.39-1.23-3.7,0-7,1.63-10.36q2.82-5.73,5.66-11.47l3.16-6.41a27.07,27.07,0,0,1,2.3-4.15c1.14-1.56-1.47-3.06-2.59-1.51a25.13,25.13,0,0,0-2.19,3.93l-3.05,6.18C178.07,36,176,40.18,174,44.37c-1.81,3.73-3,7.58-1.75,11.69A18,18,0,0,0,178.66,65c3.65,2.79,8,4.41,12.3,6l.8-2.9a18.62,18.62,0,0,0-9.74-.5c-2.8.55-6.25,1.59-8.34,3.65s-2.38,5.44.12,7.22a17.45,17.45,0,0,0,4.31,1.88,43.93,43.93,0,0,0,5,1.41c6.16,1.33,13.14,1.64,19.22-.27a14.79,14.79,0,0,0,7.17-4.53,16.15,16.15,0,0,0,3.36-8.41c.59-5.12.1-11.22-2.42-15.8-1.06-1.92-4.21-5-2.81-7.39a4.27,4.27,0,0,1,3.39-1.7,13.6,13.6,0,0,1,2.21.05c.85.07,1.78-.1,2,.83.77,2.71,1,6.2-1.32,8.2s-5.73,2.92-8.63,3.53a25.63,25.63,0,0,1-9.56.29c-2.48-.43-5.25-1.35-6.78-3.49-2.06-2.87-1.14-6.9,0-10a21.11,21.11,0,0,1,5.58-8.21c1.11-1,2.35-2,2.76-3.47a3.42,3.42,0,0,0-1.63-4c-2.71-1.49-6.93-1.55-7.62-5.3C187.76,20.19,184.87,21,185.22,22.88Z"/><path class="cls-2" d="M283.79,62.8c1.08-7.37-4.64-23.85-14.91-21.23,4.71-1.2,9.38-2.94,13.16-6s6.59-7.58,6.67-12.44c.06-4.12-1.78-8-3.86-11.59A24.73,24.73,0,0,0,280.75,6a17.57,17.57,0,0,0-12.16-4.5c-9.08,0-15.51,4.43-19.13,12.9-2.45,5.76-3.14,12.09-3.79,18.32l-1.8,17.15c-.81,7.69-1.62,15.44-.9,23.14,1.08,11.73,16.45,10.63,25,7.92C276.05,78.37,282.57,71.16,283.79,62.8Zm-24-32.71a3.07,3.07,0,0,1-1.92.26c-1.39-.41-1.62-2.32-1.25-3.72,1-3.95,7.58-7.36,8.94-7.12a2.41,2.41,0,0,1,2.05,2.5C267.3,24,262.33,29.08,259.76,30.09Zm5.14,34.22a8.3,8.3,0,0,1-7.29,1.16,1.46,1.46,0,0,1-1.08-2.13c1.07-4,6.35-7.59,8.61-8.2s3.14,1.32,3.13,2.61A8.27,8.27,0,0,1,264.9,64.31Z"/><path d="M285.24,63.2c.72-5.32-.89-11.14-3.49-15.76-2.73-4.85-7.41-8.72-13.27-7.32l.8,2.9c7.3-1.89,14.77-5.22,18.68-12A16.07,16.07,0,0,0,290,20.57c-.58-4-2.55-7.7-4.64-11.07a19,19,0,0,0-8.18-7.68A21.49,21.49,0,0,0,266.81.06a20.77,20.77,0,0,0-15.32,7.88c-4.71,6.07-6.08,13.9-7,21.35-1,8.89-2,17.81-2.79,26.72a105.71,105.71,0,0,0-.51,13.55c.12,3,.25,6.12,1.87,8.74,2.61,4.21,7.68,5.65,12.36,5.87a35.4,35.4,0,0,0,14.79-2.49A25.16,25.16,0,0,0,284,67.88a21.07,21.07,0,0,0,1.28-4.68c.29-1.89-2.6-2.7-2.9-.8A21.47,21.47,0,0,1,272.78,77a28.73,28.73,0,0,1-13.46,4.11c-3.9.3-8.56.15-11.81-2.33a8,8,0,0,1-2.94-5,50.84,50.84,0,0,1-.28-11.1c.36-8.21,1.46-16.39,2.31-24.56.79-7.51,1.15-15.37,4-22.46,2-5,5.44-9.4,10.53-11.34,5.54-2.1,12.48-1.88,17.36,1.71,3.21,2.35,5.34,6.3,7,9.84s2.35,7.36,1.08,11.12c-2.61,7.72-10.75,11.27-18,13.15-1.87.49-1.08,3.35.8,2.9,4.69-1.13,8.14,2.65,10.14,6.42s3.5,8.72,2.92,13a1.57,1.57,0,0,0,1.05,1.85A1.52,1.52,0,0,0,285.24,63.2Z"/><path d="M259.36,28.64a3.32,3.32,0,0,1-.94.28c-.26,0-.12,0-.31-.06.35.13-.13-.2.14.07-.07-.07-.23-.34-.08-.07,0-.05-.2-.41-.07-.09a2.65,2.65,0,0,1-.12-.37,2.56,2.56,0,0,1-.05-.27c0,.18,0,.17,0,0s0-.46,0-.69c0-.42-.08.26,0-.14,0-.13,0-.25.09-.38s.07-.22.11-.33c.12-.37-.15.26,0-.09s.27-.51.43-.76l.21-.31.12-.16.13-.16.26-.3a14.76,14.76,0,0,1,1.28-1.22l.32-.26c.35-.28-.23.17.13-.09l.55-.4c.47-.31.94-.61,1.43-.88s.82-.42,1.23-.62c.08,0,.26-.09-.08,0l.27-.11c.19-.07.38-.14.57-.19a3.72,3.72,0,0,0,.42-.1c0,.11-.46,0-.17,0a.66.66,0,0,0,.14,0l-.31,0,.3.07c.29.07.13,0,.06,0s.41.26.18.08c.06.05.38.45.22.21a1.75,1.75,0,0,1,.2.35c-.13-.31,0,.07,0,.12-.11-.42.05.07,0,.09s.12-.39,0-.1A1.66,1.66,0,0,0,266,22c0,.28.17-.32,0-.06l-.26.49a10.56,10.56,0,0,1-.74,1.1c-.24.33.19-.23-.07.09l-.25.3c-.17.21-.34.41-.52.61a25.6,25.6,0,0,1-2.69,2.62l-.31.26-.21.16h0c-.22.17-.45.33-.69.49a7.06,7.06,0,0,1-.65.4c-.12.07-.78.36-.31.17a1.56,1.56,0,0,0-1.05,1.85,1.52,1.52,0,0,0,1.85,1.05,17.8,17.8,0,0,0,6.09-4.78C267.86,25,270,22.5,268.6,20a3.82,3.82,0,0,0-3.89-1.92A9.65,9.65,0,0,0,262,19.13a15.12,15.12,0,0,0-6.07,5.3,6.47,6.47,0,0,0-.82,4.76,3.61,3.61,0,0,0,1.59,2.27,3.94,3.94,0,0,0,3.48.08,1.55,1.55,0,0,0,1-1.85A1.51,1.51,0,0,0,259.36,28.64Z"/><path d="M264.14,63a6.69,6.69,0,0,1-6.29.94c.12.06-.11-.05-.11-.07a1.86,1.86,0,0,0,.18.28c.07.09,0-.26,0-.09a2.09,2.09,0,0,1,.08-.34,4,4,0,0,1,.46-1.16,9.46,9.46,0,0,1,1.65-2.25A15.32,15.32,0,0,1,264.57,57l.47-.22c.21-.09-.34.11,0,0l.18-.07a4.44,4.44,0,0,1,.52-.15s.29,0,.09,0c.05,0,.49,0,.18,0,0,0,.41.12.2,0s.15.09.16.09.16.17,0,0l.17.17c-.23-.23.09.18.15.29-.16-.3.05.17.09.3s0,.44,0,0c0,.11,0,.21,0,.32s0,.24,0,.36,0,.43,0,.33a6.83,6.83,0,0,1-.53,1.93A7,7,0,0,1,264.14,63a1.54,1.54,0,0,0-.54,2,1.53,1.53,0,0,0,2.06.54,9.77,9.77,0,0,0,4.1-8.07,4.39,4.39,0,0,0-1.7-3.35,4,4,0,0,0-3.74-.36,17.25,17.25,0,0,0-6,4,14,14,0,0,0-2.46,3.21c-.7,1.31-1.41,3.15-.53,4.53,1,1.57,3.56,1.83,5.24,1.73a9.82,9.82,0,0,0,5.1-1.72,1.54,1.54,0,0,0,.53-2.06A1.51,1.51,0,0,0,264.14,63Z"/><path class="cls-4" d="M318.52,50.57a7,7,0,0,0-3.85-4.13c-3-1.39-5.75-.89-8.81-.13a17.75,17.75,0,0,0-8.12,4.53c-2.4,2.39-3.75,5.31-5.48,8.13s-3.25,6.18-3.17,9.67a8.31,8.31,0,0,0,.29,2.1A7.62,7.62,0,0,0,294,75.49a12,12,0,0,0,6.75.37,17.11,17.11,0,0,0,6.39-2.8,3.19,3.19,0,0,0,.93-.9A3.06,3.06,0,0,0,308,69.4a9.55,9.55,0,0,0-5.26-5.11,23.81,23.81,0,0,0-6.92-1.24l-1.61-.13a93.53,93.53,0,0,0,10.31-.51,21.85,21.85,0,0,0,8.67-3.09A16.09,16.09,0,0,0,317.6,55,5,5,0,0,0,318.52,50.57Zm-9.06,3.19a2.82,2.82,0,0,1-1.67,1.37,6.91,6.91,0,0,1-2.18.27,2.78,2.78,0,0,1-2.5-.9,2.2,2.2,0,0,1,.08-2.08,2.61,2.61,0,0,1,1.29-1.29,17.6,17.6,0,0,1,3.14-.52,2.13,2.13,0,0,1,1.51.43,1.71,1.71,0,0,1,.39.71A2.79,2.79,0,0,1,309.46,53.76Z"/><path d="M320,50.18a9.14,9.14,0,0,0-6.6-5.79c-3.19-.79-6.83,0-9.86,1.09a18.75,18.75,0,0,0-8,5.59,57.38,57.38,0,0,0-5.2,8.26c-3.06,5.44-4.61,13.42,1.94,17a13.29,13.29,0,0,0,9.74.77,18.25,18.25,0,0,0,4.41-1.8c1.26-.71,2.79-1.6,3.26-3.06,1-3.19-2.08-6.79-4.53-8.39-3.21-2.08-7.29-2.14-11-2.43v3c5.95-.23,11.88,0,17.42-2.53,4.22-1.93,9.72-6.5,8.39-11.71a1.5,1.5,0,0,0-2.89.79c.56,2.2-1.23,4.09-2.71,5.49a15.8,15.8,0,0,1-5.58,3.34c-4.73,1.68-9.69,1.43-14.63,1.62a1.5,1.5,0,0,0,0,3c4.63.37,10.77.59,12.53,5.89.41,1.22-.46,1.6-1.42,2.18a15.53,15.53,0,0,1-3.86,1.66,10.46,10.46,0,0,1-7.49-.33c-5.14-2.66-3.29-8.93-1-13,2.49-4.43,4.9-9.11,9.53-11.61a18.34,18.34,0,0,1,8.06-2.17c2.65,0,5.68,1.23,6.59,3.91C317.69,52.79,320.59,52,320,50.18Z"/><path d="M308.16,53a2.12,2.12,0,0,1-.11.21c-.05.07-.08.22,0,0l.05-.08-.12.14-.14.13c-.21.2.07-.07.07-.05l-.2.13-.17.09-.13.07.14-.06a2.72,2.72,0,0,1-.92.24c.33,0,.1,0,0,0l-.29,0a5.62,5.62,0,0,1-.58,0,7,7,0,0,1-.79,0c-.17,0-.19-.1.09,0a1.13,1.13,0,0,0-.18,0,3.31,3.31,0,0,1-.42-.12c-.24-.08.11,0,.12,0a.77.77,0,0,0-.18-.1c-.16,0,.26.26.07.06l-.12-.12c.09,0,.14.32.08.1s0,.12,0,.1-.06-.21-.07-.23,0-.07,0,.15v-.19c0-.13,0-.13,0,0v.1a1.42,1.42,0,0,1,0-.2c0-.07.05-.35.12-.38s-.15.28,0,.09l.12-.22a1.93,1.93,0,0,1,.13-.21l-.11.15.12-.15a1.85,1.85,0,0,0,.14-.14c.11-.11.13,0-.08,0,.07,0,.54-.28.2-.14s0,0,.08,0c.37-.09.75-.17,1.12-.24l.71-.13.15,0c.29,0-.33,0-.13,0l.35,0h.33a2.75,2.75,0,0,0,.48,0s-.38-.08-.11,0a1.38,1.38,0,0,0,.27.08s-.38-.1-.11,0c.11.07.11.07,0,0s-.11-.07,0,0c-.21-.2-.13-.13-.07-.05.18.24-.06-.24,0,0a1.66,1.66,0,0,1,.06.21,1.74,1.74,0,0,1,.05.22l0-.18a.78.78,0,0,1,0,.27c0,.05,0,.41,0,.18s0,0,0,.07-.17.46,0,.1a1.54,1.54,0,0,0,.54,2.05,1.52,1.52,0,0,0,2.05-.54,4.36,4.36,0,0,0,.19-3.27,3.18,3.18,0,0,0-1.12-1.57,3.25,3.25,0,0,0-1.62-.53,11.43,11.43,0,0,0-3.72.44,4.13,4.13,0,0,0-3,3.28,3.21,3.21,0,0,0,.92,3.07,4.46,4.46,0,0,0,2.7,1c2.07.13,4.64-.32,5.67-2.37A1.5,1.5,0,0,0,308.16,53Z"/><path class="cls-3" d="M350.11,49a7,7,0,0,0-3.86-4.13c-3-1.39-5.75-.9-8.8-.13a17.66,17.66,0,0,0-8.12,4.53c-2.41,2.38-3.76,5.31-5.49,8.13s-3.25,6.18-3.17,9.66a8.26,8.26,0,0,0,.3,2.1,7.56,7.56,0,0,0,4.6,4.75,12,12,0,0,0,6.76.37,16.82,16.82,0,0,0,6.38-2.79,3.14,3.14,0,0,0,.94-.91,3.07,3.07,0,0,0-.12-2.75,9.55,9.55,0,0,0-5.25-5.12,24.21,24.21,0,0,0-6.93-1.24l-1.61-.12a93.85,93.85,0,0,0,10.32-.52,21.89,21.89,0,0,0,8.67-3.08,16.52,16.52,0,0,0,4.46-4.32A5,5,0,0,0,350.11,49ZM341,52.22a2.85,2.85,0,0,1-1.66,1.36,6.7,6.7,0,0,1-2.18.28,2.8,2.8,0,0,1-2.51-.91,2.17,2.17,0,0,1,.09-2.08,2.61,2.61,0,0,1,1.28-1.28,18.29,18.29,0,0,1,3.15-.53,2.22,2.22,0,0,1,1.5.43,1.72,1.72,0,0,1,.4.71A2.81,2.81,0,0,1,341,52.22Z"/><path d="M351.55,48.63A9.09,9.09,0,0,0,345,42.85c-3.19-.79-6.84-.05-9.86,1.08a18.77,18.77,0,0,0-8,5.6,56.42,56.42,0,0,0-5.2,8.25c-3.06,5.44-4.61,13.42,1.93,17a13.37,13.37,0,0,0,9.75.78,19,19,0,0,0,4.41-1.8c1.26-.71,2.79-1.6,3.26-3.07,1-3.18-2.08-6.79-4.54-8.38-3.21-2.08-7.29-2.14-11-2.43v3c5.95-.23,11.88,0,17.43-2.54,4.21-1.92,9.72-6.49,8.38-11.71-.47-1.87-3.37-1.08-2.89.8.56,2.2-1.23,4.09-2.71,5.49a15.84,15.84,0,0,1-5.57,3.34c-4.74,1.68-9.7,1.43-14.64,1.62a1.5,1.5,0,0,0,0,3c4.63.36,10.78.59,12.54,5.89.4,1.22-.46,1.6-1.43,2.18A15.91,15.91,0,0,1,333,72.61c-2.41.66-5.2.85-7.48-.34-5.15-2.66-3.3-8.93-1-13,2.49-4.44,4.89-9.11,9.53-11.61a18,18,0,0,1,8.05-2.17c2.65,0,5.68,1.22,6.59,3.91C349.28,51.25,352.17,50.47,351.55,48.63Z"/><path d="M339.75,51.46l-.12.21c0,.07-.08.23,0,0l.06-.07-.13.14-.14.13c-.2.19.07-.07.08-.06l-.2.13-.17.1-.13.06.13,0a2.71,2.71,0,0,1-.92.23c.33,0,.11,0,0,0l-.3,0-.58,0c-.26,0-.52,0-.78,0s-.19-.11.08,0a1,1,0,0,0-.17,0l-.43-.11c-.23-.08.11,0,.13,0l-.19-.1c-.16,0,.26.26.07.06a.65.65,0,0,0-.11-.12c.08,0,.13.31.08.1s0,.11,0,.09a1.09,1.09,0,0,1-.06-.23c0-.11,0-.06,0,.16a.76.76,0,0,1,0-.15v0c0-.13,0-.13,0,0v.1a1.42,1.42,0,0,1,0-.2c0-.07.06-.36.12-.38s-.14.28,0,.08l.12-.21a1.27,1.27,0,0,1,.14-.21l-.12.15a.93.93,0,0,1,.13-.15l.14-.14c.1-.11.13,0-.08,0,.07,0,.53-.28.2-.14s0,0,.07,0l1.12-.25.71-.13.16,0-.14,0,.35,0h.34a1.59,1.59,0,0,0,.48,0s-.38-.07-.12,0a1.54,1.54,0,0,0,.27.07s-.37-.09-.1,0c.1.07.1.07,0,0s-.1-.08,0,0c-.2-.21-.13-.14-.06-.05s-.07-.25,0,0l.06.21a1.55,1.55,0,0,1,0,.21l0-.18a.82.82,0,0,1,0,.27c0,.06,0,.42,0,.18s0,0,0,.07-.17.46,0,.1A1.5,1.5,0,0,0,342.34,53a4.41,4.41,0,0,0,.18-3.27,3.2,3.2,0,0,0-1.12-1.58,3.28,3.28,0,0,0-1.62-.53,11.18,11.18,0,0,0-3.72.45,4.12,4.12,0,0,0-3,3.28,3.19,3.19,0,0,0,.92,3.06,4.41,4.41,0,0,0,2.69,1c2.08.13,4.64-.33,5.68-2.37a1.55,1.55,0,0,0-.54-2.06A1.52,1.52,0,0,0,339.75,51.46Z"/></g></g></svg>