<svg xmlns="http://www.w3.org/2000/svg" viewBox="0 0 115.59 127.61"><defs><style>.cls-1,.cls-6{fill:#e8efce;}.cls-2,.cls-7{fill:#111;}.cls-3,.cls-5{fill:#f4de14;}.cls-4{fill:#1b1a1e;}.cls-4,.cls-5,.cls-6,.cls-7{stroke:#000;stroke-miterlimit:10;}</style></defs><g id="Layer_2" data-name="Layer 2"><g id="Layer_1-2" data-name="Layer 1"><path class="cls-1" d="M47.06,67.3c11.61-12.51,15-37.54,15.8-49.38.25-3.67.4-7.59-1.49-10.75-.87-1.44-2.47-2.74-4.1-2.33a5,5,0,0,0-2.48,2A83.21,83.21,0,0,0,36.88,61.59c.1,2.51.49,5.34,2.5,6.86a5.19,5.19,0,0,0,5.79.07Z"/><path d="M47.41,67.65C53.59,61,57,52,59.27,43.33a134.11,134.11,0,0,0,4-24.3,35.2,35.2,0,0,0,0-7.47C63,9.08,62,6.21,59.78,4.83a3.43,3.43,0,0,0-3.38-.19,9.19,9.19,0,0,0-2.74,2.81,80.21,80.21,0,0,0-4.75,6.84A84.08,84.08,0,0,0,37.22,46.16c-.41,2.74-.68,5.51-.82,8.28a62.25,62.25,0,0,0,.06,8.42c.21,2.31.84,4.83,2.9,6.18a5.43,5.43,0,0,0,3.54.79,7.85,7.85,0,0,0,3.39-1.43c.34-.22.69-.44,1-.67.52-.37,0-1.24-.5-.87-1.32.93-2.72,2-4.38,2-2.73.09-4.25-2-4.75-4.48a34.75,34.75,0,0,1-.35-7.63,79.7,79.7,0,0,1,.57-8.17,83.06,83.06,0,0,1,10-30.53q1.95-3.5,4.23-6.77c.8-1.15,1.62-2.27,2.48-3.37s1.58-2.29,2.84-2.59S59.9,6,60.62,7a9.44,9.44,0,0,1,1.52,3.59,27.58,27.58,0,0,1,.2,7.7,136.26,136.26,0,0,1-3.47,22.64c-2,8.34-5,16.89-10.23,23.77-.61.8-1.26,1.56-1.93,2.29C46.27,67.41,47,68.12,47.41,67.65Z"/><path d="M92,45.28c4.9.12,10.34.17,14.6-2.64a17.64,17.64,0,0,0,5.23-6A27.12,27.12,0,0,0,115,29.05c1.19-5.06.57-10.72-2.59-15-1.48-2-3.54-3.81-6.1-4.08a4.74,4.74,0,0,0-5.09,2.8,4.88,4.88,0,0,0,1.56,5.44,3.45,3.45,0,0,0,3.49.45,2.16,2.16,0,0,0,.94-2.94.5.5,0,0,0-.86.5,1.11,1.11,0,0,1-.26,1.35,1.86,1.86,0,0,1-1.63.33,3,3,0,0,1-2-1.47,3.78,3.78,0,0,1,.24-4.31c1.51-1.68,4.15-1.36,5.91-.3a11.88,11.88,0,0,1,4.26,5,18.32,18.32,0,0,1,.72,13.46,27.15,27.15,0,0,1-3,6.47,15.78,15.78,0,0,1-4.54,5C102,44.49,96.77,44.39,92,44.28a.5.5,0,0,0,0,1Z"/><path class="cls-1" d="M42.35,65.22c.36-11.55-5.59-46.12-18.62-60.88-2-2.27-4.9-4.58-7.76-3.59s-3.74,4.83-3.85,8C11.4,29.82,26.79,60,29.89,64.45,32.37,68,42.1,73.1,42.35,65.22Z"/><path d="M42.85,65.22A73.78,73.78,0,0,0,41.93,53a151.19,151.19,0,0,0-3.28-16.73A123,123,0,0,0,32.88,18.8,56.2,56.2,0,0,0,24.61,4.6C22.56,2.15,19.26-1,15.76.3,12.84,1.36,12,4.69,11.7,7.47A42.33,42.33,0,0,0,12,16.4a83.67,83.67,0,0,0,1.69,9.44,134.85,134.85,0,0,0,5.91,18.39c2,4.93,4.11,9.79,6.52,14.52.77,1.51,1.57,3,2.43,4.48a12.29,12.29,0,0,0,2.58,3.24,14.73,14.73,0,0,0,5.77,3.14c1.78.46,3.9.4,5.07-1.23a5.75,5.75,0,0,0,.9-3.16c0-.65-1-.64-1,0a4.26,4.26,0,0,1-1,2.88,3,3,0,0,1-2.18.77,10.83,10.83,0,0,1-5.64-2.15,11.14,11.14,0,0,1-3.22-3.23c-.74-1.19-1.41-2.43-2.07-3.67-2.23-4.21-4.23-8.56-6.06-13a147.61,147.61,0,0,1-6-17.22,76.68,76.68,0,0,1-3.06-17.91c-.09-2.79-.19-6,1.26-8.54A4,4,0,0,1,17.59,1c1.82.09,3.45,1.33,4.72,2.55a33.08,33.08,0,0,1,4.85,6.26A65.2,65.2,0,0,1,31,17a108.47,108.47,0,0,1,5.89,16.51A154.4,154.4,0,0,1,40.48,50a97.18,97.18,0,0,1,1.36,13c0,.75,0,1.51,0,2.26S42.83,65.86,42.85,65.22Z"/><path class="cls-2" d="M48.05,69.71a34.11,34.11,0,0,1,11.05,4A24.31,24.31,0,0,0,56.87,79a56.11,56.11,0,0,0-1.76,13.37,43,43,0,0,0,.41,10.57,18.1,18.1,0,0,0,2,5.46,33.6,33.6,0,0,1-11.39,2.75A62.58,62.58,0,0,1,48.05,69.71Z"/><path d="M47.92,70.2a34,34,0,0,1,10.92,3.94l-.17-.68A33.21,33.21,0,0,0,55,86.89c-.21,2.37-.33,4.75-.41,7.13a44.35,44.35,0,0,0,.21,7.29,19.72,19.72,0,0,0,2.38,7.31l.18-.68a33.47,33.47,0,0,1-11.14,2.68l.48.36a62.23,62.23,0,0,1,1.88-41.13c.24-.6-.72-.86-1-.27a63.31,63.31,0,0,0-3.91,32.56,60.25,60.25,0,0,0,2,9.11.51.51,0,0,0,.48.37,34.67,34.67,0,0,0,11.64-2.82.51.51,0,0,0,.18-.69c-2.31-4-2.61-8.69-2.48-13.24a71.46,71.46,0,0,1,1.31-13.7A25.86,25.86,0,0,1,59.53,74a.5.5,0,0,0-.18-.68,34.77,34.77,0,0,0-11.17-4C47.55,69.12,47.28,70.08,47.92,70.2Z"/><path class="cls-3" d="M55.11,92.34A56.11,56.11,0,0,1,56.87,79a24.31,24.31,0,0,1,2.23-5.26C66.44,78,71,84.8,70.5,92.13c-.5,7-5.57,12.94-12.94,16.24a18.1,18.1,0,0,1-2-5.46A43,43,0,0,1,55.11,92.34Z"/><path d="M55.61,92.34c.29-6.3.75-12.77,3.92-18.38l-.69.18c5,3,9.42,7.49,10.79,13.3a16.38,16.38,0,0,1-4.24,14.85,25,25,0,0,1-8.08,5.65l.68.17c-2.76-4.8-2.63-10.41-2.38-15.77,0-.65-1-.65-1,0-.26,5.54-.33,11.31,2.52,16.28a.51.51,0,0,0,.68.18c5.38-2.43,10.23-6.56,12.27-12.24a17.51,17.51,0,0,0-2.77-16.3,26.38,26.38,0,0,0-8-7,.5.5,0,0,0-.68.18c-3.26,5.76-3.76,12.4-4.06,18.88C54.58,93,55.58,93,55.61,92.34Z"/><polygon class="cls-4" points="0.09 91.29 17.09 91.29 17.09 88.29 0.09 91.29"/><path class="cls-2" d="M22,75.29a29.33,29.33,0,0,1,12.5-5.51C32.61,76.09,32.14,82.85,32,89.49c-.1,7,.29,14.29,2.87,20.65A32.29,32.29,0,0,1,23.57,105a37.88,37.88,0,0,1-3.26-14.7A59.87,59.87,0,0,1,22,75.29Z"/><path d="M22.35,75.64a29.18,29.18,0,0,1,12.28-5.38L34,69.65a66.15,66.15,0,0,0-2.38,16.2,86,86,0,0,0,.55,15.88,38.11,38.11,0,0,0,2.24,8.54l.61-.61a33.5,33.5,0,0,1-7.39-2.74A30.47,30.47,0,0,1,24.48,105a1.81,1.81,0,0,1-.57-.49,6.15,6.15,0,0,1-.44-1c-.27-.66-.51-1.33-.74-2a41.61,41.61,0,0,1-1.79-16.37,66.44,66.44,0,0,1,1.54-9.72c.14-.63-.82-.9-1-.27A57.45,57.45,0,0,0,20,93a38.89,38.89,0,0,0,1.66,8.34c.2.64.43,1.28.67,1.91a9,9,0,0,0,.84,2,4.88,4.88,0,0,0,1.34,1c.57.37,1.15.73,1.75,1.06a34.11,34.11,0,0,0,8.55,3.33c.33.09.76-.24.61-.61a44.91,44.91,0,0,1-2.8-15.14,104.78,104.78,0,0,1,.57-15.94,54.41,54.41,0,0,1,1.82-9,.51.51,0,0,0-.62-.61,30.17,30.17,0,0,0-12.72,5.63C21.13,75.33,21.85,76,22.35,75.64Z"/><path class="cls-3" d="M14.64,88.19c.36-5.08,3.1-9.56,7.36-12.9a59.87,59.87,0,0,0-1.69,15A37.88,37.88,0,0,0,23.57,105C17.69,100.72,14.18,94.66,14.64,88.19Z"/><path d="M15.14,88.19c.39-5.09,3.28-9.44,7.21-12.55l-.84-.49C19.73,83,19,91.19,21,99.07a35.65,35.65,0,0,0,2.16,6.18l.68-.68c-5.23-3.84-9.11-9.7-8.68-16.38,0-.65-1-.64-1,0-.46,7,3.67,13.21,9.18,17.24.45.33.86-.28.68-.68-4.2-9.25-3.72-19.64-1.52-29.33a.51.51,0,0,0-.84-.49,18.92,18.92,0,0,0-7.5,13.26C14.09,88.83,15.09,88.82,15.14,88.19Z"/><path d="M54.18,49c-4.74,0-9.25-1.66-13.56-3.49a48.32,48.32,0,0,1-11.31-6.28,21.25,21.25,0,0,1-7.11-9.67c-1.09-3.29-1.34-7.67,1.22-10.38,1.28-1.36,3.53-2.1,5.18-.92a2.11,2.11,0,0,1,.85,2.31,2.24,2.24,0,0,1-.52,1,1.77,1.77,0,0,1-.5.36l-.19.07-.21,0c-.1,0-.09,0,0,0,.37-.53-.5-1-.87-.51A1,1,0,0,0,28.23,23a2.6,2.6,0,0,0,1.88-1.4,3.22,3.22,0,0,0-1.42-4.46,5.08,5.08,0,0,0-5.44.82,8.4,8.4,0,0,0-2.69,5.23c-.7,4.58,1.26,9.22,4.05,12.76,3.16,4,7.59,6.74,12.14,8.9C42.17,47.46,48.08,50,54.18,50a.5.5,0,0,0,0-1Z"/><ellipse class="cls-5" cx="76.07" cy="63.16" rx="27.5" ry="23"/><circle class="cls-6" cx="93.07" cy="59.66" r="4.5"/><circle class="cls-7" cx="95.57" cy="60.16" r="2"/><circle class="cls-6" cx="75.62" cy="59.94" r="4.5"/><circle class="cls-7" cx="78.12" cy="60.44" r="2"/><path d="M51.58,104.58l1.31,3a13.22,13.22,0,0,1,1,2.56c.18.9.1,1.83.34,2.74a11.82,11.82,0,0,0,1.14,2.69,25,25,0,0,0,7.49,8c1.59,1.11,3.09-1.49,1.51-2.59a21,21,0,0,1-6.71-7.53,6.34,6.34,0,0,1-.69-2.24,9,9,0,0,0-.42-2.62c-.71-1.88-1.61-3.71-2.42-5.55a1.51,1.51,0,0,0-2.05-.54,1.53,1.53,0,0,0-.54,2Z"/><path d="M88.64,71.59a6.13,6.13,0,0,1-5.27,2.32,10.81,10.81,0,0,1-6.15-2.72c-.49-.41-1.2.29-.7.7a11.63,11.63,0,0,0,7,3,7.09,7.09,0,0,0,6-2.81c.38-.53-.49-1-.86-.51Z"/><path d="M45.73,108.65a49.73,49.73,0,0,1-.09,17.08l2.94.4-.06-.55a1.54,1.54,0,0,0-1.5-1.5,1.5,1.5,0,0,0-1.5,1.5l.06.55a1.52,1.52,0,0,0,1.3,1.47,1.48,1.48,0,0,0,1.65-1.07,53.76,53.76,0,0,0,.09-18.68,1.51,1.51,0,0,0-1.84-1,1.53,1.53,0,0,0-1.05,1.85Z"/><path d="M32.8,107.2a27.74,27.74,0,0,1-6,13.93l2.56,1.06-.09-.63a1.54,1.54,0,0,0-1.5-1.5,1.52,1.52,0,0,0-1.5,1.5l.09.63a1.54,1.54,0,0,0,.92,1.37,1.49,1.49,0,0,0,1.64-.31,31.45,31.45,0,0,0,6.88-16,1.51,1.51,0,0,0-1.5-1.5,1.54,1.54,0,0,0-1.5,1.5Z"/><path d="M39.85,109.09a30,30,0,0,1-1.05,7,30.39,30.39,0,0,1-1.16,3.45c-.21.52-.44,1-.68,1.55-.15.3-.34.94-.62,1.1-1.69.93-.18,3.53,1.51,2.59,1.21-.67,1.72-2.17,2.24-3.36a32.46,32.46,0,0,0,1.46-4,33.19,33.19,0,0,0,1.3-8.34c.07-1.93-2.93-1.93-3,0Z"/><path class="cls-3" d="M32,89.49c.1-6.64.57-13.4,2.46-19.71a36.59,36.59,0,0,1,9.55-.57,39.36,39.36,0,0,1,4,.5,62.58,62.58,0,0,0-1.88,41.41,36.91,36.91,0,0,1-11.26-1C32.33,103.78,31.94,96.46,32,89.49Z"/><path d="M32.54,89.49c.1-6.59.56-13.23,2.44-19.58l-.35.35a36.65,36.65,0,0,1,13.29-.06l-.35-.62a63.31,63.31,0,0,0-3.91,32.56,60.25,60.25,0,0,0,2,9.11l.48-.63a37.56,37.56,0,0,1-11.13-1l.35.35c-2.6-6.5-2.94-13.61-2.85-20.52a.5.5,0,0,0-1,0,74.08,74.08,0,0,0,.74,12.8,39.64,39.64,0,0,0,1.5,6.24c.16.48.34,1,.53,1.44s.35.63.91.76c1,.24,2.1.44,3.16.59a39,39,0,0,0,7.79.3.51.51,0,0,0,.48-.64,62.23,62.23,0,0,1,1.88-41.13.5.5,0,0,0-.35-.62,38,38,0,0,0-13.82.07.47.47,0,0,0-.34.35c-1.91,6.42-2.38,13.16-2.48,19.84A.5.5,0,0,0,32.54,89.49Z"/></g></g></svg>