<svg xmlns="http://www.w3.org/2000/svg" viewBox="0 0 227.6 289.59"><defs><style>.cls-1{fill:#84480c;}.cls-2{fill:#31a316;}</style></defs><g id="Layer_2" data-name="Layer 2"><g id="Layer_1-2" data-name="Layer 1"><path class="cls-1" d="M40.19,288.06,73.61,252.4a46.11,46.11,0,0,0,7.32-9.29c2.7-5,3.47-10.77,4.45-16.37,4-23,12.15-45.08,17.13-67.9,2.24-10.23,4.33-21.29,4.8-31.71.57-12.71-1.77-25.66-1.13-38.52q20.35-.14,40.7.4c7.51.2,15.22.5,22.13,3.46-.84,34.9-15.73,68.09-20.73,102.45-1.95,13.34-2.92,26.81-3.87,40.26-.74,10.47-1.45,21.18,1.38,31.29A46.15,46.15,0,0,0,157,286.06"/><path d="M41.25,289.12l30.69-32.75c4.59-4.89,9.45-9.63,11.87-16s2.91-13.21,4.26-19.76c2.9-14,7.09-27.69,10.89-41.47s7.13-27.6,8.94-41.71a128.56,128.56,0,0,0,.68-23.86c-.48-8.31-1.29-16.61-.9-24.93l-1.5,1.5q12.66-.08,25.31.09c8.12.12,16.34,0,24.43.76a42.6,42.6,0,0,1,12.69,3l-1.1-1.45c-.68,26.21-9.17,51.25-15.45,76.46a284.53,284.53,0,0,0-6.92,39.21c-.72,6.87-1.27,13.76-1.77,20.65s-1.1,13.52-1.12,20.29c0,7.21.72,14.53,3.24,21.34A48.57,48.57,0,0,0,156,287.12c1.34,1.39,3.46-.73,2.12-2.13a44.83,44.83,0,0,1-9.4-14.6,54.58,54.58,0,0,1-3.4-18.72c-.16-6.66.4-13.3.88-19.93.49-6.89,1-13.78,1.68-20.66a279.75,279.75,0,0,1,6.46-38.68c3-12.54,6.67-24.94,9.74-37.48,3.41-13.92,6.1-28.09,6.47-42.45a1.54,1.54,0,0,0-1.1-1.44c-7.27-3.06-15.26-3.33-23-3.53q-12.78-.33-25.56-.4-7.32,0-14.64,0a1.52,1.52,0,0,0-1.5,1.5c-.67,14.41,2.07,28.74.82,43.16-1.21,14-4.44,27.92-8.06,41.48s-7.81,27-11,40.72c-1.55,6.67-2.47,13.46-4,20.14a30.79,30.79,0,0,1-3.3,9,44.55,44.55,0,0,1-6,7.58q-17,18.18-34,36.3c-1.32,1.41.8,3.54,2.12,2.12Z"/><path class="cls-2" d="M89.51,76.32a176.54,176.54,0,0,1,.26-21.7c.25-3.31.61-6.71,2.09-9.69a14,14,0,0,1,23.38-2.67c4.4,5.37,4.23,13,3.83,20a48.3,48.3,0,0,1,14.3-40.43c1.95-1.86,4.69-3.66,7.15-2.56,1.68.75,2.54,2.61,3.16,4.34a55.39,55.39,0,0,1,3,24.35,51.81,51.81,0,0,1,16-43.54C164.21,3,166,1.62,168,1.49a6.82,6.82,0,0,1,5.65,3.07c2.34,3.21,2.61,7.58,1.58,11.42s-3.21,7.26-5.48,10.53a170.48,170.48,0,0,1-13.24,16.72c14.25-10.41,29.58-20.73,47.11-22.78,2.86-.34,6.26-.21,7.92,2.15,2,2.9,0,6.85-2.27,9.61a79.83,79.83,0,0,1-19.54,17.38A48.68,48.68,0,0,1,212.31,42c2.28-.18,4.91,0,6.35,1.73,2.08,2.58.14,6.35-1.8,9.05l-6.81,9.45a41.08,41.08,0,0,1,11.57,2.66,7.59,7.59,0,0,1,3.72,2.5c2.13,3.14-.73,7.23-3.56,9.77a97.59,97.59,0,0,1-66.42,24.73c-11.55-.23-23-2.53-34.52-2.85s-23.73,1.62-32.79,8.77c-1.45,1.14-3,2.47-4.8,2.51s-3.52-1.3-4.92-2.58C70.6,100.67,63,93,59.43,83.13c-1.08-3-1.75-6.38-.65-9.4,1.84-5.07,8.18-7.29,13.49-6.27s9.78,4.42,14,7.73"/><path d="M91,76.32a175.35,175.35,0,0,1,0-17.76c.25-5,.22-10.87,3.47-15A12.63,12.63,0,0,1,106,38.75a12.94,12.94,0,0,1,10.17,8c2,4.86,1.69,10.38,1.4,15.51h3A47.07,47.07,0,0,1,126,33.92a41.59,41.59,0,0,1,9-11.62c1.64-1.41,4.27-2.94,6-.79,1.53,1.95,2.11,4.94,2.72,7.28a54.84,54.84,0,0,1,1.47,19.14h3a50.75,50.75,0,0,1,9.1-35.15,47.1,47.1,0,0,1,6.17-7.06,9.47,9.47,0,0,1,3.94-2.61,4.53,4.53,0,0,1,4.2,1.38c5.08,4.86,2.14,12.91-1,17.93a139.79,139.79,0,0,1-15.2,19.75c-1.07,1.19.37,3.41,1.82,2.35C167.47,37.09,178,29.68,190,25.32a65,65,0,0,1,9-2.59c2.69-.57,5.75-1.28,8.51-.8,2.92.51,4,2.77,3,5.49s-3.22,5-5.15,7.16A78.74,78.74,0,0,1,189,48.29l1.52,2.59A48.26,48.26,0,0,1,202,45.48a39.21,39.21,0,0,1,11.89-2.08c1.52,0,3.43.32,4,2s-.43,3.58-1.25,5c-1.07,1.82-2.41,3.49-3.64,5.2l-4.25,5.91c-.73,1,.28,2.17,1.29,2.26a33.07,33.07,0,0,1,12.39,3.16c4.07,2.16,1.22,6.36-1.15,8.68A84,84,0,0,1,202,89.08a95.77,95.77,0,0,1-45.44,11.28c-17.4-.11-34.75-5.17-52.09-1.53a46.25,46.25,0,0,0-10.9,3.69,35.26,35.26,0,0,0-4.85,2.86c-1.5,1.06-3,2.73-4.77,3.26-1.95.59-3.6-1.09-4.91-2.28-1.5-1.37-3-2.76-4.43-4.18a75.09,75.09,0,0,1-8-8.94A42.16,42.16,0,0,1,61,82.93c-1.27-3.48-2.15-7.82.53-10.88a11,11,0,0,1,8.3-3.33c3.85,0,7.45,1.88,10.59,4,1.68,1.11,3.29,2.34,4.88,3.57a1.56,1.56,0,0,0,2.13,0,1.51,1.51,0,0,0,0-2.12c-6.31-4.89-13.89-10.35-22.31-7.72a11.67,11.67,0,0,0-7.54,6.44c-1.73,4.18-.39,8.83,1.29,12.79,3.42,8,9.4,14.63,15.68,20.56,2.81,2.66,6.32,6.79,10.65,5.21,1.95-.71,3.45-2.26,5.12-3.44a36.29,36.29,0,0,1,5.4-3.13c17.26-8.11,37-2.8,55.06-1.69a99.51,99.51,0,0,0,50.61-10.34,96.15,96.15,0,0,0,21.35-14.49c2.69-2.42,5.85-6.34,4.64-10.24-1.28-4.11-6.67-5.36-10.33-6.27a45.33,45.33,0,0,0-6.95-1.12l1.3,2.25c2.45-3.4,5.05-6.75,7.36-10.25,1.73-2.62,3.36-6.3,1.56-9.3s-5.36-3.16-8.4-2.89a49.91,49.91,0,0,0-11.09,2.22A51.16,51.16,0,0,0,189,48.29c-1.62,1-.12,3.63,1.52,2.59A81.79,81.79,0,0,0,206.68,37.5c3.53-3.79,10.34-10.87,5.72-16.24-2-2.28-5.26-2.62-8.08-2.38a54.47,54.47,0,0,0-9.88,1.86,83.7,83.7,0,0,0-18.81,8,203.44,203.44,0,0,0-19.87,13.17l1.82,2.36a154.76,154.76,0,0,0,15.08-19.42c3.83-5.94,6.92-14.21,2.52-20.74-1.88-2.79-5.13-4.81-8.57-3.92s-6.15,4.09-8.39,6.62a53.65,53.65,0,0,0-10.38,17.78,52.35,52.35,0,0,0-2.64,23.32,1.5,1.5,0,0,0,3,0,57.34,57.34,0,0,0-1.35-19c-1.11-4.55-2.95-12.79-9.37-11.3-2.76.64-4.95,2.84-6.83,4.83a48.27,48.27,0,0,0-5.12,6.46,50.2,50.2,0,0,0-6.7,15,48.86,48.86,0,0,0-1.26,18.34,1.5,1.5,0,0,0,3,0c.29-5.24.52-10.78-1.31-15.78a16.1,16.1,0,0,0-10.45-10.14,15.49,15.49,0,0,0-14.37,3c-4.39,3.63-5.65,9-6.1,14.44A173.33,173.33,0,0,0,88,76.32c.1,1.92,3.1,1.93,3,0Z"/><path class="cls-1" d="M160.07,136.18l33.4-.76a7.43,7.43,0,0,1,3.57.51c1.65.84,2.42,2.73,3,4.49a77.91,77.91,0,0,1,3.44,16.34c.35,3.57.21,7.74-2.61,10-2.35,1.85-5.68,1.6-8.65,1.23a384.69,384.69,0,0,1-43.91-8.16"/><path d="M160.07,137.68l25.17-.57,6.48-.15c1.55,0,3.8-.46,5.1.61,1.13.93,1.56,2.59,2,3.93q.94,3,1.63,6a58.14,58.14,0,0,1,1.66,11.2c.09,2.81-.33,6.28-3.29,7.5a10.62,10.62,0,0,1-4.82.44c-2-.16-4-.47-5.95-.75q-6-.82-12-1.85-13.75-2.35-27.33-5.7c-1.88-.46-2.68,2.43-.8,2.89q13.2,3.26,26.62,5.58,6.57,1.14,13.2,2c3.71.51,8,1.59,11.7.31,7.76-2.73,5.72-13,4.58-19.18a52.2,52.2,0,0,0-3.29-12,6.68,6.68,0,0,0-3.28-3.54c-1.85-.81-4-.55-6-.5l-31.4.71c-1.93,0-1.94,3,0,3Z"/><path class="cls-2" d="M35.6,201.52a47.39,47.39,0,0,0-11.2-.75,16,16,0,0,0-10.13,4.35c-3,3.1-4.33,7.82-8,10a17.58,17.58,0,0,0-2.63,1.54,6.15,6.15,0,0,0-1.77,3.22A11.64,11.64,0,0,0,5.16,231a11.63,11.63,0,0,0,11.37,2.42c3.46-1.16,6.16-3.92,8.24-6.91A19.91,19.91,0,0,0,28,219.7c.46-2,.46-4.18,1-6.2,1.84-6.94,9.16-10.67,15.73-13.56"/><path d="M36,200.07c-8.28-1.21-18.17-2.1-23.93,5.33-2.07,2.67-3.4,6.36-6.31,8.26-1.64,1.07-3.33,1.64-4.41,3.4A10.76,10.76,0,0,0,0,222.45a13,13,0,0,0,14.88,12.93c3.91-.57,7.2-3,9.65-6a22.54,22.54,0,0,0,5.27-11.21c.3-2.21.47-4.43,1.51-6.44a14.83,14.83,0,0,1,3.63-4.44c3.07-2.65,6.88-4.39,10.57-6,1.76-.77.23-3.36-1.52-2.59-5.67,2.51-12,5.56-15.11,11.23a14.67,14.67,0,0,0-1.62,4.76,40.07,40.07,0,0,1-1,5.89,21.41,21.41,0,0,1-6.14,9.11,10.53,10.53,0,0,1-9.55,2.61,9.78,9.78,0,0,1-7-6.55,10,10,0,0,1-.35-4.85A4.86,4.86,0,0,1,6,217c3-1.55,4.77-4,6.5-6.81a22,22,0,0,1,3.15-4.27A12.88,12.88,0,0,1,20.83,203c4.67-1.41,9.64-.7,14.37,0,1.89.28,2.71-2.61.8-2.89Z"/><path class="cls-1" d="M32.32,187.31a280.15,280.15,0,0,0,67.84-16.64c1.83-.7,3.77-1.44,5.71-1.11,2.51.43,4.42,2.61,5.38,5,2.32,5.66.12,12.42-4,16.91s-9.94,7.11-15.73,9.11a108.06,108.06,0,0,1-53,4.37c-3.57-.6-7.51-1.65-9.39-4.75"/><path d="M32.32,188.81A283.48,283.48,0,0,0,69,182.1q9.18-2.31,18.19-5.25,4.38-1.42,8.72-3c1.41-.51,2.81-1,4.21-1.57a15.68,15.68,0,0,1,4.42-1.29c2.63-.16,4.54,2,5.42,4.3a12.63,12.63,0,0,1,.36,7.38c-1.24,5.17-4.88,9.16-9.3,11.93-4.91,3.06-10.57,4.9-16.11,6.44a105.48,105.48,0,0,1-17.79,3.35,108.08,108.08,0,0,1-20.35.11A75.15,75.15,0,0,1,37,203.11c-2.48-.56-5.13-1.45-6.58-3.69-1-1.61-3.64-.11-2.59,1.52,3.06,4.74,9.25,5.37,14.36,6.05a108.35,108.35,0,0,0,19.64.8,110.5,110.5,0,0,0,19.41-2.72,83.21,83.21,0,0,0,18-6.07c5-2.48,9.76-6.1,12.35-11.22,2.41-4.77,3.12-10.93.11-15.64a8.41,8.41,0,0,0-6.28-4.14c-3.22-.26-6.49,1.56-9.43,2.63q-9.43,3.47-19.11,6.24a279.53,279.53,0,0,1-44.56,8.94c-1.9.22-1.92,3.23,0,3Z"/><path class="cls-2" d="M43.31,190.42c-3.23,1.19-6.6-1.78-7.83-5s-1.24-6.81-2.67-9.94a23.85,23.85,0,0,0-4.45-6L22.3,163a4.92,4.92,0,0,0-2.41-1.71,3.86,3.86,0,0,0-2.28.37A12.77,12.77,0,0,0,11.14,169a37.72,37.72,0,0,0-1.87,9.86,9.68,9.68,0,0,0,.07,3.48,8.81,8.81,0,0,0,1.14,2.35,27,27,0,0,0,8.9,9A17.5,17.5,0,0,0,31.63,196c3.74-.76,8-2.86,11-.54"/><path d="M42.91,189c-3.42,1.1-5.76-2.83-6.51-5.57-.95-3.52-1.18-7.14-3.19-10.29s-4.93-5.87-7.49-8.63c-1.26-1.36-2.48-3.06-4.06-4.06a5,5,0,0,0-4.81-.06c-6.88,3-8.34,11.17-9,17.82a10.85,10.85,0,0,0,.42,5.57,21.66,21.66,0,0,0,2.82,4.4,26.61,26.61,0,0,0,7.91,7,19.28,19.28,0,0,0,11.6,2.48,52.82,52.82,0,0,0,5.82-1.36c1.89-.46,3.8-.75,5.47.43s3.09-1.49,1.52-2.59c-2.71-1.91-6-1.23-9-.42-3.38.92-6.49,1.44-9.94.5a19.83,19.83,0,0,1-8.57-5.12,27.73,27.73,0,0,1-3.21-3.79c-1-1.44-2-2.87-2-4.69a33.2,33.2,0,0,1,1.78-10.78c1-2.75,2.85-5.51,5.6-6.74a2.07,2.07,0,0,1,2.12-.09,10.17,10.17,0,0,1,1.76,1.77l4,4.36c2.33,2.52,4.95,5,6,8.35,1.13,3.54,1.09,7.54,3.28,10.68,1.88,2.72,5.08,4.78,8.46,3.69,1.83-.59,1-3.48-.8-2.89Z"/></g></g></svg>
