<?xml version="1.0" encoding="utf-8"?>
<!-- Generator: Adobe Illustrator 19.1.0, SVG Export Plug-In . SVG Version: 6.00 Build 0)  -->
<svg version="1.1" id="Layer_1" xmlns="http://www.w3.org/2000/svg" xmlns:xlink="http://www.w3.org/1999/xlink" x="0px" y="0px"
	 viewBox="0 0 4960 4560" style="enable-background:new 0 0 4960 4560;" xml:space="preserve">
<style type="text/css">
	.st0{fill:#69F90D;}
	.st1{fill:#916320;}
	.st2{fill:#5B4F40;}
	.st3{fill:#110A01;stroke:#000000;stroke-miterlimit:10;}
</style>
<g>
	<path class="st0" d="M4031.9,3661c-1.4,6-8.3,8.6-14.3,10.2c-42.8,11-86.9,16.5-131.1,16.3c-23.9-0.1-48.7-2.1-69.6-13.5
		c-10.9-5.9-20.3-14.2-31.1-20.1c-23.6-13-53.3-14.2-77.9-3.1l6.2-1.7c5.8-31.5,29.4-59.1,59.6-69.8l-2.7,0.8
		c0.1,7.9,0.2,15.8,0.3,23.7c19.2-23.3,38.5-46.6,57.7-69.9c8.1-9.8,17-20.1,29.4-22.8c-10.3,18.4-14.1,40.3-10.7,61.1
		c36.7-34.7,76.2-66.2,118.1-94.3c-3,15.9-6,31.7-8.9,47.6c22.5-7.1,44.9-14.1,67.4-21.2c9.4-3,21.8-5,27.5,3.1
		c-13.4,7.7-23.4,21-27.3,36c26.7-1.8,53.5-2.5,80.3-1.9c-14.6,12.1-29.9,25.4-34.7,43.7l0.2-0.3c14.8-1.5,29.9-2.9,44.2,0.9
		c4.1,1.1,8.4,2.8,10.6,6.4c1.4,2.3,1.8,5.1,1.9,7.7c1.7,24.6-9.4,49.7-28.7,65c-16,12.7-36.2,18.4-55.8,23.8c-3.5,1-8.6,1-9.2-2.6
		L4031.9,3661z"/>
	<g>
		<path d="M4030.5,3660.6c-1.6,5.3-7.1,7.4-12,8.8c-6,1.7-12,3-18.1,4.4c-11.6,2.6-23.2,4.7-34.9,6.5c-23.9,3.6-48.1,5.5-72.2,5.7
			c-22.3,0.2-45.5-0.6-66.5-9c-20-8-35-24.4-55.7-31.1c-20.9-6.7-43.9-5.3-63.9,3.5c-1.6,0.7-0.4,3.2,1.2,2.7
			c2.1-0.6,4.1-1.1,6.2-1.7c0.5-0.1,1-0.5,1-1c6.1-31.2,28.7-57.9,58.6-68.7c1.8-0.6,1.1-3.4-0.8-2.9c-0.9,0.3-1.8,0.5-2.7,0.8
			c-0.6,0.2-1.1,0.8-1.1,1.4c0.1,7.9,0.2,15.8,0.3,23.7c0,1.2,1.7,2.1,2.6,1.1c14.4-17.5,28.9-34.9,43.3-52.4
			c6.6-8,13-16.2,19.9-23.9c6.4-7.2,13.7-13.6,23.3-16c-0.6-0.7-1.1-1.5-1.7-2.2c-10.4,19.1-14.2,40.8-10.9,62.2
			c0.2,1.2,1.8,1.4,2.5,0.7c36.6-34.5,76-66,117.8-94.1c-0.7-0.6-1.5-1.1-2.2-1.7c-3,15.9-6,31.7-8.9,47.6c-0.2,1.1,0.7,2.2,1.8,1.8
			c16.8-5.3,33.7-10.6,50.5-15.9c7.3-2.3,14.5-5,22-6.7c6.9-1.6,15.7-2.5,20.6,3.8c0.2-0.7,0.4-1.4,0.5-2.1
			c-13.8,8.2-23.8,21.4-28,36.9c-0.2,0.9,0.5,2,1.4,1.9c26.7-1.8,53.5-2.4,80.3-1.9c-0.4-0.9-0.7-1.7-1.1-2.6
			c-14.6,12.2-29.8,25.4-35.1,44.3c-0.5,1.7,1.8,2.5,2.7,1.2c-0.1,0.1,3.1,0,3.5,0c2.2-0.2,4.3-0.4,6.5-0.6
			c4.9-0.4,9.9-0.6,14.9-0.5c7.8,0.2,22.8,0.3,27.5,8c4.1,6.7,1.9,19.2,0.5,26.5c-1.6,7.7-4.3,15.1-8,21.9
			c-8.3,15-21.2,26-36.6,33.2c-7.8,3.7-16.1,6.5-24.4,9c-4.1,1.2-18.3,7.5-20.5,1.8c-0.6-1.5-0.2-4-0.3-5.5
			c-0.1-2.7-0.3-5.4-0.4-8.1c-0.2-3.5-0.4-7-0.5-10.5c-0.1-1.9-3.1-1.9-3,0c0.2,4.1,0.4,8.3,0.6,12.4c0.2,4-0.2,8.5,0.6,12.4
			c1.4,6.7,9.8,4.4,14.4,3.2c10-2.8,19.9-5.7,29.5-9.7c18.1-7.5,33.5-19.3,43.1-36.7c4.4-8,7.4-16.7,8.9-25.7
			c1.2-7.5,2.9-18.9-1.3-25.8c-5-8.1-18.1-8.9-26.4-9.4c-6.8-0.4-13.6-0.1-20.4,0.5c-2.8,0.2-9-0.6-10.8,1.9
			c0.9,0.4,1.8,0.8,2.7,1.2c5.2-18.4,20.2-31.2,34.4-43c1-0.9,0.1-2.5-1.1-2.6c-26.8-0.6-53.5,0.1-80.3,1.9c0.5,0.6,1,1.3,1.4,1.9
			c4-14.8,13.5-27.2,26.6-35.1c0.6-0.4,1-1.4,0.5-2.1c-8.9-11.5-25.4-5-36.6-1.4c-20,6.3-39.9,12.6-59.9,18.9
			c0.6,0.6,1.2,1.2,1.8,1.8c3-15.9,6-31.7,8.9-47.6c0.2-1.2-1-2.5-2.2-1.7c-42,28.2-81.6,59.8-118.4,94.5c0.8,0.2,1.7,0.4,2.5,0.7
			c-3.2-20.6,0.6-41.6,10.6-59.9c0.6-1.2-0.4-2.5-1.7-2.2c-18.7,4.6-30.5,23.7-42,37.7c-15.3,18.5-30.5,37-45.8,55.5
			c0.9,0.4,1.7,0.7,2.6,1.1c-0.1-7.9-0.2-15.8-0.3-23.7c-0.4,0.5-0.7,1-1.1,1.4c0.9-0.3,1.8-0.5,2.7-0.8c-0.3-1-0.5-1.9-0.8-2.9
			c-17.1,6.2-32,17.3-43.1,31.7c-5.5,7.2-10,15.2-13.3,23.7c-1.7,4.5-2.2,9.6-4.1,13.9c-0.2,0.5,0.9-0.1,0.1,0.6
			c-0.4,0.3-1.5,0.4-2,0.5c-1.2,0.3-2.4,0.6-3.6,1c0.4,0.9,0.8,1.8,1.2,2.7c20.6-9.1,44.4-9.7,65.5-1.9c11.1,4.1,20.4,11,30,17.6
			c8.8,6.1,18,11.2,28.3,14.5c21,6.8,43.7,7.1,65.6,6.7c24.1-0.4,48.2-2.6,72-6.4c13.6-2.2,27.1-4.8,40.5-8.1
			c8.3-2,19.9-3.6,22.8-13.1C4033.9,3659.5,4031.1,3658.8,4030.5,3660.6z"/>
	</g>
</g>
<g>
	<g>
		<path d="M4030.4,3661c0.5,7.7,0.3,15.4-0.6,23c-0.2,1.9,2.8,1.9,3,0c0.9-7.7,1.1-15.3,0.6-23
			C4033.3,3659.1,4030.3,3659.1,4030.4,3661L4030.4,3661z"/>
	</g>
</g>
<g>
	<g>
		<path class="st1" d="M3671.8,3674.8c-5.4-26.6-0.9-55,12.5-78.6c2.2,5.7,4.5,11.5,6.7,17.2c0.6,1.6,1.3,3.3,2.8,4.1
			c2.8,1.5,6.1-1.1,8.2-3.5c5.1-5.7,10.1-11.4,15.2-17.1c2.1,7.5,4.3,15,6.4,22.5c8.1-4.1,16.2-8.2,24.3-12.3
			c3.2,10.5-1,21.8-6.1,31.6c-8.9,17.1-20.5,32.7-34.3,46.1c10.2-9,22.7-15.2,36.1-18c3.2-0.6,6.6-1.1,9.6,0.1
			c7.6,2.9,8.4,14.2,3.5,20.6c-5,6.4-13.3,9.1-21,11.4c5.1-3.1,10.7-6.3,16.6-5.9c6,0.4,11.9,6.2,10,11.9c-4.2,2.3-8.3,4.7-12.5,7
			c4-2.2,10-3.8,12.3,0.1c1.4,2.4,0.2,5.7-2,7.5c-2.2,1.8-5,2.4-7.8,3c-9,1.9-19.1,3.6-26.7-1.6c-3.7-2.5-6.3-6.4-9-10
			c-11.4-15.6-25.9-28.7-40.3-41.6c-0.1,2-1.3,3.9-3.1,4.8c-1-1.5-1.3-3.4-0.9-5.1"/>
		<g>
			<path d="M3673.2,3674.4c-5.2-26.4-0.7-53.9,12.4-77.4c-0.9-0.1-1.8-0.2-2.7-0.4c2.2,5.7,4.3,11.5,6.7,17.2
				c1.2,2.8,2.7,5.6,6.1,5.6c4,0,6.9-3.8,9.3-6.5c4.4-5,8.9-10,13.3-15c-0.8-0.2-1.7-0.4-2.5-0.7c2.1,7.5,4.3,15,6.4,22.5
				c0.3,1,1.3,1.3,2.2,0.9c8.1-4.1,16.2-8.2,24.3-12.3c-0.7-0.3-1.5-0.6-2.2-0.9c4.1,15-5.2,30.3-12.9,42.6
				c-7.7,12.3-16.8,23.5-27.2,33.7c-1.4,1.4,0.7,3.4,2.1,2.1c6.1-5.3,12.9-9.6,20.2-12.8c6.2-2.7,18-7.8,24.6-4.4
				c6.1,3.2,5.8,12.1,2.5,17.2c-4.4,6.9-13.5,9.4-20.8,11.6c0.4,0.9,0.8,1.8,1.2,2.7c5.8-3.5,13.7-8.3,20.4-4.2
				c3.9,2.4,5.6,6.4,1.6,9.3c-2.8,2.1-6.3,3.6-9.4,5.3c-1.7,1-0.2,3.5,1.5,2.6c1.5-0.8,4.8-2.6,6.6-2.1c1.3,1.5,2.5,3,3.8,4.4
				c-0.9,1.1-1.9,2.3-2.8,3.4c-0.9,0.7-2.4,1.1-3.5,1.4c-4.2,1.2-8.8,2-13.2,2.3c-4.7,0.4-9.7,0.1-13.9-2.3c-4.5-2.5-7.3-7-10.3-11
				c-11.5-15.4-25.8-28.4-40-41.2c-0.8-0.7-2.3-0.5-2.5,0.7c-0.8,1.3-1.6,2.6-2.4,3.9c0.7,0.2,1.4,0.4,2.1,0.5
				c-0.8-1.4-1.1-2.8-0.7-4.3c0.2-1.9-2.8-1.9-3,0c-0.3,2.2,0.1,3.9,1.1,5.8c0.4,0.7,1.4,1,2.1,0.5c2.2-1.6,3.2-3,3.7-5.7
				c-0.8,0.2-1.7,0.4-2.5,0.7c11.2,10.1,22.5,20.2,32.4,31.7c7.7,8.9,13.3,21.5,26.1,23.4c5.8,0.9,11.8-0.1,17.5-1.3
				c4.4-0.9,9.7-1.9,12-6.2c1.6-3,1.2-7.1-1.9-9c-3.7-2.3-8.7-0.2-12.2,1.5c0.5,0.9,1,1.7,1.5,2.6c2.9-1.6,5.7-3.2,8.6-4.8
				c1.5-0.9,3.7-1.6,4.6-3.1c1.8-3-0.8-7.8-2.9-9.9c-7.7-7.6-18.2-2.4-25.9,2.2c-1.4,0.9-0.5,3.2,1.2,2.7
				c8.3-2.5,18.2-5.5,22.9-13.5c3.2-5.5,3.5-13.7-1-18.5c-6.1-6.5-17-2.8-24.1-0.4c-10.1,3.4-19.2,8.8-27.3,15.8
				c0.7,0.7,1.4,1.4,2.1,2.1c11.3-11.1,21.3-23.6,29.5-37.3c7.4-12.4,15.4-27,11.4-41.9c-0.3-1-1.4-1.3-2.2-0.9
				c-8.1,4.1-16.2,8.2-24.3,12.3c0.7,0.3,1.5,0.6,2.2,0.9c-2.1-7.5-4.3-15-6.4-22.5c-0.3-1-1.7-1.5-2.5-0.7
				c-5.3,6-10.3,12.7-16.2,18.1c-2.4,2.3-6.1,2.3-7.5-0.9c-0.7-1.7-1.3-3.4-2-5.2c-1.6-4-3.1-8-4.7-12c-0.4-1.1-2.1-1.6-2.7-0.4
				c-13.5,24.3-18,52.5-12.7,79.8C3670.7,3677.1,3673.6,3676.3,3673.2,3674.4L3673.2,3674.4z"/>
		</g>
	</g>
	<g>
		<path class="st1" d="M3595.9,3680.6c-13.2,3.1-24.7,11-35.8,18.9c-2.4,1.7-5.1,3.9-5.3,6.8c-0.4,4.4,4.5,7.2,8.8,8.4
			c21.4,6,45.9-1.7,60.1-18.7c-3.3-5-7.1-9.8-11.2-14.3c-2.1-2.3-4.4-4.6-7.4-5.5c-3-1-6.7-0.3-8.3,2.3"/>
		<g>
			<path d="M3595.5,3679.1c-13.4,3.3-25.2,11-36.2,19.1c-3.2,2.4-6.8,5.4-6,9.8c0.8,4.3,5.3,6.8,9.1,8c21.9,7.1,47.6-1.8,62.2-18.9
				c0.4-0.5,0.6-1.2,0.2-1.8c-4.5-6.8-19.4-30-29.3-17.8c-1.2,1.5,0.9,3.6,2.1,2.1c7.6-9.4,21.1,11.9,24.6,17.2
				c0.1-0.6,0.2-1.2,0.2-1.8c-12.1,14.2-31,21.9-49.7,20c-4.5-0.5-9.9-1.2-13.7-3.8c-8.3-5.6,4.4-12.5,8.6-15.3
				c8.8-6,18-11.3,28.5-13.9C3598.2,3681.5,3597.4,3678.6,3595.5,3679.1L3595.5,3679.1z"/>
		</g>
	</g>
	<g>
		<path class="st1" d="M3627.8,3704.2c18.1,6.2,37.2,9.6,56.4,9.9c11.8,0.2,24.6-1.1,33.2-9.2c3.3-3.1,5.9-7.3,6-11.9
			c0.2-5-2.5-9.7-6.3-13c-3.7-3.3-8.4-5.3-13-7c-14.6-5.3-30.2-7.9-45.8-7.5c-6.2,0.2-12.5,0.8-18.1,3.5c-13,6.2-18.9,24.1-12,36.9"
			/>
		<g>
			<path d="M3627.4,3705.7c19.2,6.5,39.6,10.1,59.9,10c13.6-0.1,33.9-3.9,37.3-19.9c3.7-17.7-19.8-24.7-32.5-27.9
				c-9.8-2.4-19.9-3.7-30-3.8c-8.4-0.1-17.5,0.4-24.8,4.9c-12.4,7.7-16.8,24.8-10.3,37.7c0.9,1.7,3.5,0.2,2.6-1.5
				c-5.7-11.2-1.9-26.3,8.7-33.3c6.4-4.2,14.5-4.8,22-4.9c8.6-0.1,17.2,0.7,25.6,2.4c12.2,2.5,41.7,9.1,35.3,27.4
				c-5.2,14.9-25.7,16.1-38.8,15.7c-18.5-0.5-36.7-3.9-54.2-9.8C3626.3,3702.1,3625.6,3705,3627.4,3705.7L3627.4,3705.7z"/>
		</g>
	</g>
	<g>
		<path class="st1" d="M3662.8,3679.9c7.1-11.2,11.4-26,4.8-37.4c-1.9-3.3-4.6-6-7.5-8.5c-13.8-11.4-33.8-14.8-50.5-8.3
			c-16.6,6.5-29.1,22.9-30.7,40.7c-0.4,4.5-0.1,9,1.3,13.3c2.2,6.4,7,11.6,12.3,15.8c11.7,9.1,27.6,13.8,41.5,9.1
			c11.9-4,20.6-14.1,28.7-23.6"/>
		<g>
			<path d="M3664.1,3680.7c5.1-8.3,9-18,8.2-27.9c-0.8-8.8-5.7-15.7-12.6-21c-14.6-11.2-35.2-14.1-52.1-6.7
				c-16,6.9-27.9,22.6-29.9,40c-1.1,9.6,1.1,18.4,7.6,25.7c6.2,7.1,14.8,12.4,23.8,15.1c10,3.1,20.7,2.9,30.2-1.8
				c10.1-4.9,17.6-13.7,24.7-22.1c1.2-1.5-0.9-3.6-2.1-2.1c-10.9,12.8-23.2,26.1-41.5,25c-16.8-0.9-38.1-13.5-39.8-31.7
				c-1.5-16.2,7.8-32.5,21-41.4c14-9.4,32.5-10.1,47.6-3c8.9,4.2,17.8,11.2,19.8,21.3c2.1,10.1-2.2,20.6-7.4,29.1
				C3660.5,3680.8,3663.1,3682.3,3664.1,3680.7L3664.1,3680.7z"/>
		</g>
	</g>
	<g>
		<path class="st2" d="M3652.3,3708c-0.6,4.4-1.3,8.8-1.9,13.3c-0.1,1-0.3,2-1,2.8c-0.7,0.8-1.7,1.1-2.7,1.3
			c-4.6,1.1-9.3,1.3-13.8,2.6c-4.5,1.3-9,3.8-11,8.1c5.5-4.1,12.2-6.6,19.1-7.2c0.9-0.1,1.8-0.1,2.5,0.4c0.7,0.6,0.9,1.6,1,2.5
			c0.6,5.4,1.1,10.8,1.7,16.2c3.2,0.1,4.7-3.9,4.9-7.2s0.2-7.1,3-8.7c2.8-1.6,6.2,0.4,8.9,2.2c2.7,1.8,6.5,3.4,8.9,1.2
			c1.9-1.7,1.3-5.3-1-6.3c-1.1-0.5-2.4-0.4-3.7-0.5c-9.2-0.6-16.2-11.3-13.1-19.9"/>
		<g>
			<path d="M3650.9,3707.7c-0.4,2.5-0.7,5.1-1.1,7.6c-0.2,1.6-0.1,4.1-0.8,5.7c-2.1,4.8-9.5,4-13.9,5c-5.9,1.3-11.4,3.9-14.4,9.4
				c-0.7,1.2,0.8,3,2.1,2.1c4.2-2.9,11.4-7.5,16.8-6.8c1.4-0.6,2.2-0.2,2.6,1.4c0.8,0.7,1.2,1.5,1.1,2.5c0.4,1.4,0.3,3,0.5,4.5
				c0.3,3,0.6,6,0.9,9c0.1,0.7,0.6,1.6,1.5,1.5c2.2-0.3,3.7-1.1,4.9-3.1c1.8-2.9,0.7-6.1,1.8-9.1c0.7-1.9,5.3-3.6,7.2-3
				c1,0.3,1.9,1.2,2.7,1.7c1.4,0.8,2.7,1.5,4.3,1.8c2.4,0.5,5,0.1,6.5-2c2.4-3.5-0.1-7.7-3.9-8.4c-4.8-0.9-8.4-1.3-11.7-5.5
				c-2.8-3.7-3.8-8.2-2.4-12.7c0.6-1.9-2.3-2.6-2.9-0.8c-1.6,5.3-0.5,10.8,2.8,15.1c3.3,4.4,7.2,5.5,12.3,6.7c1.4,0,2.6,0.6,3.6,1.8
				c-1.9,3-4.1,3.6-6.4,1.8c-1.9-1-3.5-2.4-5.6-3.1c-2-0.7-4.1-0.9-6,0.2c-5.2,3-1.6,14.9-7.1,15.6c0.5,0.5,1,1,1.5,1.5
				c-0.5-4.8-1-9.6-1.5-14.4c-0.3-2.4-0.3-4.9-2.8-6c-2.8-1.2-7.6,0.4-10.3,1.3c-4.3,1.3-8.2,3.3-11.9,5.9c0.7,0.7,1.4,1.4,2.1,2.1
				c5.1-9.2,15.5-7.2,23.9-10c2.2-0.7,3.6-1.4,4.4-3.6c1.6-4.4,1.5-10.1,2.2-14.7C3654.1,3706.6,3651.2,3705.7,3650.9,3707.7
				L3650.9,3707.7z"/>
		</g>
	</g>
	<g>
		<path class="st2" d="M3699.3,3711c-0.5,8-1,16.1-1.5,24.1c-4.8-0.5-9.7-1-14.4,0.2c-4.7,1.1-9.2,4.1-10.8,8.6
			c3-6.5,9.8-11.1,16.9-11.4c0.9,0,1.9,0,2.5,0.7c0.6,0.6,0.7,1.6,0.7,2.5c0.2,6.8,0.4,13.5,0.6,20.3c1.8-6.8,3.7-13.6,5.5-20.4
			c3.3,3.8,6.5,7.5,9.8,11.3c1.2-1.6,2.5-3.3,2.5-5.3c0.1-2-1.7-4.1-3.6-3.7c-1.2,0.3-2.1,1.4-3.3,1.3c-1.1-0.2-1.7-1.5-2.1-2.6
			c-0.7-2.3-1.5-4.6-2.2-6.9c-1.7-5.2-3.3-10.7-2-16c-1,1.5-1.9,3-2.9,4.6"/>
		<g>
			<path d="M3697.8,3711c-0.5,8-1,16.1-1.5,24.1c0.5-0.5,1-1,1.5-1.5c-9.7-1-21.9-1-26.5,9.5c-0.7,1.7,1.7,3.3,2.6,1.5
				c1.6-3.2,3.9-5.9,7-7.9c2.2-1.4,7.4-4,9.5-2c1.9,1.8,1.1,7.4,1.2,10.1c0.1,3.7,0.2,7.4,0.3,11.1c0,1.7,2.5,2.1,2.9,0.4
				c1.8-6.8,3.7-13.6,5.5-20.4c-0.8,0.2-1.7,0.4-2.5,0.7c3.3,3.8,6.5,7.5,9.8,11.3c0.7,0.8,1.8,0.4,2.4-0.3
				c2.3-3.1,4.9-10.3-1.3-11.2c-1.5-0.2-1.7,0.7-3,0.7c-2.8,0-3.1-4.1-3.7-6.1c-1.8-5.6-3.7-11.1-2.6-17c0.3-1.6-1.8-2.7-2.7-1.2
				c-1,1.5-1.9,3-2.9,4.6c-1,1.6,1.6,3.1,2.6,1.5c1-1.5,1.9-3,2.9-4.6c-0.9-0.4-1.8-0.8-2.7-1.2c-1.5,7.7,1.2,16.7,4.2,23.8
				c0.7,1.5,1.3,3.2,3.1,3.6c0.8,0.2,1.6-0.4,2.3-0.3c1.8-1.4,2.8-0.3,2.9,3.3c-0.5,0.9-1.1,1.7-1.7,2.5c0.8-0.1,1.6-0.2,2.4-0.3
				c-3.3-3.8-6.5-7.5-9.8-11.3c-0.8-0.9-2.2-0.4-2.5,0.7c-1.8,6.8-3.7,13.6-5.5,20.4c1,0.1,2,0.3,2.9,0.4
				c-0.2-6.1-0.3-12.3-0.6-18.5c-0.1-2.8-0.1-5.8-3.4-6.4c-7.9-1.6-16.3,5.7-19.6,12.1c0.9,0.5,1.7,1,2.6,1.5
				c4.1-9.5,15.2-8.9,23.9-8c0.8,0.1,1.5-0.8,1.5-1.5c0.5-8,1-16.1,1.5-24.1C3700.9,3709.1,3697.9,3709.1,3697.8,3711L3697.8,3711z"
				/>
		</g>
	</g>
</g>
<circle class="st3" cx="3610.5" cy="3671.5" r="4.5"/>
</svg>
