<svg xmlns="http://www.w3.org/2000/svg" viewBox="0 0 115.6 127.6"><defs><style>.cls-1,.cls-6{fill:#e8efce;}.cls-2,.cls-7{fill:#111;}.cls-3,.cls-5{fill:#f4de14;}.cls-4{fill:#1b1a1e;}.cls-4,.cls-5,.cls-6,.cls-7{stroke:#000;stroke-miterlimit:10;}</style></defs><g id="Layer_2" data-name="Layer 2"><g id="Layer_1-2" data-name="Layer 1"><path class="cls-1" d="M68.55,67.28c-11.61-12.5-15-37.53-15.8-49.37-.24-3.67-.4-7.6,1.5-10.75.86-1.44,2.46-2.74,4.1-2.34a5,5,0,0,1,2.47,2A83.18,83.18,0,0,1,78.73,61.57c-.1,2.52-.49,5.35-2.5,6.87a5.21,5.21,0,0,1-5.79.07Z" transform="translate(-0.01 -0.01)"/><path d="M68.91,66.93c-5.86-6.35-9.12-14.83-11.38-23a130.47,130.47,0,0,1-4.08-23.46c-.17-2-.33-3.92-.34-5.89,0-2.63.29-5.69,2-7.8.77-.93,2-1.81,3.24-1.38S60.39,7,61.12,8a79.81,79.81,0,0,1,4.61,6.62A83.43,83.43,0,0,1,77.16,44.75a81,81,0,0,1,1.1,16.09c-.07,2.27-.15,5-1.85,6.78a4.32,4.32,0,0,1-3.32,1.23,6.81,6.81,0,0,1-3.39-1.42c-.3-.19-.61-.38-.9-.58-.52-.37-1,.5-.5.86a9.48,9.48,0,0,0,4.6,2.12,5.41,5.41,0,0,0,5.51-3.56c1-2.37.88-5.13.89-7.64a82.26,82.26,0,0,0-.42-8.6,84.44,84.44,0,0,0-10-32.13,79.24,79.24,0,0,0-4.5-7.23c-.8-1.15-1.64-2.29-2.5-3.4a8.66,8.66,0,0,0-2.7-2.69c-2.51-1.22-4.82,1.14-5.8,3.24a17.27,17.27,0,0,0-1.19,8c.14,3.78.55,7.57,1,11.32.58,4.37,1.34,8.71,2.35,13C57.61,48.94,60.63,58,66.21,65.27c.63.82,1.29,1.61,2,2.37C68.64,68.11,69.34,67.4,68.91,66.93Z" transform="translate(-0.01 -0.01)"/><path d="M23.57,44.27c-4.21.1-8.77.2-12.66-1.69a13.53,13.53,0,0,1-5-4.44,28.51,28.51,0,0,1-3.36-6.22A19.51,19.51,0,0,1,2,18.35a13.69,13.69,0,0,1,3.57-5.5c1.58-1.45,3.84-2.45,6-1.61a3.5,3.5,0,0,1,1.8,4.68,3.23,3.23,0,0,1-1.75,1.84,2.18,2.18,0,0,1-1.85,0,1.14,1.14,0,0,1-.51-1.52c.32-.56-.55-1.07-.86-.51A2.13,2.13,0,0,0,9,18.43a3.12,3.12,0,0,0,3.23.15,4.65,4.65,0,0,0,2.44-4.43A4.36,4.36,0,0,0,10.9,10a7.41,7.41,0,0,0-6.47,2.53C.78,16.29-.49,21.82.18,26.88a25.24,25.24,0,0,0,2.6,8.05,22.43,22.43,0,0,0,4.66,6.51c4.36,3.94,10.6,4,16.13,3.83a.5.5,0,0,0,0-1Z" transform="translate(-0.01 -0.01)"/><path class="cls-1" d="M73.27,65.2C72.9,53.65,78.85,19.09,91.88,4.33c2-2.28,4.9-4.58,7.76-3.59s3.75,4.82,3.85,8C104.21,29.8,88.82,60,85.72,64.43,83.24,68,73.51,73.09,73.27,65.2Z" transform="translate(-0.01 -0.01)"/><path d="M73.77,65.2a71.12,71.12,0,0,1,.82-11.56,148.62,148.62,0,0,1,3-15.93A126.21,126.21,0,0,1,83,20.83,61.63,61.63,0,0,1,90.64,6.64a24.94,24.94,0,0,1,2.74-3.16C94.67,2.26,96.35,1,98.21,1c3.4,0,4.47,3.81,4.71,6.55a42.55,42.55,0,0,1-.26,8.59,80.91,80.91,0,0,1-1.58,9,132.21,132.21,0,0,1-5.61,17.8q-2.84,7.29-6.32,14.31c-.79,1.58-1.61,3.15-2.48,4.69a14.89,14.89,0,0,1-1.92,2.9,13.82,13.82,0,0,1-5.11,3.42c-1.49.58-3.68,1.13-5-.19a4.36,4.36,0,0,1-.92-2.86c0-.64-1-.64-1,0,.08,2,.9,4.15,3.12,4.57,2.06.39,4.24-.5,6-1.49a12.82,12.82,0,0,0,4.36-3.75c.72-1.06,1.34-2.19,1.95-3.31,2.28-4.21,4.3-8.56,6.17-13a151.58,151.58,0,0,0,6.34-17.78A78.7,78.7,0,0,0,104,11.79c.1-2.91.13-6.12-1.21-8.78a5.38,5.38,0,0,0-3-2.76,5.91,5.91,0,0,0-5,.89,22.25,22.25,0,0,0-6.09,6.54,56.69,56.69,0,0,0-4.13,7.17,103.59,103.59,0,0,0-6.38,17,151.18,151.18,0,0,0-3.9,17.33,100.86,100.86,0,0,0-1.48,13.64c0,.79,0,1.57,0,2.35A.5.5,0,0,0,73.77,65.2Z" transform="translate(-0.01 -0.01)"/><path class="cls-2" d="M67.56,69.7a34,34,0,0,0-11.05,4A24.63,24.63,0,0,1,58.75,79,56,56,0,0,1,60.5,92.32a42.93,42.93,0,0,1-.41,10.57,17.91,17.91,0,0,1-2,5.46,33.19,33.19,0,0,0,11.39,2.75A62.42,62.42,0,0,0,67.56,69.7Z" transform="translate(-0.01 -0.01)"/><path d="M67.43,69.22a34.85,34.85,0,0,0-11.17,4,.51.51,0,0,0-.18.68,32,32,0,0,1,3.59,13c.21,2.29.31,4.6.4,6.9a44.86,44.86,0,0,1-.15,6.86,18.86,18.86,0,0,1-2.3,7.35.5.5,0,0,0,.18.68,34.43,34.43,0,0,0,11.64,2.82.49.49,0,0,0,.48-.36,63,63,0,0,0,1-32.78A61.69,61.69,0,0,0,68,69.57c-.23-.59-1.2-.33-1,.26A62.35,62.35,0,0,1,71,102a60,60,0,0,1-2,9l.48-.37a32.88,32.88,0,0,1-11.13-2.68l.18.69c2.38-4.16,2.74-8.94,2.62-13.63a72.82,72.82,0,0,0-1.38-14.21A27,27,0,0,0,57,73.45l-.18.68a34.08,34.08,0,0,1,10.92-3.95C68.33,70.07,68.06,69.1,67.43,69.22Z" transform="translate(-0.01 -0.01)"/><path class="cls-3" d="M60.5,92.32A56,56,0,0,0,58.75,79a24.63,24.63,0,0,0-2.24-5.26C49.17,78,44.59,84.78,45.11,92.12c.5,7,5.57,12.94,12.94,16.23a17.91,17.91,0,0,0,2-5.46A42.93,42.93,0,0,0,60.5,92.32Z" transform="translate(-0.01 -0.01)"/><path d="M61,92.32c-.3-6.47-.8-13.11-4-18.87a.51.51,0,0,0-.69-.18C51,76.34,46.44,81.11,45,87.16a17.44,17.44,0,0,0,4.37,15.7,25.47,25.47,0,0,0,8.41,5.92.51.51,0,0,0,.69-.17c2.84-5,2.77-10.74,2.51-16.29,0-.64-1-.64-1,0,.25,5.36.38,11-2.38,15.78l.69-.18c-5.13-2.31-9.86-6.21-11.81-11.64A16.55,16.55,0,0,1,49.06,80.9a25.17,25.17,0,0,1,7.71-6.77L56.08,74C59.25,79.56,59.71,86,60,92.32,60,93,61,93,61,92.32Z" transform="translate(-0.01 -0.01)"/><polygon class="cls-4" points="115.51 91.27 98.51 91.27 98.51 88.27 115.51 91.27"/><path class="cls-2" d="M93.62,75.27a29.41,29.41,0,0,0-12.51-5.5c1.9,6.31,2.36,13.07,2.46,19.7.1,7-.29,14.29-2.87,20.66A32.22,32.22,0,0,0,92,105,37.79,37.79,0,0,0,95.3,90.29,59.94,59.94,0,0,0,93.62,75.27Z" transform="translate(-0.01 -0.01)"/><path d="M94,74.92a30.32,30.32,0,0,0-12.72-5.64.51.51,0,0,0-.62.62A65,65,0,0,1,83,86a83.4,83.4,0,0,1-.56,15.72,37.26,37.26,0,0,1-2.2,8.32c-.15.38.28.7.61.62a34.59,34.59,0,0,0,7.64-2.84,29.87,29.87,0,0,0,3.34-2,2.57,2.57,0,0,0,.66-.52,4.12,4.12,0,0,0,.37-.83c.28-.66.54-1.33.78-2a42,42,0,0,0,2.06-17.16A69,69,0,0,0,94.1,75.14c-.14-.63-1.11-.36-1,.27a56.54,56.54,0,0,1,1.55,17.14,38.72,38.72,0,0,1-1.49,8,27.89,27.89,0,0,1-1.44,3.89c-.22.47-.86.77-1.29,1s-1.1.69-1.67,1a33.29,33.29,0,0,1-8.22,3.19l.61.61A45.56,45.56,0,0,0,84,95a103.09,103.09,0,0,0-.6-16.29,55.8,55.8,0,0,0-1.82-9.05l-.62.62a29.18,29.18,0,0,1,12.28,5.38C93.76,76,94.48,75.31,94,74.92Z" transform="translate(-0.01 -0.01)"/><path class="cls-3" d="M101,88.17c-.36-5.07-3.09-9.56-7.35-12.9a59.94,59.94,0,0,1,1.68,15A37.79,37.79,0,0,1,92,105C97.92,100.71,101.43,94.65,101,88.17Z" transform="translate(-0.01 -0.01)"/><path d="M101.47,88.17A18.9,18.9,0,0,0,94,74.92a.51.51,0,0,0-.84.49c2.2,9.68,2.69,20.08-1.52,29.32-.18.4.24,1,.68.69,5.51-4,9.64-10.2,9.18-17.25,0-.64-1-.64-1,0,.43,6.69-3.45,12.55-8.68,16.38l.68.69C95.78,98,96.38,89.87,95.35,82c-.31-2.31-.74-4.61-1.25-6.88l-.84.49c3.93,3.11,6.82,7.46,7.21,12.54C100.52,88.81,101.52,88.82,101.47,88.17Z" transform="translate(-0.01 -0.01)"/><path d="M61.43,50c5.49,0,10.71-2.12,15.66-4.32,4.64-2.07,9.25-4.58,12.73-8.35C93,34,95.3,29.43,95.19,24.72c-.09-3.73-2.44-8.59-6.89-8-2.07.29-3.72,2.09-3.07,4.24A2.91,2.91,0,0,0,87,23a1.24,1.24,0,0,0,1.25-.15,1,1,0,0,0,.14-1.23c-.37-.52-1.24,0-.86.5,0,0,.4,0-.06,0l-.2-.05a1.41,1.41,0,0,1-.42-.22,2.1,2.1,0,0,1-.65-.91,2.18,2.18,0,0,1,.27-2.11c1.13-1.42,3.33-1.25,4.71-.37,3.14,2,3.35,6.53,2.59,9.77-2,8.48-9.9,13.43-17.33,16.73C71.73,47,66.7,49,61.43,49a.5.5,0,0,0,0,1Z" transform="translate(-0.01 -0.01)"/><ellipse class="cls-5" cx="39.53" cy="63.14" rx="27.5" ry="23"/><circle class="cls-6" cx="22.53" cy="59.64" r="4.5"/><circle class="cls-7" cx="20.03" cy="60.14" r="2"/><circle class="cls-6" cx="39.99" cy="59.92" r="4.5"/><circle class="cls-7" cx="37.49" cy="60.42" r="2"/><path d="M61.44,103.06c-.79,1.8-1.63,3.59-2.37,5.41a8.22,8.22,0,0,0-.46,2.6,6.33,6.33,0,0,1-.7,2.4A21,21,0,0,1,51.2,121c-1.57,1.1-.07,3.7,1.51,2.59a25.07,25.07,0,0,0,7.49-8A11.61,11.61,0,0,0,61.3,113a21.54,21.54,0,0,0,.35-2.75,10.83,10.83,0,0,1,1-2.54L64,104.57a1.54,1.54,0,0,0-.54-2,1.51,1.51,0,0,0-2.05.54Z" transform="translate(-0.01 -0.01)"/><path d="M26.11,72.08a7.07,7.07,0,0,0,6,2.82,11.77,11.77,0,0,0,7-3c.49-.41-.22-1.11-.71-.71a10.68,10.68,0,0,1-6.15,2.72A6.12,6.12,0,0,1,27,71.58c-.37-.52-1.24,0-.86.5Z" transform="translate(-0.01 -0.01)"/><path d="M67,107.84a54,54,0,0,0,.09,18.67,1.49,1.49,0,0,0,1.65,1.08,1.53,1.53,0,0,0,1.3-1.47l.06-.56a1.5,1.5,0,0,0-1.5-1.5,1.54,1.54,0,0,0-1.5,1.5l-.06.56,3-.4a49.54,49.54,0,0,1-.1-17.09,1.53,1.53,0,0,0-1-1.84,1.51,1.51,0,0,0-1.85,1Z" transform="translate(-0.01 -0.01)"/><path d="M79.81,107.19a31.48,31.48,0,0,0,6.88,16,1.51,1.51,0,0,0,1.64.31,1.57,1.57,0,0,0,.92-1.38l.09-.62a1.51,1.51,0,0,0-1.5-1.5,1.53,1.53,0,0,0-1.5,1.5l-.09.62,2.56-1.06a27.76,27.76,0,0,1-6-13.92,1.54,1.54,0,0,0-1.5-1.5,1.51,1.51,0,0,0-1.5,1.5Z" transform="translate(-0.01 -0.01)"/><path d="M72.76,109.07a33.73,33.73,0,0,0,1.3,8.35,35.17,35.17,0,0,0,1.46,4c.52,1.2,1,2.7,2.24,3.37,1.69.93,3.21-1.66,1.52-2.59-.28-.16-.48-.8-.63-1.11-.24-.51-.47-1-.68-1.55a29.74,29.74,0,0,1-1.16-3.45,30,30,0,0,1-1-7.05c-.06-1.92-3.06-1.93-3,0Z" transform="translate(-0.01 -0.01)"/><path class="cls-3" d="M83.57,89.47c-.1-6.63-.56-13.39-2.46-19.7a36.16,36.16,0,0,0-9.55-.57,37,37,0,0,0-4,.5,62.42,62.42,0,0,1,1.88,41.4,35.9,35.9,0,0,0,5.08,0,37.24,37.24,0,0,0,6.18-1C83.28,103.76,83.67,96.45,83.57,89.47Z" transform="translate(-0.01 -0.01)"/><path d="M84.07,89.47C84,82.8,83.5,76.06,81.6,69.63a.53.53,0,0,0-.35-.35,38,38,0,0,0-13.82-.06.49.49,0,0,0-.35.61A62.35,62.35,0,0,1,71,102a60,60,0,0,1-2,9,.5.5,0,0,0,.48.63,36.8,36.8,0,0,0,7-.19c1-.12,2.08-.29,3.1-.5a4.67,4.67,0,0,0,1.45-.35c.35-.23.45-.85.59-1.22a44,44,0,0,0,2.38-12.45c.16-2.47.18-4.94.15-7.42a.5.5,0,0,0-1,0c.09,6.92-.24,14-2.85,20.52l.35-.34a37.56,37.56,0,0,1-11.13.95l.48.64a63,63,0,0,0,1-32.78A61.69,61.69,0,0,0,68,69.57l-.35.61A36.65,36.65,0,0,1,81,70.25l-.35-.35c1.89,6.35,2.34,13,2.44,19.57A.5.5,0,0,0,84.07,89.47Z" transform="translate(-0.01 -0.01)"/></g></g></svg>