<svg xmlns="http://www.w3.org/2000/svg" viewBox="0 0 191.07 183.69"><defs><style>.cls-1{fill:#dcf28c;}.cls-2{fill:#e06ef4;}.cls-3{fill:#f4eff4;}.cls-4{fill:#1111f4;}</style></defs><g id="Layer_2" data-name="Layer 2"><g id="Layer_1-2" data-name="Layer 1"><path class="cls-1" d="M155.77,125.57a33.92,33.92,0,0,1-14.14-26.94c0-1.12.17-2.47,1.18-3a3,3,0,0,1,2.8.59,30.1,30.1,0,0,1,12.71,16.54c0-4.54.13-9.13,1.38-13.49s3.8-8.52,7.72-10.8a24.67,24.67,0,0,1,.93,17.07,31.31,31.31,0,0,1,14.5-10.06,12.64,12.64,0,0,1-7.22,15.26c3.53-1.46,8.06-2.66,10.78,0,2.45,2.42,1.69,6.79-.68,9.3s-5.82,3.6-9.11,4.61c2.58-.88,5.49-1.74,7.93-.53,2.87,1.43,3.79,5.38,2.63,8.38s-3.88,5.11-6.74,6.58a21.8,21.8,0,0,1-14.6,2.21,15.35,15.35,0,0,1-11.07-9.28,2.78,2.78,0,0,1-.11-2.15c.53-1,2.19-2.16,1.25-2.85"/><path d="M156.52,124.28a32.5,32.5,0,0,1-12-17,31.27,31.27,0,0,1-1.1-5.06c-.11-.83-.18-1.66-.22-2.48a5.52,5.52,0,0,1,.11-2.43c.36-.68,1-.13,1.59.2a26,26,0,0,1,2.23,1.54,29.43,29.43,0,0,1,3.94,3.71,28.72,28.72,0,0,1,5.85,10.38,1.5,1.5,0,0,0,2.94-.39c.06-8.13.52-18.29,8.35-23l-2-.54a23.35,23.35,0,0,1,.78,15.91c-.41,1.37,1.54,2.65,2.51,1.46A30.33,30.33,0,0,1,183.25,97l-1.84-1a11.17,11.17,0,0,1-6.17,13.42l.79,2.89c2.09-.85,4.41-1.71,6.71-1.5a3.88,3.88,0,0,1,3.68,4c-.08,5.32-6,7.23-10.2,8.51l.8,2.89c1.94-.65,4.29-1.53,6.34-.84a4.31,4.31,0,0,1,2.72,3.5c.66,3.71-2.28,6.64-5.21,8.38-6.84,4.05-16.38,4.63-22.17-1.56a11.62,11.62,0,0,1-1.8-2.49c-.39-.69-1.16-1.91-.8-2.7s1-1.16,1.35-1.87A2.17,2.17,0,0,0,157,126c-1.39-1.34-3.51.77-2.12,2.12-.88-.86.34-1.1-.29-.56a5.28,5.28,0,0,0-.36.44,7.9,7.9,0,0,0-.83,1.16,4.12,4.12,0,0,0-.05,3.3,14.94,14.94,0,0,0,3.64,5.67,18.37,18.37,0,0,0,12.49,5.16c8,.19,21.92-5.38,19.46-15.61a7.25,7.25,0,0,0-4-5c-2.81-1.23-5.92-.38-8.69.55-1.81.61-1.06,3.46.8,2.89,3.15-1,6.36-2,8.91-4.18a9.59,9.59,0,0,0,3.46-7.87,6.75,6.75,0,0,0-5.08-6.13c-3-.77-6.27.21-9.07,1.36-1.76.72-1,3.61.79,2.89a14.18,14.18,0,0,0,8.27-17.1,1.51,1.51,0,0,0-1.84-1,33.15,33.15,0,0,0-15.17,10.44l2.5,1.46a26.59,26.59,0,0,0-1.08-18.22,1.5,1.5,0,0,0-2.05-.54c-8.84,5.3-9.78,16.29-9.84,25.58l3-.4a32.34,32.34,0,0,0-6.24-11.27,31,31,0,0,0-4.63-4.39c-1.57-1.22-3.61-3-5.74-2.69-4.42.56-3,7.46-2.47,10.34A35.54,35.54,0,0,0,155,126.87c1.57,1.12,3.07-1.48,1.51-2.59Z"/><path class="cls-2" d="M78.11,148A73.88,73.88,0,0,0,48,152.36a37.47,37.47,0,0,0-9.77,5.06,6.71,6.71,0,0,0-2.31,2.6c-1,2.27.52,5,2.65,6.19s4.72,1.28,7.17,1.15A57.85,57.85,0,0,0,73,158.82c4-2.45,7.79-5.65,9.14-10.09"/><path d="M78.11,146.46a75.69,75.69,0,0,0-23.22,2.19,69.19,69.19,0,0,0-10.76,3.65c-3.07,1.34-6.74,3.1-8.83,5.81s-1.29,6,.91,8.19c2.47,2.47,6.2,2.73,9.49,2.56a59.51,59.51,0,0,0,21.07-5.08c6.65-2.94,14.41-7.28,16.79-14.65.59-1.85-2.31-2.64-2.9-.8C78.85,154,73,157.36,68,159.88a56.1,56.1,0,0,1-18.18,5.61c-2.89.37-6.19.83-9,0-2.35-.65-5-3.33-3-5.75A14,14,0,0,1,41.51,157a36.6,36.6,0,0,1,4.33-2.19,66.57,66.57,0,0,1,9.62-3.2,73,73,0,0,1,22.65-2.14c1.93.11,1.93-2.89,0-3Z"/><path class="cls-2" d="M98.41,155.59c-2.91-.35-5.73,1-8.27,2.52a97.34,97.34,0,0,0-20.9,16.35c-1.48,1.54-3,3.29-3.2,5.42a2.27,2.27,0,0,0,.48,1.81,2.87,2.87,0,0,0,2.63.37c7.3-1.41,14.57-3.67,20.66-7.93s10.91-10.74,11.9-18.1"/><path d="M98.41,154.09C95,153.78,91.87,155.36,89,157a97.71,97.71,0,0,0-8.51,5.62,100.57,100.57,0,0,0-7.84,6.42c-2.37,2.15-5,4.41-6.79,7.11-1.36,2.1-2.38,6.26.82,7.31a8.18,8.18,0,0,0,4.16-.25c1.72-.36,3.42-.76,5.11-1.24a45.32,45.32,0,0,0,17.37-8.7c5-4.3,8.89-10.25,9.84-16.88a1.55,1.55,0,0,0-1-1.85,1.51,1.51,0,0,0-1.84,1c-1.57,10.9-10.71,18.39-20.53,22a64.68,64.68,0,0,1-8.2,2.39c-.64.15-1.28.28-1.93.41-.38.08-1.45.47-1.87.25-.82-.43.4-2.5.71-3,1.55-2.35,3.93-4.32,6-6.21s4.37-3.83,6.68-5.58a96.26,96.26,0,0,1,8.07-5.49c2.8-1.71,5.8-3.65,9.22-3.34,1.93.17,1.91-2.83,0-3Z"/><path class="cls-2" d="M156.78,152c4.88-.49,8.93,3.37,12.88,6.26a38.64,38.64,0,0,0,17.08,7c1.25.18,3.08-.29,2.8-1.52a2.47,2.47,0,0,0-.88-1.11c-1.68-1.55-2.32-3.89-3.55-5.83-2.32-3.67-6.56-5.62-10.7-6.94a62.53,62.53,0,0,0-14.33-2.77"/><path d="M156.78,153.51c5.08-.39,9,3.89,12.83,6.56a39.84,39.84,0,0,0,15,6.33c1.88.36,4.47.86,5.86-.9,1.76-2.2-1-3.87-2-5.58-1.21-2.06-2-4.22-3.69-6a18.76,18.76,0,0,0-6-4,57,57,0,0,0-18.71-4.33c-1.92-.15-1.91,2.85,0,3a59.18,59.18,0,0,1,15,3.08c4.13,1.44,7.64,3.57,9.64,7.57a24.86,24.86,0,0,0,1.43,2.7,12,12,0,0,0,.91,1.21,4.42,4.42,0,0,0,.52.54c.83.66.19-.25.59-.07,0,0-.76.18-.89.18a7,7,0,0,1-1.44-.2,34,34,0,0,1-3.59-.83,38.35,38.35,0,0,1-12.63-6.36c-3.79-2.85-7.8-6.27-12.86-5.88-1.91.14-1.93,3.15,0,3Z"/><path class="cls-2" d="M148.11,158.17A269.57,269.57,0,0,1,169,176.05a3.44,3.44,0,0,1,1.21,1.81,2.32,2.32,0,0,1-1.93,2.37,6.44,6.44,0,0,1-3.29-.4,49.61,49.61,0,0,1-15.25-7.22c-4.53-3.39-8.25-8.07-9.69-13.54"/><path d="M147.36,159.47q5.47,4.23,10.73,8.75a127.33,127.33,0,0,1,10.12,9.15c.59.63.68,1.16-.31,1.41s-2.22-.3-3.13-.59c-2-.64-4-1.34-6-2.18a36.79,36.79,0,0,1-10.43-6.48,23.23,23.23,0,0,1-6.86-10.85,1.5,1.5,0,0,0-2.89.79c2.59,9.48,10.71,15.79,19.42,19.45a62,62,0,0,0,7,2.48c2.19.62,4.89.66,6.22-1.54s-.28-4.05-1.84-5.52c-2-1.9-4.06-3.76-6.13-5.6q-7-6.18-14.38-11.86a1.51,1.51,0,0,0-2.05.54,1.53,1.53,0,0,0,.54,2.05Z"/><path class="cls-2" d="M89.33,117.09c5.67-.39,11.14-2.15,16.66-3.53,5.11-1.28,10.3-2,15.45-3,4.6-.88,9.47-2.44,14.2-2.51A27.34,27.34,0,0,1,145,110a37.19,37.19,0,0,1,13.63,7.79c3.75,3.6,6.55,9.48,6.49,14.73a24,24,0,0,1-2.5,9.86c-3.16,6.77-8.65,12.61-15.62,15.32-2.92,1.14-5.82.94-8.85,1.62a53.05,53.05,0,0,1-12.53,1.65,56.47,56.47,0,0,1-7.67-.78c-7.86-1.22-16.36-2.43-23.53-5.9-4.26-2.06-9-2.85-13.42-4.61s-8.68-4.91-9.82-9.5c-1.45-5.84,2.5-12.63-.7-17.73-1.44-2.29-4.28-4.18-3.89-6.87A7,7,0,0,1,70.74,111c2.43-.63,2.56,1.21,4,2.54C78.37,116.84,84.72,117.4,89.33,117.09Z"/><path d="M89.33,118.59a75.19,75.19,0,0,0,13.61-2.69c4.54-1.2,9.11-2.13,13.74-2.92s9-1.89,13.59-2.76a26.73,26.73,0,0,1,6.73-.58,26.17,26.17,0,0,1,6.7,1.47c7.59,2.52,15.06,6.68,18.36,14.34a17.6,17.6,0,0,1,.81,11.9,30.13,30.13,0,0,1-5.44,10.55,27.49,27.49,0,0,1-8.46,7.2,17.41,17.41,0,0,1-5.68,2c-2.18.33-4.33.52-6.48,1a46,46,0,0,1-13.87,1.25c-4.41-.38-8.85-1.18-13.2-2a65.08,65.08,0,0,1-12.41-3.37c-2-.78-3.82-1.76-5.82-2.46s-4.24-1.31-6.36-2c-3.66-1.13-7.33-2.56-10-5.37s-3-6.29-2.58-10c.42-3.53,1.34-7.31,0-10.76a15.7,15.7,0,0,0-3-4.44c-.91-1.08-2-2.36-1.24-3.81.46-.92,2.16-3.08,3.43-2.69.4.11.65.62.88.93a9.17,9.17,0,0,0,1.61,1.74c2.82,2.28,6.48,3.16,10,3.48a33.26,33.26,0,0,0,5.09.06c1.91-.12,1.93-3.12,0-3-3.73.23-7.82,0-11.23-1.61a11,11,0,0,1-3.69-3.23,3.79,3.79,0,0,0-4.2-1.15c-3.29,1-6.15,5-4.78,8.4.69,1.7,2,3,3.14,4.36a8,8,0,0,1,1.67,5.25c0,4.09-1.41,8.08-.69,12.19.67,3.85,3.4,6.91,6.57,9,3.71,2.45,8.08,3.5,12.27,4.79,4.4,1.35,8.43,3.54,12.86,4.82A112.25,112.25,0,0,0,115,161.2c4.94.77,9.83,1.54,14.84,1a65.81,65.81,0,0,0,7.11-1.16c2.38-.51,4.76-.77,7.16-1.14a23.48,23.48,0,0,0,11.09-5.44c6.36-5.26,11.55-14,11.42-22.4-.13-8.68-6-15.93-13.25-20a44.88,44.88,0,0,0-12.8-4.93c-4.91-1-9.7-.16-14.52.95s-9.72,1.89-14.6,2.8-9.7,2.35-14.57,3.49a49.13,49.13,0,0,1-7.52,1.23C87.41,115.73,87.4,118.73,89.33,118.59Z"/><path class="cls-2" d="M50.18,43.41A38,38,0,0,1,60.73,14.84,44.76,44.76,0,0,1,88.47,1.66c5-.5,10.2-.19,14.72,2S111.45,10,112,15c.66,5.78-2.88,11.17-6.66,15.6a92.09,92.09,0,0,1-25.93,21"/><path d="M51.68,43.41a36.34,36.34,0,0,1,7.71-24.73A41.56,41.56,0,0,1,81.16,4.55c8.22-2.26,19.06-3.09,25.63,3.4a11.76,11.76,0,0,1,3.5,11.1c-1,4.48-4,8.25-7,11.62a91.68,91.68,0,0,1-24.63,19.6c-1.7.93-.18,3.52,1.51,2.59a93.93,93.93,0,0,0,24.09-18.79c3.34-3.64,6.63-7.56,8.33-12.26a14.64,14.64,0,0,0-1.46-13.29C105.39,0,94.22-.95,84.89.65a45.69,45.69,0,0,0-25.08,13A39.53,39.53,0,0,0,48.68,43.41c.13,1.92,3.14,1.93,3,0Z"/><path class="cls-1" d="M59.91,44.6a15.84,15.84,0,0,1,2.15-10.41,45.48,45.48,0,0,1,6.69-8.49C73,21.12,78,16.28,84.19,15.86a7.5,7.5,0,0,1,5,1.26c2.19,1.68,2.69,4.82,2.32,7.56-.87,6.59-5.6,12-10.87,16.1a55.07,55.07,0,0,1-12,7"/><path d="M61.36,44.21c-1-5.84,2.73-11.09,6.4-15.21,3.41-3.82,7-8,11.7-10.3a10.93,10.93,0,0,1,7.19-1.17c2.57.64,3.51,3.07,3.52,5.51,0,5-3,9.59-6.39,13A49.59,49.59,0,0,1,67.92,46.51c-1.77.76-.25,3.35,1.51,2.59A51.57,51.57,0,0,0,85.9,38.19c4-4,7.38-9.49,7.27-15.34,0-2.8-1.06-5.69-3.51-7.26s-5.77-1.47-8.52-.72c-5.9,1.61-10.33,6.38-14.33,10.73C61.88,31,57.21,37.31,58.47,45c.31,1.9,3.2,1.1,2.89-.79Z"/><path class="cls-2" d="M84.15,62.33c2.53-2.83,5.82-4.83,9.11-6.72A231.15,231.15,0,0,1,123.89,41a50.66,50.66,0,0,1,11.89-3.42,19.8,19.8,0,0,1,12,1.94,4.7,4.7,0,0,1,1.53,1.23c1.2,1.68.15,4-1,5.72a101.12,101.12,0,0,1-13.23,15.76c-7.21,7.2-15.54,14-25.54,15.94a60.91,60.91,0,0,1-6.46.79,47.71,47.71,0,0,1-12,0c-3.95-.67-7.86-2.46-10.29-5.65A7.26,7.26,0,0,1,79.18,69c0-3.15,2.76-5.51,5.27-7.42"/><path d="M85.21,63.39c3.63-4,8.67-6.47,13.34-9q7.68-4.16,15.65-7.73a135.88,135.88,0,0,1,16.16-6.37c5.11-1.53,11-2.28,15.94.12,1,.51,2.21,1.05,2.07,2.4a8.12,8.12,0,0,1-1.68,3.45,81.28,81.28,0,0,1-5,6.67,122.31,122.31,0,0,1-11.2,11.68,57.67,57.67,0,0,1-12.41,9c-4.9,2.52-10,3.44-15.41,3.9-5.92.5-12.42,1-17.65-2.39-2.08-1.33-4.58-3.78-4.31-6.49.25-2.49,2.67-4.36,4.52-5.77,1.51-1.15,0-3.76-1.52-2.59-2,1.55-4.14,3.23-5.26,5.59a7.69,7.69,0,0,0,.66,7.57c3.1,4.84,8.94,6.9,14.42,7.33a61.75,61.75,0,0,0,10.08-.33,47.47,47.47,0,0,0,9.19-1.48,45.5,45.5,0,0,0,15-8.15,106.25,106.25,0,0,0,12.71-12q3.17-3.43,6-7.15c1.73-2.27,3.93-4.8,4.64-7.62,1.63-6.49-7.85-8.12-12.41-8.1-6.4,0-12.5,2.51-18.35,4.89-6.82,2.77-13.52,5.85-20,9.26-3.15,1.64-6.27,3.34-9.32,5.15a33.57,33.57,0,0,0-8,6.1c-1.3,1.42.81,3.55,2.12,2.12Z"/><path class="cls-1" d="M84.51,66.24c8.53-7.83,20.26-11.36,31.8-12.37,2-.18,4.39-.19,5.8,1.31a4.66,4.66,0,0,1,.65,4.85,10.57,10.57,0,0,1-3.21,4c-8.21,6.93-19.33,9-29.91,10.93a7.3,7.3,0,0,1-3.35.07"/><path d="M85.57,67.3c7.94-7.21,18.6-10.63,29.11-11.77,1.9-.21,5.55-1,6.66,1.15,1.27,2.41-1.18,4.86-2.85,6.27a39.47,39.47,0,0,1-14,7.16c-2.89.88-5.83,1.57-8.79,2.17-1.41.29-2.83.56-4.25.81s-3.25.83-4.77.47c-1.88-.44-2.68,2.45-.8,2.9a10.91,10.91,0,0,0,4.55-.15c1.62-.28,3.24-.58,4.85-.89,3-.59,6.06-1.26,9-2.13a43.71,43.71,0,0,0,16.29-8.22c2.15-1.83,4.13-4.25,4-7.22-.1-3.12-2.39-5.13-5.37-5.48-2.82-.34-5.87.26-8.65.7a64.52,64.52,0,0,0-9.22,2.13,47.5,47.5,0,0,0-18,10c-1.43,1.3.69,3.42,2.12,2.12Z"/><path class="cls-2" d="M45.5,43.71c-3.85.74-7.31,2.81-10.61,4.93C27.27,53.54,19.89,59,14.16,66,5,77.28-1.88,96.47,3.25,110.72a31.53,31.53,0,0,0,17.91,18.41,45.32,45.32,0,0,0,11.41,2.59C43.83,133,58,132.16,66.8,124.1c3.9-3.57,7.14-6.15,9.41-11a116.22,116.22,0,0,0,7-19.32c2.58-9.87,3.8-20.51.52-30.18-2.29-6.76-7.19-13-13.66-16.13C63.9,44.41,52.1,42.44,45.5,43.71Z"/><path d="M45.1,42.26c-5,1-9.33,4-13.5,6.74a104,104,0,0,0-12,9.15A60.41,60.41,0,0,0,4.17,80.24C.83,88.39-1,97.52.54,106.29A32.53,32.53,0,0,0,14.32,127.2c7.82,5.34,17.85,6.58,27.11,6.5,8.48-.07,17.54-1.67,24.45-6.9a46.61,46.61,0,0,0,9.42-9.24,33.59,33.59,0,0,0,3.54-6.74c1-2.41,2-4.84,2.88-7.31C85.26,93.53,88,82.62,87,72,86,62.56,81.88,53.61,74,48.06a31.75,31.75,0,0,0-11-4.61A54.41,54.41,0,0,0,50.4,41.82a28.59,28.59,0,0,0-5.3.44c-1.89.35-1.09,3.24.8,2.89a34.66,34.66,0,0,1,10.9.14A49,49,0,0,1,67.74,48C75.51,51.1,80.89,58.43,83,66.35c2.54,9.71.79,20-1.92,29.46a112,112,0,0,1-5.15,14.35,29.9,29.9,0,0,1-3.28,6,35.18,35.18,0,0,1-4.2,4.43c-3,2.79-6,5.3-9.83,6.94a39.31,39.31,0,0,1-11.7,2.85,66.11,66.11,0,0,1-12,0,44.6,44.6,0,0,1-14-3A30,30,0,0,1,4.64,110.16c-2.7-7.67-1.8-16.17.53-23.81a56.36,56.36,0,0,1,12-21.53,72.71,72.71,0,0,1,10.28-9.24,103.12,103.12,0,0,1,11.92-7.92,23.12,23.12,0,0,1,6.51-2.51C47.79,44.76,47,41.87,45.1,42.26Z"/><path class="cls-3" d="M33.34,70.41c-2.33,1.54-4.86,3.33-5.5,6-.28,1.17,0,2.68,1.17,3.06s2.34-.74,3-1.84a12.77,12.77,0,0,0,1.29-3.21,3.13,3.13,0,0,0-.11-2.37c-.41-.7-1.56-1-2-.31"/><path d="M32.59,69.11a19.21,19.21,0,0,0-4.51,3.71,6.67,6.67,0,0,0-1.69,5.65,3.23,3.23,0,0,0,5.48,1.66,7.08,7.08,0,0,0,1.85-2.57,12.92,12.92,0,0,0,1.1-3.26,3.68,3.68,0,0,0-1.27-3.88,2.69,2.69,0,0,0-3.49.31,1.53,1.53,0,0,0,0,2.12,1.51,1.51,0,0,0,2.12,0c.15-.19,0,0-.09,0s.24-.11-.09,0c.17-.07,0,0,0,0l-.1,0c.13,0,.14,0,0,0s0,0,.05,0-.1,0-.11,0c.23.13,0,0,0,0s.18.26.09.08.07.22,0,0,0,.07,0,.08c.06.3,0,.08,0,0a2.8,2.8,0,0,1,0,.29c0,.09,0,.19,0,.28s0-.2,0,0-.09.44-.15.65A10.42,10.42,0,0,1,31,76.34a9.81,9.81,0,0,1-.56,1l-.1.13c.1-.12-.06.06-.06.06l-.2.21s-.29.26-.16.15l-.12.08c-.05,0-.12.06-.17.1.2-.14.08,0,0,0s-.08,0,0,0h-.25s.26,0,.08,0,.24.09.05,0-.13-.11,0,0c-.05,0-.1-.11-.15-.15s.12.23.07.1a1.14,1.14,0,0,0-.1-.19c-.12-.14,0,.23,0,0a2.72,2.72,0,0,0-.11-.38c0-.11,0-.25,0,0,0-.1,0-.19,0-.29s0-.27,0-.41c0,.35,0-.06.06-.18s.08-.3.13-.45a1.07,1.07,0,0,0,.07-.19c-.1.3,0-.08.06-.12a6.44,6.44,0,0,1,.47-.8s.34-.45.15-.23l.35-.4a10.57,10.57,0,0,1,.82-.82l.46-.4c.07-.06.44-.35.24-.2.65-.5,1.34-1,2-1.42a1.5,1.5,0,0,0-1.51-2.59Z"/><path class="cls-3" d="M18,65.8c-1,1.14-2.57,1.76-3.53,3s-.85,3.49.66,3.78a2.5,2.5,0,0,0,2.26-1.12,6.64,6.64,0,0,0,1.52-3.9,2.08,2.08,0,0,0-.33-1.43.9.9,0,0,0-1.31-.17"/><path d="M17,64.74a6.25,6.25,0,0,1-.45.44l-.18.16a10.31,10.31,0,0,1-1,.68,9.51,9.51,0,0,0-1.95,1.68,4.46,4.46,0,0,0-.75,4.47,3.07,3.07,0,0,0,1.79,1.74,3.28,3.28,0,0,0,2.91-.45,7.38,7.38,0,0,0,2.91-4.76,4.52,4.52,0,0,0-.39-3.37,2.43,2.43,0,0,0-3.67-.47,1.51,1.51,0,0,0,0,2.12,1.53,1.53,0,0,0,2.12,0,1,1,0,0,1-.39.22c.23-.07-.15,0-.17,0,.29,0-.3-.07-.11,0s-.28-.15-.12,0-.23-.22-.1-.08-.16-.27-.06-.09-.07-.27,0-.07c0,0,.09.23.07.26s0-.31,0,0v.21a3.4,3.4,0,0,1,0,.45s0,.29,0,.08,0,0,0,.07-.08.37-.12.55l-.13.43-.08.21s-.12.27,0,.08-.06.11-.06.13l-.11.2a4.91,4.91,0,0,1-.25.44c-.08.12-.17.24-.25.37s.24-.27,0,0a2.09,2.09,0,0,1-.14.17l-.3.3c-.07.07-.15.2,0,0a1.16,1.16,0,0,1-.27.18l-.19.1s.33-.1.07,0l-.2,0s.37,0,.09,0,.29.05,0,0,.13,0,.16.08a.81.81,0,0,0-.18-.1s.28.26.14.11a.94.94,0,0,0-.1-.1c-.16-.13.21.33,0,0a.75.75,0,0,1-.07-.12c-.11-.19.07.15.07.17a2,2,0,0,0-.1-.35c-.06-.24,0,.4,0,0,0-.1,0-.2,0-.31a.76.76,0,0,0,0-.15c0-.24,0,.15,0,.16s.05-.26.09-.38a.88.88,0,0,1,.05-.15c.06-.22-.06.12-.07.14s.09-.19.14-.28l.08-.13c.14-.25-.22.25-.07.08s.21-.24.32-.35l.38-.35.16-.14c.28-.23-.26.19,0,0l.77-.55a11.65,11.65,0,0,0,1.84-1.51A1.5,1.5,0,0,0,17,64.74Z"/><path class="cls-4" d="M18.34,81.91a2.64,2.64,0,0,0-2.89,4,2.76,2.76,0,0,0,4.36,0,2.73,2.73,0,0,0-1.73-4"/><path d="M18.74,80.46a4.39,4.39,0,0,0-2.92.29A3.94,3.94,0,0,0,14,82.53a4.45,4.45,0,0,0-.34,3,3.94,3.94,0,0,0,1.56,2.25,4.16,4.16,0,0,0,2.13.73,4.31,4.31,0,0,0,2.23-.43,3.76,3.76,0,0,0,2.11-3.73,4.72,4.72,0,0,0-1.08-2.57,3.66,3.66,0,0,0-2.1-1.25,1.61,1.61,0,0,0-1.16.15,1.56,1.56,0,0,0-.69.9,1.54,1.54,0,0,0,.16,1.15,1.47,1.47,0,0,0,.89.69,2.85,2.85,0,0,1,.5.14l-.36-.15a3,3,0,0,1,.52.31l-.3-.23a3.48,3.48,0,0,1,.47.47l-.24-.3a3,3,0,0,1,.39.67L18.51,84a3.77,3.77,0,0,1,.2.75l-.06-.4a2.91,2.91,0,0,1,0,.66l.05-.39a2.46,2.46,0,0,1-.16.59l.16-.36a2.43,2.43,0,0,1-.29.49l.24-.3a2.52,2.52,0,0,1-.4.4l.3-.24a2.35,2.35,0,0,1-.57.33l.36-.15a2.91,2.91,0,0,1-.7.19l.4,0a3.29,3.29,0,0,1-.83,0l.4,0a2.77,2.77,0,0,1-.75-.2l.36.15a2.37,2.37,0,0,1-.53-.31l.3.24a2.52,2.52,0,0,1-.4-.4l.24.31a2.87,2.87,0,0,1-.32-.53l.15.36a3.46,3.46,0,0,1-.19-.7l.05.4a3.39,3.39,0,0,1,0-.78l-.05.4a3.46,3.46,0,0,1,.19-.7l-.15.36a2.29,2.29,0,0,1,.3-.5l-.24.3a2.84,2.84,0,0,1,.49-.49l-.3.24a2.55,2.55,0,0,1,.6-.35l-.36.15a3,3,0,0,1,.73-.19l-.4,0a2.66,2.66,0,0,1,.69,0l-.4,0,.31.06a1.5,1.5,0,0,0,.8-2.89Z"/><path d="M6.19,90.23a11.82,11.82,0,0,0,8.52,10.58,11.81,11.81,0,0,0,12.64-5c1.06-1.62-1.54-3.12-2.59-1.51a8.71,8.71,0,0,1-9.25,3.62,8.73,8.73,0,0,1-6.32-7.68c-.12-1.92-3.12-1.93-3,0Z"/><path d="M15,86.94A48.45,48.45,0,0,1,12.35,96a1.51,1.51,0,0,0,1.05,1.85,1.55,1.55,0,0,0,1.84-1,47,47,0,0,0,2.6-9.07,1.5,1.5,0,1,0-2.89-.8Z"/></g></g></svg>