<?xml version="1.0" encoding="utf-8"?>
<!-- Generator: Adobe Illustrator 19.1.0, SVG Export Plug-In . SVG Version: 6.00 Build 0)  -->
<svg version="1.1" id="Layer_1" xmlns="http://www.w3.org/2000/svg" xmlns:xlink="http://www.w3.org/1999/xlink" x="0px" y="0px"
	 viewBox="0 0 1273.6 915.8" style="enable-background:new 0 0 1273.6 915.8;" xml:space="preserve">
<style type="text/css">
	.st0{display:none;}
	.st1{display:inline;}
	.st2{fill:#995116;}
	.st3{fill:#800FB5;}
	.st4{fill:#F46E0B;}
	.st5{fill:#F2DD44;}
	.st6{stroke:#000000;stroke-width:5.2893;stroke-miterlimit:10;}
</style>
<g>
	<g>
		<path d="M146.6,909.3C146.8,909.2,146.8,909.2,146.6,909.3c0.1,0,0.2,0,0.3,0c-0.3,0,0.2,0,0.3,0.1c-0.4-0.1,0.3,0.3,0,0
			c0.1,0.1,0.1,0.1,0.2,0.2c-0.1-0.1-0.1-0.1,0,0c0.4,0.7,1.3,1,2.1,0.5c0.7-0.4,1-1.4,0.5-2.1c-0.9-1.4-2.5-2.1-4.2-1.7
			c-0.8,0.2-1.3,1.1-1,1.8C145,909,145.8,909.5,146.6,909.3L146.6,909.3z"/>
	</g>
</g>
<g>
	<g>
		<path d="M142.8,884.6c4.4,3.7,8.9,7.2,13.6,10.5c1.6,1.1,3.1-1.5,1.5-2.6c-4.5-3.1-8.8-6.5-13-10.1
			C143.5,881.3,141.3,883.4,142.8,884.6L142.8,884.6z"/>
	</g>
</g>
<g class="st0">
	<g class="st1">
		<path class="st2" d="M550.7,582.8c-1.1,34.8-0.3,59,2,102c0.8,15.5,3.1,31.5,6.4,46.6c9.6,43.9,10.9,127.9,7,134.3
			c-3.8,6.4-12.5,1-13.5-2.7c-9.8-38.2-6.9-78.9-18.5-116.6c-0.9-3.1-2.5-6.6-5.6-7.2c-4.2-0.9-7.3,3.9-9,7.8
			C503,784.6,397,847.8,397,847.8c-29.3,13,69.3-64.6,75.6-71.6c5.2-5.8,9.4-12.3,12.9-19.3c3.4-6.9,3.3-16.9-3.4-20.8
			c-2.7-1.6-6-1.8-9.2-1.9c-24.9-0.9-49.3,5.1-74,8.1c-24.8,3.1-23.1-9.3-10.4-12.2c27.2-6.4,54.6-11.8,81.8-17.7
			c12.3-2.6,25-5.5,35-13c16.8-12.6,22.2-35.5,22.1-56.5c-0.2-21-3-45.9-3-62.8c0.1-17-0.6-48,16.4-45.3
			C557.7,537.5,550.7,582.8,550.7,582.8z"/>
		<g>
			<path d="M542.7,582.8c-0.8,25.8-0.4,51.6,0.7,77.4c0.7,16.1,1.4,32.2,3.6,48.2c1.8,13.2,4.9,26.1,7,39.2c3.5,22.1,5,44.6,5.7,67
				c0.3,9.9,0.5,19.8,0.4,29.7c-0.1,3.7-0.2,7.4-0.4,11.1c-0.1,1.3-0.2,2.6-0.3,4c0,0.6-0.1,1.1-0.2,1.7c0.2-1.6,0.1-0.8-0.1,0.2
				c0,0.3-0.6,1.7-0.5,1.9c-0.7-1,1.6-1.9,1.9-2.2c0.7-0.7-0.7,0.8-0.2-0.4c0,0.1-1-0.8-0.1,0.5c-0.8-1.3-0.9-3.8-1.3-5.4
				c-0.9-3.9-1.6-7.8-2.3-11.8c-2.7-15.7-3.9-31.7-5.5-47.5c-1.7-16-3.8-32-8.1-47.5c-1.7-6-3.6-12.8-9.4-16
				c-6.8-3.7-14.1-0.2-18.3,5.6c-2.3,3.2-3.6,7-5.7,10.4c-2,3.3-3.4,5.1-5.6,7.7c-5.6,6.6-11.8,12.7-18.3,18.5
				c-14.3,12.8-29.8,24.3-45.5,35.3c-12.6,8.8-25.4,17.2-38.4,25.3c-2.8,1.8-5.7,3.4-8.5,5.2c-0.1,0.1-0.3,0.2-0.4,0.3
				c-1.4,0.9,1.1-0.4,0.4-0.2c-0.4,0.1-0.9,0.3-1.2,0.5c-1.5,0.8-0.5,0.1,0.4,0.1c3.9,0.1,7.5,6.2,6.8,8.9c-0.5,2.1-0.1,1.5,0,0.5
				c0.1-0.8,0.3-0.3-0.5,0.6c0.3-0.4,0.7-0.8,1-1.2c1.4-1.6,2.9-3.1,4.4-4.6c4.5-4.5,9.3-8.7,14.1-12.9
				c11.7-10.3,23.7-20.2,35.6-30.2c7.9-6.6,16.4-12.8,23.7-20.1c8.2-8.3,16.7-20.7,17.8-32.6c0.5-5.7-0.9-11.7-4.5-16.1
				c-4.8-5.9-11.9-7.1-19.1-7.3c-16.6-0.5-33.2,2-49.6,4.6c-8.1,1.3-16.2,2.8-24.3,3.7c-2.9,0.3-5.9,0.6-8.8,0.3
				c-0.7-0.1-1.4-0.2-2.1-0.3c-1.3-0.3-1.2-0.4-1.1-0.2c0,0.1,0.5-0.1,0.8,1.2c0.4,1.3,0.4,2,0.2,3.4c0,0.3-0.2,0.5-0.2,0.5
				c0.3,0,0.2,0-0.4,0.2c0.4-0.2,0.8-0.6,1.2-0.8c0.8-0.4,3.6-1.2,5.7-1.6c4.1-1,8.2-1.9,12.3-2.8c16.5-3.7,33-7.1,49.5-10.5
				c14.8-3.1,30.3-5.4,44.2-11.8c12-5.5,21.6-15,27.3-26.9c12.3-25.8,8.2-55.2,6.4-82.7c-0.7-11.3-1.1-22.6-0.8-33.9
				c0.2-7.9,0.1-18.7,4.7-25c0,0,1.5-0.8,0.7-0.6c0.4-0.1,2.8,0,1.5-0.3c0.5,0.1,1.7,1.1,0.6,0.2c0.4,0.3,1.3,1.5,0.6,0.5
				c1.2,1.9,1.3,2,1.8,3.7c2.1,7.1,2.2,14.4,1.8,22.2c-0.1,3.1-0.4,6.2-0.7,9.3c-0.1,0.6-0.5,3.8-0.2,2.1c0.2-1.5,0-0.3,0,0.1
				c-0.6,4.2,1.1,8.5,5.5,9.8c3.8,1,9.1-1.3,9.8-5.5c2-13.3,3.3-28.3-0.5-41.4c-2.5-8.7-8.4-16.2-18-16.7
				c-10.9-0.6-17.6,8.1-20.4,17.7c-2.9,10-3,20.9-3,31.2c-0.1,13.5,0.9,27,1.8,40.5c1.6,25,5.2,58.6-16.9,76.4
				c-11.5,9.2-27.8,11.2-41.8,14.2c-17.1,3.6-34.3,7.1-51.4,10.9c-7.8,1.7-16,2.9-23.6,5.4c-4.3,1.4-8.5,3.8-11,7.7
				c-5.8,9.1,1.5,17.8,10.7,19.5c7.2,1.3,14.3,0.3,21.4-0.7c8.5-1.2,17.1-2.6,25.6-4c8.4-1.3,16.9-2.4,25.4-3
				c4.1-0.3,8.3-0.4,12.4-0.4c2.4,0,7.3-0.6,9.3,1.1c3.4,2.8,0.6,9.2-0.9,12.1c-2.9,5.5-6.4,11.2-10.8,15.7
				c-2.7,2.8-5.8,5.2-8.7,7.6c-22.4,18.9-46.4,36.7-66.8,57.7c-2.8,2.9-6.2,6.1-7.2,10.1c-2,8.1,5.9,12.1,12.6,10.1
				c7.6-2.3,14.7-8.1,21.3-12.3c15.4-9.8,30.5-20.1,45.2-30.9c16.4-12.1,32.6-24.7,46.7-39.5c5.5-5.8,10.9-12.1,14.9-19.1
				c0.8-1.4,1.5-2.9,2.2-4.3c0.3-0.7,1.9-2.6,1.9-3.3c0-1,0.1,0.4-0.2-0.2c-2.7-1.6-3.6-1.8-2.6-0.5c0.2,0.2,0.3,0.5,0.4,0.7
				c0.4,3.3,2.1,7,2.9,10.2c1,4.2,1.9,8.4,2.7,12.6c3,16.3,4.2,32.8,6,49.3c0.9,8.4,1.9,16.7,3.2,25c1.1,7.3,1.8,16.7,5.2,23.4
				c5.7,10.7,23.5,12.5,27.9-0.2c1.7-5,1.6-10.8,1.9-16c0.9-21.3-0.1-42.9-1.6-64.1c-0.9-12.2-2.1-24.4-3.8-36.6
				c-1.7-12.5-4.6-24.7-6.7-37.1c-2.7-16.6-3.4-33.3-4.2-50c-0.7-13.8-1.2-27.7-1.4-41.5c-0.2-13.1,0-26.2,0.4-39.3
				C558.9,572.6,543.1,572.6,542.7,582.8z"/>
		</g>
	</g>
</g>
<g class="st0">
	<g class="st1">
		<path class="st2" d="M719.7,780.8c-6,6.8,41.3,123.3,37.9,126.9c-3.4,3.6-31.4-42.2-39.9-57.9c-6.5-12-9.5-16.6-14.2-24.5
			c-4.7-7.8-15.5-13.1-23.2-8.1c-3.1,2-5.1,5.1-7.1,8.2c-15.4,23.4-55,62.1-58.2,59.9c-3.2-2.3,35.3-39.4,48.9-56.3
			c16.2-20.1,31.7-74.5,34.8-100.1s4.4-72.7,4-82c-0.5-11-2.2-24.6-7-32c-7.5-11.6-19.1-17.1-21-31s67.1-12.1,67,9
			c-0.1,21.1-5.7,58.9-10,81c-6.2,31.5-1.7,62.2,10,92c10.6,27,90.8,92.1,74.9,85.6C800.7,844.8,725.7,774,719.7,780.8z"/>
		<g>
			<path d="M714.1,775.2c-6.2,8-0.9,20.8,1.6,29.3c4.5,15.2,9.7,30.1,14.9,45c5.1,14.5,10.4,29,15.1,43.7c1.4,4.3,2.8,8.7,3.9,13.1
				c0.4,1.5,0.1,2,0.1,0c0,2.2,0.3-1,0.6-1.7c1.3-2.6,7.7-4.1,9.6-3.8c0,0,1.3,1.3,0.3,0.2c-0.9-1.1-1.9-2-2.8-3.1
				c-4.2-5-9.4-13.1-13.7-19.7c-5.1-7.9-10-15.9-14.7-24c-4.8-8.3-9.3-16.9-14.3-25.1c-6.3-10.4-13.1-20.4-26.3-21.5
				c-13.7-1.2-19.6,10.7-26.6,20.1c-6.2,8.3-13.1,16-20.1,23.5c-6.8,7.2-13.8,14.3-21.2,20.9c-1.3,1.1-2.6,2.3-3.9,3.4
				c-1.1,0.9-0.5,0.4-0.6,0.5c-0.6,0.4-1.1,0.8-1.7,1.2c-0.4,0.3-0.9,0.5-1.2,0.8c-1.1,0.9-0.1-0.4,0.6-0.2c-0.8-0.2,9,9.5,8.8,8.7
				c0.3,0.9-1.1,1.7,0,0.4c0.3-0.4,0.6-0.9,0.9-1.3c0.8-1.2-0.1,0,0.3-0.4c1.1-1.4,2.2-2.7,3.3-4c2.8-3.2,5.7-6.4,8.6-9.5
				c7-7.5,14.1-15,21.1-22.5c5.9-6.4,12-12.8,16.9-20c5.8-8.5,9.9-18.2,13.7-27.7c8.2-20.6,14.6-42.4,18.2-64.2
				c3.6-21.5,4.2-43.6,4.9-65.4c0.6-19.1,2.4-41.3-6.5-58.8c-5-9.9-16.4-16-20.3-26.4c-0.3-0.8-0.6-2.9-0.9-3.2
				c-0.2-0.3-0.1,0.9-0.1,1c-0.4,1.2-0.4,1.4-1.3,1.8c0.6-0.3,3.2-1.6,1.4-0.9c1.3-0.5,2.7-0.9,4.1-1.2c5.6-1.3,12.8-1.4,19.9-0.9
				c4,0.3,6.4,0.6,10.3,1.4c1.7,0.4,3.5,0.8,5.2,1.3c0.8,0.2,1.6,0.5,2.4,0.8c0.5,0.2,2.9,1.1,1.9,0.7c1.4,0.6,2.7,1.3,4,2.1
				c0.6,0.4,1.2,0.7,1.7,1.2c-1.2-0.9,0.2,0.3,0.6,0.6c0.4,0.3,0.7,0.8,0.9,1c-0.5-1,0.2,0.6,0.2,0.9c0,0.9-0.1-0.7-0.1-0.7
				c0,0.6,0,1.1,0,1.7c-0.4,11.5-1.4,23-2.8,34.4c-3.3,26.4-10.8,52.7-9.9,79.4c0.5,15.3,3.3,30.6,7.7,45.2c2.8,9,5.7,18.1,11.1,26
				c18.2,26.8,44.4,47.6,66.9,70.7c1.5,1.5,2.8,3,4.3,4.6c1.5,1.5-0.6-1.3,0.2,0.2c0.1,0.2,0.3,0.4,0.3,0.6c-0.5-2.2-2-4.4,0.1-7.1
				c0.9-0.9,1.9-1.9,2.8-2.8c1.5-1,4.2-1,5.2-0.8c-0.7-0.1-1.9-0.9,0.5,0.3c-1.1-0.6-2.2-1.1-3.2-1.8c-3-1.8-5.7-3.9-8.5-5.9
				c-7.1-5.3-15.5-12.2-23.1-18.5c-16.4-13.5-32.5-28-50.3-39.7C729.2,774.5,720.4,769,714.1,775.2c-7.3,7.1,3.9,18.3,11.2,11.2
				c-1.4,1.4-2.8,1.8-4.4,1.9c1-0.1-2.5-0.1-0.9-0.1c0.4,0,0.8,0.2,1.1,0.4c1,0.5-1.7-0.9,0,0.1c2.7,1.6,5.4,3.1,8,4.9
				c7.6,5.2,13.9,10.4,21.1,16.1c16.2,13.1,31.9,26.7,48.4,39.3c4.9,3.7,10.2,8.3,16.2,10.2c8.3,2.6,14.7-5.5,10.1-13
				c-3.1-5.1-8.2-9.3-12.4-13.4c-6.9-6.7-13.9-13.4-20.8-20.1c-13.9-13.6-29.3-27.9-39.3-43.7c-0.9-1.5-1.8-2.9-2.6-4.5
				c-0.2-0.4-1-2.2-0.6-1.2c0.7,1.7-0.7-1.9-0.8-2.2c-0.6-1.5-1.1-2.9-1.6-4.4c-3.1-8.7-5.5-17.6-7.3-26.7c-3.5-18-3.4-36.6,0-54.7
				c2.8-14.6,5.1-29.2,7-43.9c1.7-12.8,4.2-26.8,3.1-39.7c-1.6-19.7-29.2-23.7-44.4-24.6c-13.7-0.8-42.4,0.3-37.7,21
				c1.6,7.2,6,13.3,10.9,18.7c4.4,4.8,9.8,9.3,12.3,15.4c4.2,10.2,4.3,22.2,4.2,33.2c-0.2,24.7-0.7,51.4-4.3,75.1
				c-3.8,25.5-11.4,51.7-22.2,75.1c-4.6,9.9-9.7,17.7-16.8,25.6c-8.1,9-16.6,17.8-24.8,26.6c-6.1,6.5-13.5,13.3-18,21.1
				c-5.4,9.4,3.8,17.7,12.9,12.4c8-4.7,14.9-12.1,21.4-18.6c9.3-9.2,18.2-18.8,26.4-29c3.7-4.6,7.4-9.4,10.7-14.3
				c3.6-5.4,7-8.3,13-3.9c4.5,3.3,7.2,9.8,10,14.5c3.2,5.5,6.3,11.1,9.4,16.7c5.3,9.5,11,18.8,16.8,28c5.5,8.6,11,17.5,17.8,25.2
				c2.4,2.7,5.1,5.3,8.9,5.9c5.3,0.8,9.6-3.3,9.8-8.4c0.2-4.4-1.7-9.2-2.9-13.3c-10.6-34.4-25.5-67.6-34.1-102.6
				c-0.3-1.3-0.6-2.7-0.9-4c-0.2-1-0.6-4.6-0.4-1.9c-0.1-0.8,0-1.7-0.2-2.5c-0.1-0.9,0.7-2-0.2,0.8c0.4-1.5-1.6,2.5-1.6,2.5
				c2.6-3.4,3.3-7.9,0-11.2C722.5,772.4,716.7,771.8,714.1,775.2z"/>
		</g>
	</g>
</g>
<g>
	<g>
		<path d="M433.7,246.3c-8.9,6.7-14.3,16.4-14.6,27.7c-0.4,10.8,4.6,22.6,14.9,27.3c5.5,2.5,12.1,2.2,16.8-2
			c4.6-4.1,5.6-9.9,6.4-15.7c2-14.6,1.6-29.2-1-43.7c-1.1-6.1-9.3-7.4-13.3-3.5c-5.2,5.1-7.7,11.2-8.6,18.4c-0.5,4.3,4,7.9,7.9,7.9
			c4.7,0,7.4-3.7,7.9-7.9c0.4-2.8,2-5.2,4-7.1c-4.4-1.2-8.8-2.3-13.3-3.5c1.5,8.6,2,17.4,1.6,26.1c-0.2,4.3-0.5,8.7-1.2,12.9
			c-0.2,1.3-1,3.1-1.1,4.3c-0.3,0.5-0.2,0.4,0.5-0.3c0.7,0,0.7,0,0-0.1c-0.3-0.6-2.2-1.4-2.8-2.1c-0.8-1-1.4-2.2-1.9-3.4
			c-1-2.6-1.3-5.4-1.1-8.2c0.4-5,2.7-10.3,6.8-13.3c3.4-2.6,5.2-6.9,2.8-10.9C442.6,245.8,437.2,243.7,433.7,246.3L433.7,246.3z"/>
	</g>
</g>
<g>
	<path class="st3" d="M899.1,188.5c12.1-60.1-10.4-180.8-10.4-180.8c-40.6,20.6-84.8,117.3-84.9,191.5c0,0-6.2-132.5-40.4-188.4
		l-2.5,2.7c-51.7,53.9-74.1,130.9-74.1,205.5c0,74.6,36.7,201,44.6,218.4s25.9,42.5,60.2,23.7c34.2-18.7,97.3-91,122.9-152.1
		s56.7-194.5,56.7-194.5C942.2,119.4,895.9,204.6,899.1,188.5z"/>
	<g>
		<path d="M906.7,190.7c5.7-29.2,4.3-59.7,2-89.1c-2.1-26.8-5.5-53.5-9.8-80c-0.8-5.3-1.7-10.5-2.7-15.8c-1-5.3-7.5-6.9-11.7-4.7
			c-21.9,11.3-37.2,34.5-48.9,55.3c-15.6,27.9-27,58.7-33.8,90c-3.7,17.4-6.1,35.2-6.2,53c5.3,0,10.6,0,15.9,0
			c-0.8-16.3-2.4-32.6-4.2-48.7c-3.7-32.4-8.8-65-17.9-96.4c-4.7-16.3-10.6-32.7-19.4-47.3c-2.5-4.2-8.9-5.4-12.5-1.6
			c-12.5,13.5-24.1,27.6-33.9,43.3c-10.6,17-19.1,35.3-25.8,54.2c-13.5,37.8-19.7,78.6-19.3,118.7c0.3,33.4,6.1,66.9,12.8,99.5
			c6.2,30.4,13.7,60.7,22.6,90.4c5.7,19.1,11.5,40.6,27.5,54c13.6,11.4,30.6,12.9,46.7,6.1c13.2-5.5,24.6-14.9,35.2-24.4
			c27.5-24.7,51.3-54.2,71.3-85.1c18.2-28,31-57.9,41.4-89.6c16.4-50.1,29.7-101.4,41.8-152.6c0.2-1,0.5-2.1,0.7-3.1
			c1.4-6.2-3.8-10.9-9.8-9.8c-15.6,2.9-28.4,18.2-38.1,29.6c-11.1,13.2-20.9,27.4-31.1,41.4c-0.9,1.2-1.8,2.5-2.8,3.7
			c1.3-1.7-0.7,0.9-1.2,1.5c-1.2,1.4-2,1.1-0.1,0.4c-0.4,0.1-0.3,0,0.7-0.2c1.9-1.1,3.7-0.3,5.4,2.3c3.4,0.3,5,1.7,4.9,4.4
			C906.7,188.4,906.5,191.8,906.7,190.7c1.9-10-13.4-14.3-15.3-4.2c-0.8,4.1-0.4,8.5,3.7,10.9c3.7,2.2,7.9,0.9,10.9-1.8
			c4.3-4,7.5-9.4,10.9-14.2c11.3-15.8,22.5-31.9,36.3-45.7c3.5-3.5,7.3-6.9,10.6-9.2c1.7-1.1,3.4-2.1,5.2-3.1c1.4-0.7,0.3-0.2,0,0
			c0.5-0.2,1-0.4,1.6-0.6c0.9-0.3,1.8-0.5,2.7-0.7c-3.3-3.3-6.5-6.5-9.8-9.8c-10,42.7-21.1,85.1-33.6,127.1
			c-8.3,27.9-16.8,56.3-30.1,82.3c-16.6,32.7-38.6,62.8-63.3,89.8c-10.6,11.6-21.7,22.7-34,32.5c-10,8-22.8,16.9-36.2,15.7
			c-12.2-1.1-20.5-11.6-25.9-21.7c-1-1.8-1.8-3.6-2.7-5.5c1.3,2.8-0.5-1.4-0.8-2.3c-1.4-3.7-2.6-7.5-3.8-11.3
			c-8.2-25.6-15-51.8-21-78c-7.4-32.2-13.8-64.9-16.5-97.9c-5.9-72.6,11.5-152.2,58.1-209.6c4.8-5.9,10-11.5,15.2-17.1
			c-4.2-0.5-8.3-1.1-12.5-1.6c15.7,26,22.4,57.4,27.9,86.9c5,26.7,8.2,53.7,10.3,80.7c0.4,5.6,0.9,11.2,1.1,16.8
			c0.5,10.1,15.8,10.3,15.9,0c0.1-30.2,6.9-60.1,16.9-88.5c9.1-25.9,21.3-52,38.6-73.5c7.2-9,15.3-17.4,25.4-22.6
			c-3.9-1.6-7.8-3.2-11.7-4.7c8,43,13.4,87.3,13.7,131.1c0.1,15.2-0.3,30.5-3.3,45.5C889.5,196.4,904.8,200.7,906.7,190.7z"/>
	</g>
</g>
<g>
	<g>
		<path class="st3" d="M874.9,543.2c20.6,13.8,49.6,38.9,58.6,62c17.7,44.9,33.1,92.5,66.7,127.2c46.3,47.8,176.4,72.1,176.4,72.1
			c-6.5-31.1-18.4-61.1-35.1-88.2c-8.7-14.1-19.6-28.1-35.1-34l10.2-0.6c27.8,2.4,56.1,4.8,83.3-1.4c27.2-6.2,53.5-22.6,64.6-48.2
			l-3.1-9.6c-11.8-47.9-89.4-92.5-137-87.3c-13.4,1.5,80.1-49.8,99.4-92.4c19.3-42.6,24.8-90,27.5-136.6s14.7-135.1,14.7-135.1
			c-66.6,24.3-125.4,69.4-166.4,127.2c-25.6,36.3-44.2,77.1-69.1,113.9c-24.9,36.8-76.1,69.7-118.8,81.9L874.9,543.2z"/>
		<g>
			<path d="M870.9,550.1c14.5,9.8,28.1,21.2,39.7,34.3c5.4,6.1,10.3,12.7,14,20c4,8,6.8,16.9,10,25.2c13.7,35.4,28.1,71.2,53,100.4
				c17.8,21,41.9,34.7,66.8,45.6c24.8,10.8,50.5,19.2,76.6,26.2c14.4,3.9,28.9,7.5,43.6,10.2c6.1,1.1,11.1-3.6,9.8-9.8
				c-5.6-26.2-14.8-51.6-27.4-75.2c-11.3-21.2-25.1-43.2-48.3-52.4c-0.7,5.2-1.4,10.4-2.1,15.6c13.3-0.7,26.4,1,39.7,1.6
				c19.6,0.9,39.7,0.3,58.8-4.6c15.7-4,30.5-11.2,43.1-21.3c6.1-4.9,11.4-10.6,16-17c3.8-5.3,9.6-13.1,7.8-19.8
				c-2.6-9.9-6-19.9-11.2-28.7c-6.8-11.6-16.1-21.9-26.2-30.6c-21.6-18.6-48.1-33-75.9-39.6c-6.4-1.5-12.9-2.6-19.4-3.1
				c-2.8-0.2-5.6-0.3-8.4-0.3c-1.2,0-6.1-0.4-6.9,0.4c1.7-1.9,8.1,6.9,6.1,11.1c0.4-1-1.2,1.1-0.6,0.8c0.7-0.4,1.4-1.4,2-1.9
				c0.5-0.4,1-0.8,1.5-1.2c-1.3,1-0.3,0.2,0.4-0.3c1.5-1.1,3-2.2,4.5-3.3c18.2-13.1,36.5-25.9,53.6-40.4c9.1-7.7,17.9-15.9,25.5-25
				c8.5-10.1,14.2-20.8,19-33.1c14-35.7,19.4-74.3,22.1-112.4c3.6-49.1,8.7-98,15.2-146.8c0.1-0.5,0.1-0.9,0.2-1.4
				c0.2-1.3-0.3,2.3-0.1,0.6c0-0.3,0.1-0.6,0.1-0.9c0.7-5.3-3.4-12.1-9.8-9.8c-39.2,14.4-75.5,35.4-107.6,62.1
				c-33.2,27.6-60.2,61-82.4,97.9c-11.9,19.8-22.8,40.3-34.7,60.1c-10.9,18.2-22.2,35.4-37.7,50c-14.9,14-31.9,25.7-49.9,35.4
				c-8.7,4.7-17.7,9-27,12.5c-6.4,2.4-15.9,3.5-20.2,9.1c-12.2,16.1-24.3,32.3-36.4,48.5C865.5,542.6,867.5,548.1,870.9,550.1
				c4.1,2.4,8.3,0.6,10.9-2.8c12.2-16.3,24.5-32.6,36.7-48.9c-1.6,1.2-3.2,2.4-4.7,3.6c29.6-8.6,57.4-23.8,81.7-42.5
				c12-9.2,23.2-19.4,32.9-31.1c10.7-13,19.4-27.7,27.8-42.1c17.8-30.4,33.9-61.9,55-90.2c18.5-24.9,40.8-47.4,65.4-66.4
				c27.7-21.4,58.7-38.6,91.5-50.7c-3.3-3.3-6.5-6.5-9.8-9.8c-4.4,32.5-8.4,65.1-11.7,97.8c-5.6,55.6-5.3,112.1-26.5,164.8
				c-7.2,18-19.6,31.5-33.9,44.3c-14.3,12.7-29.7,24.1-45.2,35.2c-5.4,3.8-10.8,7.6-16,11.6c-3.4,2.6-8.1,5.5-9.4,10
				c-1.2,4.4,1.5,9.1,5.9,10.3c3.4,0.9,7.2-0.1,10.6-0.1c10,0,19.8,1.8,29.3,4.6c21.7,6.3,42.7,17.4,60.1,32
				c15.1,12.6,27.1,27.3,32.8,46.2c0.9,2.9,1.9,5.8,2.8,8.7c0.3-2,0.5-4.1,0.8-6.1c-11.7,26.2-38.3,40.6-65.5,45.7
				c-17.3,3.2-35.2,2.9-52.8,1.8c-11.1-0.7-21.9-1.9-33-1.2c-9.3,0.5-10.3,12.3-2.1,15.6c19.7,7.8,31.4,30.6,40.5,48.3
				c11.1,21.5,19.1,44.5,24.1,68.3c3.3-3.3,6.5-6.5,9.8-9.8c-37.2-7-74.3-17.6-109.3-31.9c-22.8-9.3-46.8-20.8-64.1-38.8
				c-26.2-27.2-40.9-63-54.3-97.6c-3.8-9.9-7.3-20.1-11.6-29.7c-3.9-8.5-9.5-16.2-15.6-23.3c-12.8-15.1-28.5-28.1-44.9-39.1
				C870.4,530.6,862.4,544.4,870.9,550.1z"/>
		</g>
	</g>
</g>
<g class="st0">
	<g class="st1">
		<path class="st4" d="M215.7,370.8c-49.3,38.1-79.5,124.5-112.1,177.6c-32.1,52.4-87,94.8-94.8,155.8c-2.4,18.6,0.6,38.9,13,53
			c17.3,19.6,49.3,21.2,72.1,8.3c22.8-12.8,37.3-37,45.2-62c7.8-25,10-51.3,14-77.2c12.2-76.9,59.2-176.2,104.5-239.5L215.7,370.8z"
			/>
		<g>
			<path d="M210.1,365.2c-22.7,17.8-39.4,42.5-53.7,67.2c-15.4,26.4-28.4,54.1-42.4,81.2c-6.6,12.6-13.3,25.2-21.2,37.1
				c-8.5,12.9-18.1,25.1-27.8,37.1c-19.3,23.9-39.9,47.9-52.6,76.2c-12.6,28.2-19.8,65.7-0.8,92.9c18.1,25.8,53.2,30.4,80.8,18.2
				c30.5-13.5,48.1-45.9,56.5-76.6c9.3-34.4,10.3-70.3,19.4-104.8c17.1-65,46.9-127.8,83.5-184.1c4.1-6.3,8.4-12.6,12.8-18.8
				c3.2-4.5-0.4-10-4.7-11.7c-14-5.3-28-10.7-42-16c-4-1.5-8.7,1.7-9.8,5.5c-1.2,4.5,1.5,8.2,5.5,9.8c14,5.3,28,10.7,42,16
				c-1.6-3.9-3.2-7.8-4.7-11.7c-37.3,52.4-66.8,111.6-87.5,172.4c-10.4,30.5-16.8,61.3-21.2,93.1c-4.5,32.7-10,68.4-32.6,94.2
				c-17.7,20.1-48,31.6-72.7,16.8c-26.9-16.1-23-54-13.9-79.2c9.8-27.3,28.7-50.5,46.7-72.8c18.5-22.9,36.4-45.8,50.6-71.7
				c13.9-25.3,26-51.5,39.7-76.9c13.2-24.6,27.6-49.3,47.2-69.4c4.5-4.6,9.2-8.9,14.2-12.8c3.4-2.6,2.8-8.4,0-11.2
				C217.9,361.8,213.4,362.5,210.1,365.2z"/>
		</g>
	</g>
</g>
<g>
	<g>
		<path class="st5" d="M246.3,403.3c13.9,6.3,26.3,15.7,40.4,21.8c21.1,9.2,44.7,10.4,67.7,10.4c15.1,0,33.6-2.8,39.1-16.9
			c5.1-13.3-5.3-27.6-17.1-35.5c-25.1-16.8-57.5-18.9-87.4-14.2c-29.9,4.7-64.9,13.9-94.3,20.9C186.5,391.4,234.5,398,246.3,403.3z"
			/>
		<g>
			<path d="M242.3,410.2c17.8,8.3,33.5,20.4,52.4,26.4c18.6,5.8,38.5,6.9,57.9,6.9c14.6,0,32.2-1.4,42.7-12.9
				c12.7-13.9,7.3-32.9-4.3-45.4c-12-12.9-30.1-20.2-47-23.6c-18-3.6-36.4-3.2-54.6-0.6c-18.8,2.7-37.4,7-55.9,11.4
				c-9.2,2.2-18.4,4.4-27.6,6.7c-5.9,1.4-16.4,1.6-19.2,8.2c-5.3,12.2,15.9,14,22.8,15.4c6.3,1.3,12.6,2.5,18.9,3.9
				c3,0.7,5.9,1.4,8.9,2.2c1.2,0.3,2.3,0.7,3.5,1C241.1,409.8,244.2,411.1,242.3,410.2c3.9,1.7,8.5,1.1,10.9-2.8
				c2-3.4,1.1-9.1-2.8-10.9c-9.5-4.2-19.9-5.9-30-7.9c-5.2-1.1-10.3-2.1-15.5-3.2c-1.8-0.4-3.7-0.8-5.5-1.3
				c-0.6-0.2-1.3-0.5-1.9-0.6c-1-0.2,0.2-0.3,0.1,0.1c0.7,0.3,0.9,0.4,0.6,0.2c-1.1-0.7-0.3,0.2,2.5,2.5c0.4,1.3,0.7,2.7,1.1,4
				c0,0,0-0.1,0-0.1c-0.4,1.3-0.7,2.7-1.1,4c0,0,0-0.1,0.1-0.1c-0.9,0.9-1.9,1.9-2.8,2.8c0.4-0.3-1.8,0.1-1,0.5
				c0.6,0.3,4.1-1,4.9-1.2c2.8-0.7,5.5-1.3,8.3-2c6.3-1.5,12.6-3.1,18.9-4.6c12.8-3.1,25.7-6.1,38.6-8.8c23.7-4.9,48.1-8.9,72.2-4.1
				c11.6,2.3,22.9,6.5,32.7,13.2c7.4,5,17.2,15.2,14,25.1c-2.7,8.3-13,10.9-20.6,11.9c-11.1,1.5-22.9,0.7-34.1,0
				c-14.5-1-29.2-3.4-42.6-9.4c-13.4-6-25.4-14.8-38.8-21.1c-3.9-1.8-8.6-1.1-10.9,2.8C237.4,402.8,238.4,408.4,242.3,410.2z"/>
		</g>
	</g>
</g>
<g class="st0">
	<g class="st1">
		<path class="st4" d="M243.7,390.8c-11.5,50.6-16.7,112.2-14,164.1c1.1,21.5,3.5,43.5-2.5,64.2c-5.6,19.6-18.1,36.3-29.4,53.4
			c-11.7,17.7-22.5,36.7-26.1,57.7c-3.6,20.9,1,44.3,16.4,59c26.1,25,72.9,13.6,95-15c22.1-28.6,25-67.6,22-103.6
			c-3-36-10.9-72.1-6.9-108c3.1-27.8,13.2-54.2,18.8-81.6s6-67.3-8.5-91.2L243.7,390.8z"/>
		<g>
			<path d="M236,388.7c-7.3,32.2-11.6,65.2-13.7,98.1c-1,16.5-1.5,33-1.2,49.5c0.3,16.7,2,33.4,2.1,50.1c0,16.9-2.8,32.9-10.7,48
				c-7.6,14.6-17.6,27.6-26.3,41.5c-16.5,26.4-29.1,57.5-20.8,88.9c7.2,27,29.7,45.3,57.7,46c25.2,0.6,50.9-12,66.3-31.9
				c42-54.3,17.9-125.9,15.9-187.6c-0.6-17.8,1.2-35.1,5.3-52.4c4-16.9,9.2-33.5,13.1-50.5c6.2-27.3,7.9-57.5-0.2-84.5
				c-1.9-6.3-4.5-12.5-7.9-18.2c-1.4-2.4-4.1-4-6.9-3.9c-21.7,0.3-43.3,0.7-65,1c-10.2,0.2-10.2,16,0,15.9c21.7-0.3,43.3-0.7,65-1
				c-2.3-1.3-4.6-2.6-6.9-3.9c12.8,21.7,12.7,50.7,9.4,74.9c-4.3,31.2-16.8,60.6-20.6,91.9c-7.5,61.9,22.2,126.5-1.3,186.7
				c-8.9,22.9-26.8,40.4-51,46c-22.6,5.2-45.7-3.3-55.1-25.5c-11.6-27.5,0.4-57.2,14.9-81c8.1-13.3,17.5-25.7,25.2-39.2
				c8-14,13.3-28.8,15-44.8c1.8-16.3,0.2-32.6-0.7-48.9c-0.8-15.2-0.9-30.5-0.4-45.8c1-31.4,4.1-62.8,9.7-93.8
				c1.3-7.2,2.8-14.4,4.4-21.6C253.6,383,238.3,378.7,236,388.7z"/>
		</g>
	</g>
</g>
<g>
	<g>
		<path class="st5" d="M360.7,405.8c-22.1,6.8-70.3,1-93.7-4.8c-17.5-4.3-34.2-11.7-51.6-16.3c-17.4-4.6-36.7,2.9-53.2,0.5
			s-17-9.1-17-9.1c28.3-2.1,52.6-19.7,76.8-34.5c24.2-14.8,91.2-28.9,108.6-21.8C348.1,326.9,383.3,398.8,360.7,405.8z"/>
		<g>
			<path d="M358.6,398.1c-11.6,3.4-24.3,3.1-36.3,2.5c-13.6-0.6-27.1-2.2-40.5-4.6c-15.7-2.9-30.6-8-45.6-13.1
				c-8.4-2.9-17-6.1-25.9-7.2c-8.8-1.1-17.5-0.1-26.2,0.9c-9,1-18.6,2.2-27.4-0.8c-1.1-0.4-2-0.8-3-1.4c-1-0.6-0.1,0.2-1.2-1
				c1.4,1.6-0.2-1,0.3,0.4c0.4,1.4,0.3,0.7,0.2,0.5c-0.2-0.8-0.1-1.4,0.2,1.7c-2.6,2.6-5.3,5.3-7.9,7.9
				c29.6-2.5,54.1-19.1,78.7-34.3c16.9-10.4,37.2-15.5,56.5-19.5c9.8-2,19.7-3.6,29.6-4.2c4.1-0.2,8.2-0.3,12.3,0
				c0.4,0,2.3,0.3,1.7,0.2c-0.7-0.1,1.1,0.2,1.4,0.3c0.7,0.2,1.4,0.4,2.1,0.6c1.3,0.3-1.1-0.8,0.3,0.1c0.4,0.3,0.9,0.6,1.4,0.8
				c1.3,0.8-0.1-0.1,0.3,0.2c1.3,1,2.4,2.2,3.5,3.4c2.6,2.8,3.8,4.4,5.9,7.5c5.1,7.3,9.4,15.3,13,23.4c3.5,7.8,6.9,17.4,7.9,25.2
				c0.1,0.8,0.3,3.6,0.3,5.2c0,0.4-0.2,2.6-0.1,1.7c0.1-0.9-0.2,1.1-0.3,1.5c-0.1,0.4-0.8,2.2-0.4,1.3c0.7-1.3-1.2,1.9-0.4,0.6
				C358.9,398,358.7,398.1,358.6,398.1c-9.6,3.3-5.5,18.6,4.2,15.3c17.9-6.1,13.7-28.7,9.3-42.5c-5.6-17.8-14.7-36.1-27.4-50
				c-4.7-5.2-10.2-9-17.2-10.1c-9.5-1.5-19.2-0.7-28.7,0.4c-23.1,2.9-46.3,8.2-67.8,17.2c-29.2,12.3-52.7,36.9-85.7,39.7
				c-3.9,0.3-8.4,3.4-7.9,7.9c1.1,11.4,14.2,15.5,23.8,16.9c18.7,2.6,37.2-5,55.7,0.4c18,5.2,35.3,12.7,53.7,16.6
				c14.6,3.1,29.6,5.1,44.5,6.1c15.6,1.1,32.5,1.8,47.7-2.7C372.5,410.5,368.4,395.2,358.6,398.1z"/>
		</g>
	</g>
</g>
<g>
	<path class="st3" d="M943.7,391.8c19-17-10,170-123.9,200.1c-44.2,15.1-92.3,12.7-138.8,8.5c-36.7-3.3-73.5-7.7-109-17.7
		C451.5,548.9,350.7,435.1,322.2,326s7.6-168.6,74.3-204.6s157.4-19.6,207.2,37.6c33.9,39,48.1,91.1,58,141.8
		c9.4,48.4,18.3,101.7,55.9,133.7c21.8,18.5,50.7,27,79.3,28.2C846.3,464.8,924.7,408.8,943.7,391.8z"/>
	<g>
		<path d="M949.3,397.4c-0.7,0.6-0.7,0.7-1.8,1c-1.8,0.5-3.9,0-5.3-1.1c-0.3-0.2-2.1-2.5-1.1-0.9c-1.6-2.6-0.1-0.8-0.1,0.4
			c0,1.8,0-1.9,0.1,0.9c0.1,1.2,0.1,2.3,0.1,3.5c0,2.9-0.2,5.7-0.5,8.5c-0.1,0.7-0.2,1.5-0.3,2.2c-0.3,2.3,0.1-0.8-0.1,1.1
			c-0.3,1.9-0.6,3.8-0.9,5.7c-0.7,4.1-1.6,8.2-2.5,12.3c-2.2,9.5-5,19-8.2,28.2c-14.5,42-39.2,85.7-78,110.3
			c-10,6.3-20.6,10.9-31.9,14.2c-20.5,6-40.5,10.2-61.9,11.3c-21.6,1.1-43.2,0-64.7-1.8c-22-1.8-44-4-65.8-7.3
			c-38.6-6-76-16.3-110.6-34.5c-31.4-16.5-60.1-37.9-85.5-62.6c-49-47.7-87.3-108.3-102.7-175.3c-7.2-31.2-10.5-64.5-2.6-95.9
			c6.2-24.7,19.5-46.4,38.3-63.6c20.7-19.1,46.8-33.4,74.2-39.9c31.4-7.4,64.7-4.9,94.9,5.8c31.5,11.1,58.8,31.9,77.6,59.6
			c21.7,31.9,32.8,69.5,40.9,106.8c7.6,35.2,12.3,71.2,26.6,104.5c6.9,16,16.2,31,28.5,43.4c13.7,13.6,30.7,23.1,49,29
			c16.1,5.1,34.5,8.4,51.5,6.9c14.5-1.3,28.5-5.5,41.9-10.9c27.8-11.2,53.9-26.8,78.2-44.3C934.3,409.6,942.1,403.8,949.3,397.4
			c7.6-6.8-3.6-18-11.2-11.2c-17.8,15.8-39.5,29.7-61,41.7c-25.4,14.2-54.6,28.6-84.4,26.6c-19.4-1.3-38.8-6.3-55.7-16.1
			c-15.8-9.1-28.2-22.4-37.3-38.1c-18.5-31.8-23.9-69.4-30.9-104.9c-7.7-38.9-18-78.1-38.2-112.6c-18.3-31.2-44.8-56.3-77.8-71.3
			c-31.2-14.2-66.2-20.1-100.3-15.8c-31.9,4-61.5,16.7-87.1,36.1c-22.1,16.8-39.6,38-50,63.8c-11.8,29.3-12.8,61.7-8.7,92.7
			c9.6,72.3,45.1,138.7,93.6,192.5c50.5,56,115.9,98.1,189.9,114.6c22.4,5,45.2,8.2,68,10.7c22.3,2.4,44.7,4.5,67.2,5.2
			c39.4,1.2,80-2.8,116.4-18.8c46.5-20.5,76.9-66.3,95.7-111.7c7.7-18.6,13.8-38.1,17.2-57.9c1.7-10,5.4-25.7-0.4-35.2
			c-3.8-6.2-11.2-5.8-16.2-1.5C930.3,392.9,941.6,404.1,949.3,397.4z"/>
	</g>
</g>
<circle class="st6" cx="429.2" cy="271.3" r="15.5"/>
</svg>
