<svg xmlns="http://www.w3.org/2000/svg" viewBox="0 0 763.07 539.92"><defs><style>.cls-1{fill:none;}.cls-1,.cls-5{stroke:#000;stroke-miterlimit:10;}.cls-2{fill:#ccb752;}.cls-3{fill:#eddd7e;}.cls-4{fill:#e8ddaf;}.cls-5{fill:#494637;}</style></defs><g id="Layer_2" data-name="Layer 2"><g id="Layer_1-2" data-name="Layer 1"><line class="cls-1" x1="500.73" y1="399.09" x2="762.49" y2="399.09"/><polygon class="cls-2" points="762.45 538.95 762.45 539.41 500.4 538.41 458.06 371.85 458.06 371.42 715.04 370.42 715.04 370.92 762.45 538.95"/><polygon class="cls-3" points="500.4 538.41 500.43 538.52 1.11 538.52 39.45 371.85 458.06 371.85 500.4 538.41"/><polygon class="cls-1" points="500.4 538.41 500.43 538.52 1.11 538.52 39.45 371.85 458.06 371.85 500.4 538.41"/><line class="cls-1" x1="715.04" y1="370.92" x2="762.45" y2="538.95"/><polyline class="cls-1" points="457.93 371.42 458.06 371.42 715.04 370.42 715.15 370.42"/><polyline class="cls-1" points="763.07 539.41 762.45 539.41 500.4 538.41 500.3 538.41"/><polygon class="cls-2" points="761.99 404.1 761.99 404.56 499.93 403.56 457.6 237 457.6 236.56 714.58 235.56 714.58 236.06 761.99 404.1"/><polygon class="cls-3" points="499.93 403.56 499.96 403.68 0.65 403.68 38.98 237 457.6 237 499.93 403.56"/><polygon class="cls-1" points="499.93 403.56 499.96 403.68 0.65 403.68 38.98 237 457.6 237 499.93 403.56"/><line class="cls-1" x1="714.58" y1="236.07" x2="761.99" y2="404.1"/><polyline class="cls-1" points="457.47 236.56 457.6 236.56 714.58 235.56 714.69 235.56"/><polyline class="cls-1" points="762.6 404.56 761.99 404.56 499.93 403.56 499.83 403.56"/><polygon class="cls-2" points="713.68 109.56 761.09 254.56 499.86 254.56 457.6 111.06 457.29 110.89 457.47 110.56 713.68 109.56"/><polygon class="cls-4" points="713.68 109.56 457.47 110.56 457.29 110.89 250.68 0.56 512.95 0.56 713.68 109.56"/><polygon class="cls-3" points="499.86 254.56 499.96 254.9 0.65 254.9 38.98 111.06 250.68 0.56 457.29 110.89 457.6 111.06 499.86 254.56"/><polygon class="cls-1" points="499.86 254.56 499.96 254.9 0.65 254.9 38.98 111.06 250.68 0.56 457.29 110.89 457.6 111.06 499.86 254.56"/><line class="cls-1" x1="457.47" y1="110.57" x2="713.68" y2="109.57"/><polyline class="cls-1" points="499.83 254.56 499.86 254.56 761.09 254.56 761.59 254.56"/><line class="cls-1" x1="713.68" y1="109.57" x2="761.09" y2="254.57"/><polyline class="cls-1" points="250.68 0.56 512.95 0.56 513.45 0.56"/><line class="cls-1" x1="713.68" y1="109.57" x2="512.95" y2="0.57"/><ellipse class="cls-5" cx="249.17" cy="62.07" rx="16.64" ry="23.5"/></g></g></svg>